<svg width="476" height="414" viewBox="0 0 476 414" fill="none" xmlns="http://www.w3.org/2000/svg">
<rect width="476" height="414" fill="#E5E5E5"/>
<rect x="-1131" y="-73" width="1631" height="487" fill="white"/>
<g opacity="0.4">
<g opacity="0.7">
<path opacity="0.7" d="M174.749 201.321C181.529 201.321 188.437 201.45 195.218 201.45C200.591 201.45 204.813 197.203 205.196 191.54C205.452 186.906 202.254 183.303 197.904 183.045C197.009 183.045 196.625 182.53 196.625 181.629C196.625 179.956 196.753 178.283 196.625 176.739C195.985 170.175 191.636 165.67 185.495 164.769C178.587 163.868 172.958 169.66 171.934 174.937C171.806 175.58 171.55 175.967 170.911 176.095C170.271 176.224 170.015 175.838 169.631 175.323C168.992 174.293 168.48 173.264 167.712 172.492C164.258 168.888 158.245 170.046 156.199 174.68C155.431 176.481 155.559 178.283 155.687 180.214C155.815 181.243 155.431 181.629 154.408 181.758C153.512 181.758 152.616 181.887 151.721 182.016C146.732 183.045 143.917 187.421 144.685 192.698C145.452 197.589 149.418 201.192 154.152 201.192C160.932 201.192 167.84 201.192 174.749 201.321Z" stroke="black" stroke-width="4" stroke-miterlimit="10"/>
</g>
<g opacity="0.7">
<path opacity="0.7" d="M25.6464 161.989C30.1486 161.989 34.4956 162.145 38.9978 162.145C42.4133 162.145 45.2077 159.49 45.3629 155.742C45.5182 152.774 43.5 150.431 40.7055 150.275C40.0845 150.275 39.9292 149.963 39.9292 149.338C39.9292 148.245 39.9292 147.152 39.9292 146.214C39.6187 141.997 36.669 139.03 32.6326 138.405C28.1303 137.78 24.5596 141.529 23.7834 144.965C23.6282 145.277 23.4729 145.59 23.1624 145.746C22.6966 145.746 22.5414 145.59 22.3861 145.277C21.9204 144.653 21.6099 144.028 21.1442 143.403C18.8154 141.06 15.0895 141.841 13.6922 144.809C13.2265 145.902 13.2265 147.152 13.3817 148.401C13.3817 149.026 13.2265 149.338 12.6055 149.338C11.9845 149.338 11.5187 149.338 10.8977 149.494C7.63749 150.119 5.77451 152.93 6.39551 156.366C6.86125 159.49 9.50048 161.833 12.4502 161.833C16.7972 161.989 21.2994 161.989 25.6464 161.989Z" stroke="black" stroke-width="4" stroke-miterlimit="10"/>
</g>
</g>
<path d="M328.937 104.039C309.895 104.039 294.42 119.606 294.42 138.762C294.42 157.917 309.895 173.484 328.937 173.484C347.979 173.484 363.454 157.917 363.454 138.762C363.454 119.606 347.979 104.039 328.937 104.039ZM328.937 168.851C312.451 168.851 299.026 155.346 299.026 138.762C299.026 122.177 312.451 108.673 328.937 108.673C345.423 108.673 358.848 122.177 358.848 138.762C358.848 155.346 345.423 168.851 328.937 168.851Z" fill="#FFA912"/>
<path d="M331.24 67H326.634V94.7724H331.24V67Z" fill="#FFA912"/>
<path d="M331.24 182.751H326.634V210.524H331.24V182.751Z" fill="#FFA912"/>
<path d="M299.637 106.027L280.115 86.3888L276.859 89.6652L296.38 109.303L299.637 106.027Z" fill="#FFA912"/>
<path d="M358.224 171.512L377.746 191.15L381.003 187.873L361.481 168.236L358.224 171.512Z" fill="#FFA912"/>
<path d="M285.208 136.445H257.601V141.079H285.208V136.445Z" fill="#FFA912"/>
<path d="M400.273 136.445H372.666V141.079H400.273V136.445Z" fill="#FFA912"/>
<path d="M276.866 187.858L280.123 191.134L299.644 171.496L296.387 168.22L276.866 187.858Z" fill="#FFA912"/>
<path d="M381.018 89.6672L377.761 86.3909L358.24 106.029L361.497 109.305L381.018 89.6672Z" fill="#FFA912"/>
<path d="M314.325 97.2267L307.285 80.1294L303.03 81.9026L310.07 98.9999L314.325 97.2267Z" fill="#FFA912"/>
<path d="M343.555 180.306L350.595 197.403L354.851 195.63L347.811 178.533L343.555 180.306Z" fill="#FFA912"/>
<path d="M289.406 119.788L272.41 112.706L270.647 116.987L287.644 124.069L289.406 119.788Z" fill="#FFA912"/>
<path d="M368.453 157.719L385.472 164.811L387.214 160.545L370.222 153.453L368.453 157.719Z" fill="#FFA912"/>
<path d="M354.837 81.8973L350.582 80.1236L343.54 97.219L347.795 98.9927L354.837 81.8973Z" fill="#FFA912"/>
<path d="M303.026 195.628L307.281 197.402L314.323 180.307L310.068 178.533L303.026 195.628Z" fill="#FFA912"/>
<path d="M370.203 124.072L387.225 116.979L385.462 112.698L368.44 119.791L370.203 124.072Z" fill="#FFA912"/>
<path d="M287.652 153.453L270.66 160.545L272.43 164.811L289.421 157.719L287.652 153.453Z" fill="#FFA912"/>
<g opacity="0.2">
<path d="M55.0283 405.702V389.487H47.449V383.571H19.2976V389.487H-54.1127V385.324H-82.0476V389.487H-101.104V398.909H-114.097V407.454H-110.632V402.196H-97.8557V392.774H-78.7993V388.61H-57.3609V392.774H22.7623V386.858H44.2008V392.774H51.5634V405.702H55.0283Z" fill="black"/>
<path d="M-42.8523 293.953H13.8836V318.713H17.3484V290.666H-46.1006V329.23H-42.8523V293.953Z" fill="black"/>
<path d="M22.7623 293.953H29.2588V281.901H43.551V293.953H47.6655V315.645H50.9138V290.666H46.7993V278.614H25.7941V290.666H19.2976V304.251H22.7623V293.953Z" fill="black"/>
<path d="M49.1812 319.151H45.7163V315.645H41.8185V309.072H21.0298V312.358H38.3537V318.932H42.4681V322.438H45.933V327.915H53.2956V324.629H49.1812V319.151Z" fill="black"/>
<path d="M3.70603 330.545H-0.191895V386.858H3.05635V334.051H7.17077V323.095H33.5898V327.915H39.4367V333.612H62.824V378.969H66.0722V330.326H42.6849V324.629H36.8381V319.808H3.70603V330.545Z" fill="black"/>
<path d="M62.824 326.382H66.0722V322.438H90.7589V375.025H94.0071V319.151H62.824V326.382Z" fill="black"/>
<path d="M119.993 322.876V329.011H102.885V319.808H96.822V323.095H99.4206V332.298H123.241V326.163H135.801V334.927H142.731V341.282H146.628V343.034H150.093V337.776H145.979V331.64H139.266V322.876H119.993Z" fill="black"/>
<path d="M90.7588 315.645H94.007V310.386H105.701V320.246H114.796V324.191H118.044V316.741H108.949V307.099H90.7588V315.645Z" fill="black"/>
<path d="M89.8928 275.328H94.0073V271.384H102.669V285.626H106.134V267.878H90.759V272.041H86.6445V300.745H89.8928V275.328Z" fill="black"/>
<path d="M102.669 289.132V293.733H95.0898V302.936H98.3381V297.02H106.134V292.638H107V297.02H110.681V310.605H113.93V293.733H110.248V289.132H102.669Z" fill="black"/>
<path d="M110.681 286.722H114.796V293.953H120.859V307.757H123.891V318.713H127.355V304.251H124.324V290.666H118.044V283.435H113.929V278.614H108.949V281.901H110.681V286.722Z" fill="black"/>
<path d="M156.157 405.702V387.953H137.1V391.24H152.908V405.702H156.157Z" fill="black"/>
<path d="M80.1478 405.702V385.324H64.5562V394.527H57.8433V405.702H61.0915V398.033H67.8045V388.611H76.6831V405.702H80.1478Z" fill="black"/>
<path d="M118.91 405.702V391.897H85.5618V405.702H88.81V395.403H115.662V405.702H118.91Z" fill="black"/>
<path d="M102.236 380.065H85.5618V389.487H88.81V383.352H98.7712V388.611H108.949V385.324H102.236V380.065Z" fill="black"/>
<path d="M112.847 380.065V389.487H116.095V383.352H125.623V388.611H130.171V405.702H133.419V385.324H128.871V380.065H112.847Z" fill="black"/>
<path d="M57.8434 317.179H66.2888V315.426H57.8434L58.2765 311.482H66.2888V309.729H58.2765L58.7095 305.785H66.2888V304.032H58.7095L59.1427 300.088H66.2888V298.335H59.1427L59.5758 294.391H66.2888V292.638H59.5758L60.0089 288.256H66.2888V286.941H60.2254L60.442 282.778H66.2888V281.244H60.6585L60.875 276.861H66.2888V275.547H61.0917L61.3082 271.384H66.2888V270.069H61.5248L61.7413 265.467H66.2888V264.153H61.9578L62.1744 259.77H66.2888V258.675H62.3909L62.6075 254.073H66.2888V252.759H62.824L63.0405 247.938H66.2888V247.062H63.2572L63.4737 242.46H66.2888V241.365H63.6903L65.206 220.549H67.3715V287.379H70.8364V217.043H65.6391L68.2378 182.203L74.7342 238.516V315.645H77.3329V261.523L83.6127 316.521L87.0776 316.083L69.7536 163.579H66.0723L56.1111 292.638V293.733L53.9456 321.342L57.4103 321.561L57.8434 317.179Z" fill="black"/>
<path d="M39.4365 269.631L35.1055 275.109H43.9839L39.4365 269.631Z" fill="black"/>
<path d="M3.0563 297.897H-2.14087V301.402H3.0563V297.897Z" fill="black"/>
<path d="M2.40689 305.347H-2.79028V308.852H2.40689V305.347Z" fill="black"/>
<path d="M11.7182 305.347H6.521V308.852H11.7182V305.347Z" fill="black"/>
<path d="M2.40689 312.358H-2.79028V315.864H2.40689V312.358Z" fill="black"/>
<path d="M11.7182 312.358H6.521V315.864H11.7182V312.358Z" fill="black"/>
<path d="M27.5262 336.899H15.8325V340.405H27.5262V336.899Z" fill="black"/>
<path d="M27.5262 344.349H15.8325V347.855H27.5262V344.349Z" fill="black"/>
<path d="M42.9014 336.899H31.2078V340.405H42.9014V336.899Z" fill="black"/>
<path d="M42.9014 344.349H31.2078V347.855H42.9014V344.349Z" fill="black"/>
<path d="M58.493 336.899H46.7993V340.405H58.493V336.899Z" fill="black"/>
<path d="M58.493 344.349H46.7993V347.855H58.493V344.349Z" fill="black"/>
<path d="M27.5262 350.923H15.8325V354.428H27.5262V350.923Z" fill="black"/>
<path d="M42.9014 350.923H31.2078V354.428H42.9014V350.923Z" fill="black"/>
<path d="M58.493 350.923H46.7993V354.428H58.493V350.923Z" fill="black"/>
<path d="M27.3096 362.536H15.616V366.042H27.3096V362.536Z" fill="black"/>
<path d="M27.3096 369.767H15.616V373.272H27.3096V369.767Z" fill="black"/>
<path d="M42.9014 362.536H31.2078V366.042H42.9014V362.536Z" fill="black"/>
<path d="M42.9014 369.767H31.2078V373.272H42.9014V369.767Z" fill="black"/>
<path d="M58.2765 362.536H46.5828V366.042H58.2765V362.536Z" fill="black"/>
<path d="M58.2765 369.767H46.5828V373.272H58.2765V369.767Z" fill="black"/>
<path d="M27.3096 376.559H15.616V380.065H27.3096V376.559Z" fill="black"/>
<path d="M42.9014 376.559H31.2078V380.065H42.9014V376.559Z" fill="black"/>
<path d="M58.2765 376.559H46.5828V380.065H58.2765V376.559Z" fill="black"/>
<path d="M86.2113 328.792H76.0334V332.298H86.2113V328.792Z" fill="black"/>
<path d="M86.2113 334.708H76.0334V338.214H86.2113V334.708Z" fill="black"/>
<path d="M86.2113 340.624H76.0334V344.13H86.2113V340.624Z" fill="black"/>
<path d="M86.2113 353.771H76.0334V357.277H86.2113V353.771Z" fill="black"/>
<path d="M86.2113 359.687H76.0334V363.193H86.2113V359.687Z" fill="black"/>
<path d="M86.2113 365.822H76.0334V369.328H86.2113V365.822Z" fill="black"/>
<path d="M102.236 338.871H96.3889V342.377H102.236V338.871Z" fill="black"/>
<path d="M111.764 338.871H105.917V342.377H111.764V338.871Z" fill="black"/>
<path d="M121.076 338.871H115.229V342.377H121.076V338.871Z" fill="black"/>
<path d="M102.452 344.349H96.6055V347.855H102.452V344.349Z" fill="black"/>
<path d="M111.981 344.349H106.134V347.855H111.981V344.349Z" fill="black"/>
<path d="M121.292 344.349H115.445V347.855H121.292V344.349Z" fill="black"/>
<path d="M102.452 349.827H96.6055V353.333H102.452V349.827Z" fill="black"/>
<path d="M112.197 349.827H106.35V353.333H112.197V349.827Z" fill="black"/>
<path d="M121.509 349.827H115.662V353.333H121.509V349.827Z" fill="black"/>
<path d="M135.801 351.799H129.954V355.305H135.801V351.799Z" fill="black"/>
<path d="M136.018 357.277H130.171V360.783H136.018V357.277Z" fill="black"/>
<path d="M136.234 362.755H130.387V366.261H136.234V362.755Z" fill="black"/>
<path d="M142.947 395.184H137.1V398.69H142.947V395.184Z" fill="black"/>
<path d="M142.947 400.662H137.1V404.168H142.947V400.662Z" fill="black"/>
<path d="M102.452 361.221H96.6055V364.727H102.452V361.221Z" fill="black"/>
<path d="M111.981 361.221H106.134V364.727H111.981V361.221Z" fill="black"/>
<path d="M121.292 361.221H115.445V364.727H121.292V361.221Z" fill="black"/>
<path d="M102.452 367.137H96.6055V370.643H102.452V367.137Z" fill="black"/>
<path d="M111.981 367.137H106.134V370.643H111.981V367.137Z" fill="black"/>
<path d="M121.292 367.137H115.445V370.643H121.292V367.137Z" fill="black"/>
<path d="M475.783 366.699C437.671 352.237 390.246 323.971 378.986 271.384V263.715H374.655V268.316H354.083V263.715H349.752V274.013C344.988 282.997 340.44 291.323 335.892 299.211H335.676V299.43C329.613 309.948 323.766 319.589 317.919 328.354H317.702V328.573C305.142 347.417 293.449 361.878 282.405 371.958H282.188V372.177C276.558 377.216 271.144 381.161 265.947 384.009H263.565C258.584 382.256 253.82 379.189 249.273 374.806V374.368H248.84C233.898 359.468 221.987 329.887 213.975 287.16V278.833H208.561V282.339H189.289V278.833H183.875V299.211C178.028 322.657 160.271 350.923 149.227 367.795V346.321H123.241V375.244H126.489V349.608H145.979V368.233H149.01C148.577 368.89 148.144 369.767 147.711 370.424L146.845 371.739H130.82V381.599H134.069V375.025H145.979V383.352H157.456V405.702H160.704V386.638C164.602 384.228 168.933 381.161 173.48 376.997V414.247H160.921V414.466H-789.731H-802.291V375.683C-797.527 380.503 -792.33 384.666 -786.916 388.391V394.746H-794.712V405.702H-791.247V398.252H-783.451V389.925H-776.738V377.216H-753.134V373.711H-773.923L-775.872 370.643C-786.699 353.771 -806.622 323.314 -812.685 299.211V278.833H-815.501H-818.316V282.339H-837.589V278.833H-840.187H-843.002V287.16C-851.015 329.887 -862.925 359.468 -877.867 374.368H-878.3V374.806C-882.847 379.189 -887.611 382.256 -892.592 384.009H-894.974C-900.171 381.161 -905.585 377.216 -911.215 372.177C-922.043 362.097 -933.953 347.636 -946.296 328.792V328.573H-946.513C-952.36 319.808 -958.207 310.167 -964.27 299.649V299.43H-964.486C-969.034 291.542 -973.582 283.216 -978.346 274.232V263.934H-982.677V268.535H-1003.25V263.934H-1007.58V271.603C-1018.62 324.19 -1066.05 352.456 -1104.38 366.918V415.124H-1103.73V416H-819.615H-789.948H169.799V415.781H475.35V414.904H476V366.699H475.783ZM-802.291 332.955C-794.279 348.074 -784.967 362.536 -778.471 372.396L-777.604 373.711H-779.986V386.419H-783.668C-790.381 382.256 -796.661 376.997 -802.291 370.862V332.955ZM-1088.79 414.247H-1101.13V389.268C-1097.01 387.953 -1092.9 386.638 -1089 385.324V414.247H-1088.79ZM-1088.79 381.818C-1092.68 383.352 -1096.8 384.666 -1100.91 385.981V369.547C-1097.01 368.014 -1092.9 366.261 -1088.79 364.508V381.818ZM-1073.63 414.247H-1085.54V384.009C-1081.42 382.475 -1077.53 380.722 -1073.63 378.969V414.247ZM-1073.63 375.464C-1077.53 377.216 -1081.42 378.969 -1085.54 380.503V362.755C-1081.64 361.002 -1077.53 358.811 -1073.63 356.62V375.464ZM-1058.04 414.247H-1070.16V377.655C-1066.05 375.683 -1061.93 373.711 -1058.04 371.519V414.247ZM-1058.04 367.575C-1061.93 369.767 -1066.05 371.958 -1070.16 373.93V354.867C-1066.05 352.456 -1061.93 350.046 -1058.04 347.417V367.575ZM-1042.88 414.247H-1054.79V369.547C-1050.67 367.137 -1046.78 364.727 -1042.88 362.097V414.247ZM-1042.88 358.153C-1046.78 360.783 -1050.67 363.193 -1054.79 365.603V345.006C-1050.67 342.158 -1046.78 339.09 -1042.88 335.804V358.153ZM-1027.29 414.247H-1039.63V359.906C-1035.3 356.839 -1031.18 353.771 -1027.29 350.484V414.247ZM-1027.29 346.102C-1031.18 349.389 -1035.3 352.676 -1039.63 355.743V332.955C-1035.3 329.011 -1031.18 324.629 -1027.29 320.027V346.102ZM-1017.11 414.247H-1024.04V347.636C-1021.66 345.664 -1019.27 343.473 -1017.11 341.282V414.247ZM-1017.11 336.68C-1019.27 338.871 -1021.66 341.062 -1024.04 343.254V315.864C-1021.66 312.577 -1019.27 309.291 -1017.11 305.785V336.68ZM-1007.36 414.247H-1013.86V337.995C-1011.48 335.584 -1009.31 333.174 -1007.36 330.764V414.247ZM-1007.36 325.724C-1009.53 328.354 -1011.69 330.764 -1013.86 333.174V299.869C-1011.26 295.048 -1009.1 289.789 -1007.36 284.531V325.724ZM-1003.03 277.738C-999.134 285.845 -995.02 293.514 -991.122 300.745C-991.339 301.183 -991.555 301.402 -991.555 301.841H-1003.03V277.738ZM-1003.03 309.51H-995.886C-998.052 313.016 -1000.43 316.741 -1003.03 320.027V309.51ZM-982.46 414.247H-1003.03V376.121H-982.46V414.247ZM-982.46 368.452H-1003.03V342.815H-982.46V368.452ZM-982.46 335.146H-1003.03V325.724C-998.918 320.465 -995.236 315.207 -991.988 309.729H-986.141C-984.842 311.92 -983.759 314.111 -982.46 316.083V335.146ZM-982.46 301.841H-986.575C-986.791 301.402 -987.008 301.183 -987.224 300.745C-985.275 296.801 -983.759 292.857 -982.46 288.913V301.841ZM-982.46 276.861C-983.976 283.654 -986.358 290.447 -989.173 297.02C-992.638 290.447 -996.319 283.435 -999.784 276.204H-982.244V276.861H-982.46ZM-967.518 414.247H-978.129V323.095C-974.448 329.011 -970.983 334.489 -967.518 339.529V414.247ZM-967.518 333.393C-970.983 328.135 -974.664 322.657 -978.129 316.521V281.244C-974.448 288.036 -970.983 294.391 -967.518 300.526V333.393ZM-949.761 414.247H-964.27V344.13C-959.289 350.923 -954.525 356.839 -949.761 362.097V414.247ZM-949.761 356.839C-954.525 351.361 -959.506 345.226 -964.27 338.214V306.442C-959.289 314.988 -954.525 322.876 -949.761 330.107V356.839ZM-931.788 414.247H-946.296V365.603C-941.316 370.643 -936.552 375.025 -931.788 378.312V414.247ZM-931.788 373.93C-936.552 370.205 -941.316 365.822 -946.296 360.345V334.927C-941.316 342.158 -936.552 348.731 -931.788 354.648V373.93ZM-914.464 414.247H-928.539V380.503C-923.775 383.571 -919.011 385.981 -914.464 387.515V414.247ZM-914.464 383.79C-919.011 382.256 -923.775 379.627 -928.539 376.34V358.811C-923.775 364.508 -919.011 369.547 -914.464 373.93V383.79ZM-910.999 376.997C-906.884 380.503 -902.986 383.571 -898.872 385.762C-902.77 386.2 -906.884 385.981 -910.999 384.886V376.997ZM-895.84 414.247H-910.999V388.391C-908.184 389.049 -905.369 389.268 -902.77 389.268C-901.254 389.268 -899.522 389.268 -898.006 389.049C-897.356 389.049 -896.49 388.83 -895.84 388.611V414.247ZM-878.3 414.247H-892.592V389.049C-887.611 391.24 -882.847 392.335 -878.3 392.555V414.247ZM-878.3 389.268C-881.981 389.049 -885.663 388.172 -889.56 386.638C-885.663 384.886 -881.765 382.694 -878.3 379.408V389.268ZM-837.372 288.036H-818.099V296.582C-819.832 303.374 -821.347 309.729 -823.296 315.645H-832.175C-834.124 309.51 -835.856 302.717 -837.372 295.925V288.036ZM-827.194 338.433C-825.462 342.158 -823.729 345.664 -821.78 349.17H-831.525C-830.009 345.664 -828.71 342.158 -827.194 338.433ZM-827.627 329.23C-828.71 326.601 -829.576 323.971 -830.442 321.342H-825.029C-825.895 323.971 -826.761 326.601 -827.627 329.23ZM-825.678 333.832C-824.379 329.887 -822.863 325.724 -821.564 321.342H-818.316V348.951C-820.914 344.349 -823.296 339.309 -825.678 333.832ZM-819.832 315.864C-819.182 313.892 -818.749 311.92 -818.099 309.948V315.864H-819.832ZM-837.372 309.729C-836.722 311.701 -836.289 313.673 -835.64 315.645H-837.372V309.729ZM-837.372 321.342H-833.907C-832.391 325.724 -830.876 329.887 -829.143 334.051C-831.092 339.529 -833.041 344.568 -835.207 349.17H-837.372V321.342ZM-837.372 361.221C-836.289 359.03 -834.99 356.839 -833.907 354.428H-818.532C-818.316 354.648 -818.099 355.086 -818.099 355.305V382.256H-837.372V361.221ZM-856.428 346.54C-851.231 334.489 -846.684 320.246 -843.002 303.374V363.85C-847.333 370.862 -851.881 376.559 -856.428 380.722V346.54ZM-859.677 414.247H-874.835V392.555C-874.185 392.555 -873.536 392.555 -872.886 392.335C-868.339 391.678 -863.791 390.144 -859.677 387.515V414.247ZM-859.677 383.352C-864.008 386.419 -868.555 388.391 -873.319 389.049C-873.752 389.049 -874.402 389.049 -874.835 389.268V376.34C-869.421 370.643 -864.224 363.193 -859.677 353.771V383.352ZM-805.756 414.247H-819.615H-856.428V385.105C-851.664 381.38 -847.117 376.559 -843.002 370.205V413.371H-837.589V387.734H-818.316V413.371H-812.902V363.631C-810.736 366.699 -808.354 369.547 -805.972 372.177V414.247H-805.756ZM-805.756 327.258V367.137C-808.138 364.289 -810.52 361.002 -812.685 357.715V310.386C-810.736 315.864 -808.138 321.561 -805.323 327.258H-805.756ZM174.347 372.177C170.016 376.559 165.685 380.065 161.57 382.694V380.065H150.093V373.93L151.176 372.177C157.456 362.536 166.551 348.512 174.347 333.393V372.177ZM184.524 414.247H177.595V373.711C179.977 371.3 182.359 368.452 184.524 365.384V414.247ZM184.524 359.687C182.142 363.193 179.76 366.042 177.595 368.89V327.039C180.194 321.561 182.576 316.083 184.524 310.605V359.687ZM189.938 309.948C190.371 311.92 191.021 313.892 191.671 315.864H189.938V309.948ZM189.938 321.123H193.186C194.702 325.724 196.002 330.326 197.518 334.489C195.352 339.748 193.186 344.568 190.804 348.951H189.938V321.123ZM196.868 321.123H202.715C201.848 324.19 200.766 327.039 199.683 329.668C198.6 327.039 197.734 324.19 196.868 321.123ZM203.364 348.951H194.702C196.218 345.883 197.734 342.596 199.466 339.09C200.766 342.596 202.065 345.883 203.364 348.951ZM209.211 414.247H189.938V387.953H209.211V414.247ZM209.211 382.256H189.938V357.277C190.588 356.4 191.021 355.524 191.671 354.428H205.746C206.829 356.839 207.912 359.03 209.211 361.221V382.256ZM209.211 348.951H207.046C205.097 344.568 203.148 339.748 201.199 334.489C202.931 330.326 204.447 325.943 205.963 321.123H209.211V348.951ZM209.211 315.645H207.695C208.128 313.892 208.778 311.92 209.211 309.948V315.645ZM209.211 296.144C207.695 303.155 205.963 309.729 204.23 315.645H195.135C193.403 309.729 191.671 303.155 189.938 296.582V288.036H209.211V296.144ZM228.268 414.247H214.841V370.205C219.172 376.559 223.72 381.38 228.268 385.105V414.247ZM228.268 380.722C223.503 376.559 218.956 371.081 214.841 363.85V303.374C218.739 320.027 223.287 334.489 228.268 346.54V380.722ZM246.891 414.247H231.732V387.515C236.063 390.144 240.394 391.678 244.942 392.335C245.591 392.335 246.241 392.555 246.891 392.555V414.247ZM246.891 389.049C246.458 389.049 245.808 389.049 245.375 388.83C240.611 388.172 236.063 386.419 231.732 383.133V353.552C236.28 362.974 241.477 370.424 246.891 376.121V389.049ZM250.139 379.408C253.82 382.475 257.502 384.886 261.4 386.638C257.502 388.172 253.82 389.049 250.139 389.268V379.408ZM264.431 414.247H250.139V392.555C254.687 392.335 259.45 391.24 264.431 389.049V414.247ZM282.838 414.247H267.679V388.611C268.329 388.83 269.195 388.83 269.845 389.049C271.361 389.268 272.877 389.268 274.609 389.268C277.424 389.268 280.023 388.83 282.838 388.391V414.247ZM282.838 384.666C278.723 385.762 274.609 385.981 270.711 385.543C274.609 383.133 278.723 380.284 282.838 376.778V384.666ZM300.378 414.247H286.303V387.515C290.85 385.981 295.614 383.79 300.378 380.503V414.247ZM300.378 376.34C295.614 379.627 290.85 382.256 286.303 383.79V373.93C290.85 369.547 295.614 364.508 300.378 358.811V376.34ZM318.136 414.247H303.627V378.093C308.391 374.587 313.155 370.424 318.136 365.384V414.247ZM318.136 360.345C313.155 365.603 308.391 370.205 303.627 373.93V354.648C308.391 348.731 313.155 342.158 318.136 334.927V360.345ZM336.109 414.247H321.6V361.878C326.364 356.62 331.345 350.703 336.109 343.911V414.247ZM336.109 337.995C331.128 345.006 326.364 351.142 321.6 356.62V329.887C326.364 322.657 331.128 314.768 336.109 306.223V337.995ZM350.185 414.247H339.574V339.309C343.039 334.27 346.72 328.792 350.185 322.876V414.247ZM350.185 316.521C346.503 322.438 343.039 328.135 339.574 333.393V300.526C343.039 294.391 346.72 287.817 350.185 281.244V316.521ZM354.299 276.204H371.84C368.158 283.435 364.693 290.447 361.229 297.02C358.197 290.447 356.032 283.654 354.516 276.861V276.204H354.299ZM354.299 288.913C355.598 292.857 357.331 296.801 359.063 300.745C358.847 301.183 358.63 301.402 358.414 301.841H354.299V288.913ZM374.871 414.247H354.299V376.121H374.871V414.247ZM374.871 368.233H354.299V342.815H374.871V368.233ZM374.871 334.927H354.299V315.864C355.598 313.673 356.681 311.701 357.981 309.51H363.827C367.076 314.988 370.757 320.466 374.871 325.505V334.927ZM374.871 320.027C372.273 316.521 369.891 313.016 367.725 309.51H374.871V320.027ZM374.871 301.622H363.394C363.178 301.183 362.961 300.964 362.961 300.526C366.859 293.295 370.973 285.626 374.871 277.519V301.622ZM385.699 414.247H379.202V330.764C381.368 333.174 383.533 335.584 385.699 337.995V414.247ZM385.699 332.955C383.317 330.545 381.151 327.915 379.202 325.505V284.311C380.935 289.789 383.317 294.829 385.699 299.649V332.955ZM395.877 414.247H388.947V341.062C391.113 343.254 393.495 345.226 395.877 347.417V414.247ZM395.877 343.034C393.495 340.843 391.113 338.652 388.947 336.461V305.566C391.113 309.071 393.278 312.358 395.877 315.645V343.034ZM411.468 414.247H399.125V350.265C403.023 353.552 407.137 356.62 411.468 359.687V414.247ZM411.468 355.743C407.137 352.676 403.023 349.389 399.125 346.102V319.808C403.023 324.41 407.137 328.792 411.468 332.736V355.743ZM426.627 414.247H414.716V362.097C418.614 364.727 422.512 367.137 426.627 369.547V414.247ZM426.627 365.603C422.512 363.193 418.614 360.783 414.716 358.153V335.804C418.614 339.09 422.512 342.158 426.627 345.006V365.603ZM442.002 414.247H429.875V371.3C433.773 373.492 437.887 375.464 442.002 377.436V414.247ZM442.002 373.711C437.887 371.739 433.773 369.547 429.875 367.356V347.198C433.773 349.827 437.887 352.456 442.002 354.648V373.711ZM457.377 414.247H445.466V378.969C449.364 380.722 453.479 382.475 457.377 384.009V414.247ZM457.377 380.284C453.262 378.75 449.364 376.997 445.466 375.244V356.4C449.364 358.592 453.479 360.564 457.377 362.536V380.284ZM472.968 414.247H460.841V385.324C464.739 386.858 468.854 388.172 472.968 389.268V414.247ZM472.968 385.762C468.854 384.447 464.739 383.133 460.841 381.599V364.07C464.956 365.822 469.07 367.575 472.968 369.109V385.762Z" fill="black"/>
</g>
</svg>
