<svg width="1330" height="340" viewBox="0 0 1330 340" fill="none" xmlns="http://www.w3.org/2000/svg">
<g opacity="0.7">
<path opacity="0.7" d="M102.788 162.932C105.366 162.932 108.129 162.932 110.707 162.932C112.549 162.932 114.39 162.932 116.232 162.932C116.969 162.932 117.337 163.296 117.337 163.842C117.337 168.754 114.022 172.758 109.234 173.667C108.681 173.849 107.945 173.849 107.208 173.849C98.5524 173.849 90.0809 173.849 81.4253 173.849C76.8213 173.849 72.9538 170.938 71.6647 166.571C71.4806 165.661 71.2964 164.569 71.2964 163.66C71.2964 163.114 71.6647 162.75 72.2172 162.75C73.138 162.932 73.5063 162.568 74.0588 161.84C77.3737 156.745 80.6887 151.832 84.3719 147.101C86.0294 145.1 87.6868 142.916 89.5285 141.278C90.0809 140.733 90.6334 140.369 91.1859 140.005C91.3701 139.823 91.7384 139.823 92.1067 139.823C92.8434 139.823 93.2117 140.369 93.0275 141.096C91.7384 143.826 91.3701 146.555 91.3701 149.467C91.5542 153.106 92.4751 156.563 93.7642 159.838C93.7642 159.838 93.7642 159.838 93.9483 160.02C93.9483 159.838 93.9483 159.656 93.9483 159.474C93.9483 151.468 93.9483 143.28 93.9483 135.274C93.9483 135.092 93.9483 134.91 93.9483 134.728C93.9483 134.364 94.3167 134 94.685 134C95.0533 134 95.4217 134.182 95.4217 134.728C95.4217 135.092 95.4217 135.456 95.4217 135.82C95.4217 136.184 95.4216 136.184 95.79 136.184C100.21 137.275 104.261 139.277 107.761 142.188C109.602 143.826 110.891 145.645 111.628 148.011C112.365 150.558 111.996 152.924 111.075 155.107C109.602 158.383 107.208 160.748 103.893 162.204C103.709 162.568 103.341 162.75 102.788 162.932ZM72.9539 164.569C72.9539 164.933 72.9538 165.115 73.138 165.479C73.8747 169.664 77.1896 172.394 81.4253 172.394C90.0809 172.394 98.7366 172.394 107.392 172.394C111.26 172.394 114.39 170.028 115.311 166.571C115.495 165.843 115.495 165.297 115.68 164.569C101.315 164.569 87.3185 164.569 72.9539 164.569ZM95.9741 162.386C98.5524 162.204 101.131 161.84 103.525 160.748C106.103 159.656 108.313 157.837 109.418 155.289C110.523 153.106 111.075 150.74 110.155 148.193C109.418 146.009 108.129 144.372 106.471 142.916C103.893 140.733 101.131 139.277 97.9999 138.367C97.8158 138.185 97.4474 138.185 97.0791 138.003C99.8415 141.824 101.315 145.827 100.947 150.376C100.762 155.107 99.1049 158.929 95.9741 162.386ZM75.348 162.932C81.4253 162.932 87.5027 162.932 93.58 162.932C93.58 162.75 93.58 162.75 93.3959 162.568C91.9226 159.474 90.8176 156.199 90.2651 152.742C89.8968 149.831 89.8968 147.101 90.4493 144.19C90.6334 143.462 90.8176 142.916 91.0018 142.188C90.8176 142.37 90.6334 142.37 90.6334 142.552C89.3443 144.008 87.871 145.464 86.5819 147.101C82.5303 152.014 79.0312 157.473 75.5321 162.75C75.5321 162.75 75.5321 162.75 75.348 162.932ZM95.79 139.277C95.79 146.191 95.79 153.106 95.79 160.02C98.3682 156.381 99.6574 152.56 99.2891 148.011C99.1049 144.736 97.8158 142.006 95.79 139.277Z" fill="#B1B1B1"/>
<path opacity="0.7" d="M112.917 181.856C112.181 181.856 111.444 181.674 110.523 181.31C110.155 181.128 109.971 181.128 109.602 180.946C108.497 180.582 107.577 180.582 106.472 180.946C105.735 181.31 104.814 181.492 104.078 181.674C102.973 181.856 101.868 181.674 100.763 181.31C100.394 181.128 99.8418 180.946 99.4734 180.764C98.5526 180.4 97.6318 180.4 96.711 180.946C95.9744 181.31 95.4219 181.492 94.6852 181.674C93.3961 182.038 91.9228 181.856 90.8178 181.31C90.4495 181.128 90.0812 180.946 89.7128 180.946C88.792 180.582 87.8712 180.582 86.9504 181.128C86.0296 181.492 85.293 181.856 84.3721 182.038C83.2672 182.22 82.1622 182.038 81.0572 181.492C80.6889 181.31 80.3206 181.128 79.9522 181.128C79.0314 180.764 77.9265 180.764 77.0056 181.31C76.0848 181.674 75.164 182.038 74.2432 182.22C73.1382 182.22 72.0333 182.038 71.1124 181.674C70.7441 181.492 70.56 180.946 70.7441 180.582C70.9283 180.218 71.2966 180.036 71.8491 180.218C73.3224 180.946 74.7957 180.764 76.0848 180.036C77.1898 178.762 79.0314 178.762 80.6889 179.49C81.0572 179.672 81.4255 179.854 81.7939 179.854C83.083 180.218 84.188 180.218 85.293 179.672C86.0296 179.308 86.5821 179.126 87.3187 178.944C88.6079 178.58 89.897 179.126 91.1861 179.672C92.2911 180.218 93.2119 180.4 94.3169 180.036C94.6852 179.854 95.0536 179.854 95.4219 179.672C97.0793 178.762 98.7368 178.762 100.394 179.49C100.763 179.672 101.131 179.672 101.499 179.854C102.788 180.218 103.893 180.218 105.182 179.672C105.919 179.308 106.472 179.126 107.208 178.944C108.497 178.58 109.602 178.944 110.892 179.49C112.365 180.218 114.022 180.218 115.496 179.49C116.048 179.126 116.785 178.944 117.521 178.762C118.074 178.58 118.442 178.944 118.626 179.49C118.626 180.036 118.258 180.218 117.89 180.4C117.337 180.582 116.785 180.764 116.416 180.946C115.127 181.492 114.206 181.856 112.917 181.856Z" fill="#B1B1B1"/>
<path opacity="0.7" d="M113.286 178.216C112.181 178.216 111.444 178.034 110.523 177.671C110.155 177.489 109.787 177.307 109.418 177.307C108.497 176.943 107.577 176.943 106.472 177.489C105.735 177.853 104.998 178.034 104.262 178.216C102.973 178.58 101.868 178.398 100.578 177.853C100.21 177.671 99.6576 177.489 99.2893 177.307C98.5526 176.943 97.4476 176.943 96.5268 177.489C95.7902 177.853 95.2377 178.034 94.501 178.216C93.2119 178.58 91.9228 178.398 90.6336 177.853C90.4495 177.671 90.0812 177.671 89.897 177.489C88.792 176.943 87.687 176.943 86.3979 177.489C85.2929 178.034 84.0038 178.398 82.7147 178.216C81.978 178.034 81.2414 177.853 80.6889 177.671C80.3205 177.671 80.1364 177.489 79.7681 177.307C78.6631 176.761 77.5581 176.943 76.4531 177.489C75.3482 178.034 74.059 178.398 72.7699 178.216C72.0332 178.034 71.2966 177.853 70.5599 177.671C70.0075 177.489 69.8233 176.943 70.1916 176.579C70.3758 176.215 70.7441 176.033 71.2966 176.215C72.7699 176.943 74.2432 176.761 75.5323 176.033C77.1898 175.123 79.0314 175.123 80.6889 176.033C81.6097 176.397 82.7147 176.761 83.8196 176.579C84.3721 176.397 85.1088 176.397 85.6612 176.033C87.5029 175.123 89.3445 175.123 91.002 176.033C92.4753 176.761 93.9486 176.761 95.2377 176.033C96.1585 175.669 97.2635 175.123 98.1843 175.305C99.1051 175.487 99.8417 175.669 100.763 176.033C101.683 176.397 102.604 176.761 103.709 176.579C104.262 176.397 104.814 176.397 105.367 176.033C107.208 175.123 109.05 175.123 110.891 176.033C112.181 176.761 113.654 176.761 114.943 176.033C115.68 175.669 116.416 175.487 117.153 175.305C117.337 175.305 117.337 175.305 117.521 175.305C117.89 175.305 118.258 175.669 118.258 176.033C118.258 176.397 118.074 176.761 117.521 176.943C116.785 177.125 116.232 177.307 115.496 177.489C114.943 178.034 114.022 178.398 113.286 178.216Z" fill="#B1B1B1"/>
</g>
<g opacity="0.7">
<path opacity="0.7" d="M493.788 54.9317C496.366 54.9317 499.129 54.9317 501.707 54.9317C503.549 54.9317 505.39 54.9317 507.232 54.9317C507.969 54.9317 508.337 55.2957 508.337 55.8415C508.337 60.7545 505.022 64.7576 500.234 65.6674C499.681 65.8494 498.945 65.8494 498.208 65.8494C489.552 65.8494 481.081 65.8494 472.425 65.8494C467.821 65.8494 463.954 62.938 462.665 58.5709C462.481 57.6611 462.296 56.5694 462.296 55.6596C462.296 55.1137 462.665 54.7498 463.217 54.7498C464.138 54.9317 464.506 54.5678 465.059 53.84C468.374 48.7451 471.689 43.8321 475.372 39.1012C477.029 37.0996 478.687 34.9161 480.528 33.2784C481.081 32.7325 481.633 32.3686 482.186 32.0047C482.37 31.8227 482.738 31.8227 483.107 31.8227C483.843 31.8227 484.212 32.3686 484.028 33.0965C482.738 35.8259 482.37 38.5553 482.37 41.4666C482.554 45.1059 483.475 48.5631 484.764 51.8384C484.764 51.8384 484.764 51.8384 484.948 52.0204C484.948 51.8384 484.948 51.6564 484.948 51.4745C484.948 43.4682 484.948 35.28 484.948 27.2737C484.948 27.0918 484.948 26.9098 484.948 26.7278C484.948 26.3639 485.317 26 485.685 26C486.053 26 486.422 26.182 486.422 26.7278C486.422 27.0918 486.422 27.4557 486.422 27.8196C486.422 28.1835 486.422 28.1835 486.79 28.1835C491.21 29.2753 495.261 31.2769 498.761 34.1882C500.602 35.8259 501.891 37.6455 502.628 40.011C503.365 42.5584 502.996 44.9239 502.075 47.1074C500.602 50.3827 498.208 52.7482 494.893 54.2039C494.709 54.5678 494.341 54.7498 493.788 54.9317ZM463.954 56.5694C463.954 56.9333 463.954 57.1152 464.138 57.4792C464.875 61.6643 468.19 64.3937 472.425 64.3937C481.081 64.3937 489.737 64.3937 498.392 64.3937C502.26 64.3937 505.39 62.0282 506.311 58.5709C506.495 57.8431 506.495 57.2972 506.68 56.5694C492.315 56.5694 478.319 56.5694 463.954 56.5694ZM486.974 54.3858C489.552 54.2039 492.131 53.84 494.525 52.7482C497.103 51.6564 499.313 49.8368 500.418 47.2894C501.523 45.1059 502.075 42.7404 501.155 40.1929C500.418 38.0094 499.129 36.3718 497.471 34.9161C494.893 32.7325 492.131 31.2769 489 30.3671C488.816 30.1851 488.447 30.1851 488.079 30.0031C490.842 33.8243 492.315 37.8274 491.947 42.3764C491.762 47.1074 490.105 50.9286 486.974 54.3858ZM466.348 54.9317C472.425 54.9317 478.503 54.9317 484.58 54.9317C484.58 54.7498 484.58 54.7498 484.396 54.5678C482.923 51.4745 481.818 48.1992 481.265 44.7419C480.897 41.8306 480.897 39.1012 481.449 36.1898C481.633 35.4619 481.818 34.9161 482.002 34.1882C481.818 34.3702 481.633 34.3702 481.633 34.5521C480.344 36.0078 478.871 37.4635 477.582 39.1012C473.53 44.0141 470.031 49.4729 466.532 54.7498C466.532 54.7498 466.532 54.7498 466.348 54.9317ZM486.79 31.2769C486.79 38.1914 486.79 45.1059 486.79 52.0204C489.368 48.3811 490.657 44.56 490.289 40.011C490.105 36.7357 488.816 34.0063 486.79 31.2769Z" fill="#B1B1B1"/>
<path opacity="0.7" d="M503.917 73.8557C503.181 73.8557 502.444 73.6737 501.523 73.3098C501.155 73.1278 500.971 73.1278 500.602 72.9458C499.497 72.5819 498.577 72.5819 497.472 72.9458C496.735 73.3098 495.814 73.4917 495.078 73.6737C493.973 73.8557 492.868 73.6737 491.763 73.3098C491.394 73.1278 490.842 72.9458 490.473 72.7639C489.553 72.4 488.632 72.4 487.711 72.9458C486.974 73.3098 486.422 73.4917 485.685 73.6737C484.396 74.0376 482.923 73.8557 481.818 73.3098C481.449 73.1278 481.081 72.9458 480.713 72.9458C479.792 72.5819 478.871 72.5819 477.95 73.1278C477.03 73.4917 476.293 73.8557 475.372 74.0376C474.267 74.2196 473.162 74.0376 472.057 73.4917C471.689 73.3098 471.321 73.1278 470.952 73.1278C470.031 72.7639 468.926 72.7639 468.006 73.3098C467.085 73.6737 466.164 74.0376 465.243 74.2196C464.138 74.2196 463.033 74.0376 462.112 73.6737C461.744 73.4917 461.56 72.9458 461.744 72.5819C461.928 72.218 462.297 72.036 462.849 72.218C464.322 72.9459 465.796 72.7639 467.085 72.036C468.19 70.7623 470.031 70.7623 471.689 71.4902C472.057 71.6721 472.426 71.8541 472.794 71.8541C474.083 72.218 475.188 72.218 476.293 71.6721C477.03 71.3082 477.582 71.1262 478.319 70.9443C479.608 70.5803 480.897 71.1262 482.186 71.6721C483.291 72.218 484.212 72.4 485.317 72.036C485.685 71.8541 486.054 71.8541 486.422 71.6721C488.079 70.7623 489.737 70.7623 491.394 71.4902C491.763 71.6721 492.131 71.6721 492.499 71.8541C493.788 72.218 494.893 72.218 496.182 71.6721C496.919 71.3082 497.472 71.1262 498.208 70.9443C499.497 70.5803 500.602 70.9443 501.892 71.4902C503.365 72.218 505.022 72.218 506.496 71.4902C507.048 71.1262 507.785 70.9443 508.521 70.7623C509.074 70.5803 509.442 70.9443 509.626 71.4902C509.626 72.036 509.258 72.218 508.89 72.4C508.337 72.5819 507.785 72.7639 507.416 72.9458C506.127 73.4917 505.206 73.8557 503.917 73.8557Z" fill="#B1B1B1"/>
<path opacity="0.7" d="M504.286 70.2164C503.181 70.2164 502.444 70.0345 501.523 69.6705C501.155 69.4886 500.787 69.3066 500.418 69.3066C499.497 68.9427 498.577 68.9427 497.472 69.4886C496.735 69.8525 495.998 70.0345 495.262 70.2164C493.973 70.5803 492.868 70.3984 491.578 69.8525C491.21 69.6705 490.658 69.4886 490.289 69.3066C489.553 68.9427 488.448 68.9427 487.527 69.4886C486.79 69.8525 486.238 70.0345 485.501 70.2164C484.212 70.5803 482.923 70.3984 481.634 69.8525C481.449 69.6705 481.081 69.6706 480.897 69.4886C479.792 68.9427 478.687 68.9427 477.398 69.4886C476.293 70.0345 475.004 70.3984 473.715 70.2164C472.978 70.0345 472.241 69.8525 471.689 69.6705C471.321 69.6705 471.136 69.4886 470.768 69.3066C469.663 68.7607 468.558 68.9427 467.453 69.4886C466.348 70.0345 465.059 70.3984 463.77 70.2164C463.033 70.0345 462.297 69.8525 461.56 69.6705C461.007 69.4886 460.823 68.9427 461.192 68.5788C461.376 68.2149 461.744 68.0329 462.297 68.2149C463.77 68.9427 465.243 68.7607 466.532 68.0329C468.19 67.1231 470.031 67.1231 471.689 68.0329C472.61 68.3968 473.715 68.7608 474.82 68.5788C475.372 68.3968 476.109 68.3968 476.661 68.0329C478.503 67.1231 480.344 67.1231 482.002 68.0329C483.475 68.7607 484.949 68.7607 486.238 68.0329C487.158 67.669 488.263 67.1231 489.184 67.3051C490.105 67.487 490.842 67.669 491.763 68.0329C492.683 68.3968 493.604 68.7608 494.709 68.5788C495.262 68.3968 495.814 68.3968 496.367 68.0329C498.208 67.1231 500.05 67.1231 501.891 68.0329C503.181 68.7607 504.654 68.7607 505.943 68.0329C506.68 67.669 507.416 67.487 508.153 67.3051C508.337 67.3051 508.337 67.3051 508.521 67.3051C508.89 67.3051 509.258 67.669 509.258 68.0329C509.258 68.3968 509.074 68.7607 508.521 68.9427C507.785 69.1247 507.232 69.3066 506.496 69.4886C505.943 70.0345 505.022 70.3984 504.286 70.2164Z" fill="#B1B1B1"/>
</g>
<path opacity="0.7" d="M1294.74 309.723C1293.42 311.023 1292.27 312.16 1290.95 313.46C1290.13 314.273 1289.47 314.273 1288.65 313.46C1287.49 312.323 1286.18 311.023 1284.86 309.723C1283.87 310.698 1282.88 311.835 1281.9 312.81C1280.25 314.598 1279.92 314.598 1278.28 312.81C1277.29 311.835 1276.3 310.86 1275.31 309.885C1275.31 309.885 1275.15 309.885 1275.15 309.723C1274 310.86 1272.84 311.998 1271.69 313.135C1271.53 313.298 1271.36 313.46 1271.03 313.623C1270.54 313.948 1269.88 313.948 1269.39 313.46C1268.89 312.973 1268.89 312.323 1269.39 311.835C1271.03 310.21 1272.68 308.585 1274.32 306.961C1274.82 306.473 1275.48 306.636 1276.14 307.123C1277.45 308.423 1278.6 309.56 1279.92 310.86C1280.42 310.21 1281.07 309.56 1281.57 308.91C1281.24 308.91 1280.91 308.91 1280.42 308.91C1279.26 308.91 1278.93 308.748 1278.6 307.61C1275.64 298.673 1272.51 289.573 1269.55 280.636C1269.39 280.149 1269.22 279.661 1269.06 279.174C1268.89 278.361 1269.06 277.874 1269.88 277.549C1271.03 277.224 1272.02 276.736 1273.17 276.411C1273.67 276.249 1273.83 276.086 1273.83 275.436C1273.83 272.674 1273.83 269.912 1273.83 267.149C1273.83 265.849 1274 265.687 1275.15 265.362C1277.62 264.549 1280.25 263.899 1282.72 263.087C1283.38 262.924 1283.54 262.599 1283.54 262.112C1283.54 258.212 1283.54 254.312 1283.54 250.412C1283.54 248.95 1283.87 248.625 1285.35 248.625C1287.66 248.625 1289.96 248.625 1292.43 248.625C1292.76 248.625 1293.09 248.625 1293.42 248.625C1293.42 247.487 1293.42 246.35 1293.42 245.212C1293.42 244.4 1293.42 243.587 1293.42 242.775C1293.42 241.8 1293.91 241.475 1294.9 241.312C1296.05 241.312 1297.21 241.312 1298.36 241.312C1298.36 240.987 1298.36 240.662 1298.36 240.337C1298.36 238.875 1298.36 237.412 1298.36 235.787C1298.36 234.487 1298.69 234 1299.51 234C1300.33 234 1300.83 234.487 1300.83 235.787C1300.83 237.412 1300.83 239.037 1300.83 240.825C1300.83 240.825 1300.83 240.987 1300.83 241.15C1301.81 241.15 1302.8 241.15 1303.79 241.15C1305.27 241.15 1305.6 241.475 1305.6 242.937C1305.6 244.725 1305.6 246.512 1305.6 248.3C1306.26 248.3 1306.75 248.3 1307.25 248.3C1309.39 248.3 1311.53 248.3 1313.67 248.3C1314.98 248.3 1315.31 248.625 1315.31 249.925C1315.31 253.824 1315.31 257.887 1315.31 261.787C1315.31 262.437 1315.48 262.762 1316.14 262.924C1318.6 263.574 1321.24 264.387 1323.71 265.199C1324.86 265.524 1325.02 265.849 1325.02 266.987C1325.02 269.749 1325.02 272.511 1325.02 275.274C1325.02 275.761 1325.19 276.086 1325.68 276.249C1326.67 276.574 1327.66 276.899 1328.48 277.224C1329.8 277.711 1329.96 278.036 1329.63 279.336C1327.66 285.186 1325.68 291.198 1323.71 297.048C1322.56 300.461 1321.4 303.873 1320.25 307.285C1319.76 308.585 1319.59 308.748 1318.28 308.748C1317.95 308.748 1317.62 308.748 1317.12 308.748C1317.29 308.91 1317.45 309.073 1317.45 309.073C1317.95 309.56 1318.44 310.048 1318.93 310.698C1320.09 309.56 1321.24 308.423 1322.39 307.285C1323.71 305.986 1324.04 305.986 1325.19 307.285C1326.51 308.585 1327.82 309.885 1329.3 311.348C1329.96 311.998 1330.13 312.81 1329.63 313.298C1329.14 313.785 1328.32 313.785 1327.66 313.135C1326.51 311.998 1325.19 310.698 1323.71 309.235C1323.21 309.885 1322.88 310.373 1322.39 310.86C1321.73 311.673 1320.91 312.323 1320.09 313.135C1319.26 313.948 1318.6 313.948 1317.78 313.135C1316.63 311.998 1315.31 310.698 1314.16 309.398C1313.17 310.373 1312.18 311.51 1311.03 312.485C1309.22 314.273 1309.22 314.273 1307.41 312.485C1306.42 311.51 1305.44 310.535 1304.45 309.723C1304.45 309.723 1304.28 309.723 1304.28 309.56C1303.3 310.535 1302.14 311.673 1301.16 312.648C1300.99 312.81 1300.66 313.135 1300.5 313.298C1299.84 313.948 1299.18 313.948 1298.52 313.298C1297.37 312.323 1296.05 311.023 1294.74 309.723ZM1322.72 275.761C1322.72 275.599 1322.88 275.436 1322.88 275.274C1322.88 272.999 1322.88 270.724 1322.88 268.287C1322.88 267.799 1322.56 267.637 1322.23 267.637C1314.82 265.524 1307.58 263.249 1300.17 261.137C1299.84 260.974 1299.51 260.974 1299.18 261.137C1291.77 263.249 1284.53 265.524 1277.12 267.637C1276.63 267.799 1276.46 267.962 1276.46 268.612C1276.46 270.724 1276.46 272.836 1276.46 275.111C1276.46 275.274 1276.46 275.599 1276.46 275.761C1276.79 275.599 1277.12 275.599 1277.29 275.436C1284.37 273.161 1291.44 270.724 1298.36 268.449C1299.18 268.124 1299.84 268.124 1300.66 268.449C1304.94 269.912 1309.39 271.374 1313.67 272.674C1316.79 273.811 1319.76 274.786 1322.72 275.761ZM1296.05 248.787C1298.52 248.787 1300.83 248.787 1303.3 248.787C1303.3 247.162 1303.3 245.7 1303.3 244.075C1300.83 244.075 1298.52 244.075 1296.05 244.075C1296.05 245.7 1296.05 247.162 1296.05 248.787ZM1289.63 310.86C1290.29 310.21 1290.79 309.723 1291.28 309.235C1290.29 309.235 1289.14 309.235 1287.99 309.235C1288.65 309.885 1289.14 310.535 1289.63 310.86ZM1301.32 309.235C1300.17 309.235 1299.02 309.235 1298.03 309.235C1298.69 309.885 1299.18 310.373 1299.67 310.86C1300.17 310.535 1300.66 309.885 1301.32 309.235Z" fill="#B1B1B1"/>
<path opacity="0.7" d="M816.973 24.5636C817.384 24.9853 817.743 25.3543 818.154 25.776C818.411 26.0395 818.616 26.0395 818.873 25.776C819.232 25.407 819.643 24.9853 820.054 24.5636C820.362 24.8799 820.67 25.2489 820.978 25.5651C821.491 26.145 821.594 26.145 822.107 25.5651C822.415 25.2489 822.723 24.9326 823.031 24.6163C823.031 24.6163 823.083 24.6163 823.083 24.5636C823.442 24.9326 823.801 25.3016 824.161 25.6706C824.212 25.7233 824.263 25.776 824.366 25.8287C824.52 25.9341 824.725 25.9341 824.879 25.776C825.033 25.6178 825.033 25.407 824.879 25.2489C824.366 24.7217 823.853 24.1946 823.339 23.6675C823.185 23.5094 822.98 23.5621 822.775 23.7202C822.364 24.1419 822.004 24.5109 821.594 24.9326C821.44 24.7217 821.234 24.5109 821.08 24.3C821.183 24.3 821.286 24.3 821.44 24.3C821.799 24.3 821.902 24.2473 822.004 23.8784C822.929 20.9792 823.904 18.0274 824.828 15.1282C824.879 14.9701 824.931 14.812 824.982 14.6538C825.033 14.3903 824.982 14.2321 824.725 14.1267C824.366 14.0213 824.058 13.8631 823.699 13.7577C823.545 13.705 823.493 13.6523 823.493 13.4415C823.493 12.5454 823.493 11.6493 823.493 10.7532C823.493 10.3315 823.442 10.2788 823.083 10.1733C822.313 9.90978 821.491 9.69893 820.721 9.43537C820.516 9.38266 820.464 9.27724 820.464 9.1191C820.464 7.85402 820.464 6.58895 820.464 5.32387C820.464 4.84946 820.362 4.74404 819.9 4.74404C819.181 4.74404 818.462 4.74404 817.692 4.74404C817.589 4.74404 817.487 4.74404 817.384 4.74404C817.384 4.37506 817.384 4.00608 817.384 3.6371C817.384 3.37354 817.384 3.10998 817.384 2.84642C817.384 2.53015 817.23 2.42473 816.922 2.37202C816.563 2.37202 816.203 2.37202 815.844 2.37202C815.844 2.2666 815.844 2.16117 815.844 2.05575C815.844 1.58134 815.844 1.10694 815.844 0.579823C815.844 0.15813 815.741 0 815.484 0C815.228 0 815.074 0.15813 815.074 0.579823C815.074 1.10694 815.074 1.63406 815.074 2.21389C815.074 2.21389 815.074 2.2666 815.074 2.31931C814.766 2.31931 814.458 2.31931 814.15 2.31931C813.688 2.31931 813.585 2.42473 813.585 2.89914C813.585 3.47897 813.585 4.05879 813.585 4.63862C813.38 4.63862 813.226 4.63862 813.072 4.63862C812.404 4.63862 811.737 4.63862 811.069 4.63862C810.659 4.63862 810.556 4.74404 810.556 5.16573C810.556 6.43081 810.556 7.7486 810.556 9.01368C810.556 9.22453 810.505 9.32995 810.299 9.38266C809.529 9.59351 808.708 9.85707 807.938 10.1206C807.578 10.2261 807.527 10.3315 807.527 10.7004C807.527 11.5965 807.527 12.4926 807.527 13.3887C807.527 13.5469 807.476 13.6523 807.322 13.705C807.014 13.8104 806.706 13.9159 806.449 14.0213C806.038 14.1794 805.987 14.2848 806.09 14.7065C806.706 16.6042 807.322 18.5545 807.938 20.4521C808.297 21.559 808.656 22.666 809.016 23.7729C809.17 24.1946 809.221 24.2473 809.632 24.2473C809.735 24.2473 809.837 24.2473 809.991 24.2473C809.94 24.3001 809.889 24.3528 809.889 24.3528C809.735 24.5109 809.581 24.669 809.427 24.8799C809.067 24.5109 808.708 24.1419 808.348 23.7729C807.938 23.3512 807.835 23.3512 807.476 23.7729C807.065 24.1946 806.654 24.6163 806.192 25.0907C805.987 25.3016 805.936 25.5651 806.09 25.7233C806.244 25.8814 806.5 25.8814 806.706 25.6706C807.065 25.3016 807.476 24.8799 807.938 24.4055C808.092 24.6163 808.194 24.7744 808.348 24.9326C808.554 25.1961 808.81 25.407 809.067 25.6706C809.324 25.9341 809.529 25.9341 809.786 25.6706C810.145 25.3016 810.556 24.8799 810.915 24.4582C811.223 24.7745 811.531 25.1434 811.891 25.4597C812.456 26.0395 812.456 26.0395 813.02 25.4597C813.328 25.1434 813.636 24.8272 813.944 24.5636C813.944 24.5636 813.996 24.5636 813.996 24.5109C814.304 24.8272 814.663 25.1961 814.971 25.5124C815.022 25.5651 815.125 25.6705 815.176 25.7233C815.382 25.9341 815.587 25.9341 815.793 25.7233C816.152 25.407 816.563 24.9853 816.973 24.5636ZM808.246 13.5469C808.246 13.4942 808.194 13.4415 808.194 13.3887C808.194 12.6508 808.194 11.9128 808.194 11.1221C808.194 10.964 808.297 10.9113 808.4 10.9113C810.71 10.2261 812.969 9.48809 815.279 8.80284C815.382 8.75012 815.484 8.75012 815.587 8.80284C817.897 9.48809 820.156 10.2261 822.467 10.9113C822.621 10.964 822.672 11.0167 822.672 11.2276C822.672 11.9128 822.672 12.5981 822.672 13.336C822.672 13.3887 822.672 13.4942 822.672 13.5469C822.569 13.4942 822.467 13.4942 822.415 13.4415C820.208 12.7035 818 11.9128 815.844 11.1749C815.587 11.0694 815.382 11.0694 815.125 11.1749C813.79 11.6493 812.404 12.1237 811.069 12.5454C810.094 12.9143 809.17 13.2306 808.246 13.5469ZM816.563 4.79675C815.793 4.79675 815.074 4.79675 814.304 4.79675C814.304 4.26964 814.304 3.79523 814.304 3.26812C815.074 3.26812 815.793 3.26812 816.563 3.26812C816.563 3.79523 816.563 4.26964 816.563 4.79675ZM818.565 24.9326C818.359 24.7217 818.205 24.5636 818.051 24.4055C818.359 24.4055 818.719 24.4055 819.078 24.4055C818.873 24.6163 818.719 24.8272 818.565 24.9326ZM814.92 24.4055C815.279 24.4055 815.638 24.4055 815.947 24.4055C815.741 24.6163 815.587 24.7744 815.433 24.9326C815.279 24.8272 815.125 24.6163 814.92 24.4055Z" fill="#B1B1B1"/>
<g opacity="0.7">
<path opacity="0.7" d="M10.6764 311.244C10.6764 310.903 10.6764 310.563 10.6764 310.223C10.6764 304.778 10.6764 299.334 10.6764 294.059C10.6764 292.358 11.193 291.847 12.915 291.847C13.6038 291.847 14.4648 291.847 15.3258 291.847C15.3258 291.337 15.3258 290.827 15.3258 290.316C15.3258 288.445 15.3258 286.573 15.3258 284.872C15.3258 283.51 15.8424 283 17.22 283C18.942 283 20.664 283 22.386 283C23.7636 283 24.2802 283.51 24.2802 284.872C24.2802 287.254 24.2802 289.465 24.2802 291.847C24.6246 291.847 24.969 291.847 25.3134 291.847C30.8239 291.847 36.3343 291.847 41.8447 291.847C43.2223 291.847 43.5667 292.018 43.9111 293.379C46.1497 299.163 48.3884 304.948 50.627 310.733C50.7992 311.244 50.9714 311.414 51.6602 311.414C54.7598 311.414 57.8594 311.414 60.959 311.414C61.3034 311.414 61.82 311.244 61.9922 311.073C63.542 309.882 65.264 308.691 66.8138 307.5C67.1582 307.16 67.8471 306.99 68.3637 306.99C75.2517 306.99 81.9675 306.99 88.8556 306.99C90.4054 306.99 91.0942 308.011 90.4054 309.372C87.6501 315.327 84.7227 321.452 81.9675 327.407C81.7953 327.747 81.7953 327.917 81.6231 328.088C83.0007 328.768 84.2061 329.449 85.5837 329.959C86.6169 330.299 87.8223 330.64 89.0278 330.64C90.061 330.81 90.7498 331.15 90.7498 332.171C90.7498 333.192 90.061 333.702 89.0278 333.702C86.9613 333.702 85.0671 333.192 83.3451 332.171C80.0733 330.299 76.8015 330.299 73.5297 332.171C69.3969 334.383 65.264 334.383 61.3034 332.171C58.0316 330.47 54.932 330.299 51.6602 332.171C47.5274 334.383 43.3945 334.383 39.4339 332.171C36.1621 330.299 33.0625 330.47 29.7907 332.171C25.8301 334.383 21.6972 334.383 17.7366 332.171C14.4648 330.299 11.193 330.299 7.92117 332.171C6.19916 333.192 4.30495 333.702 2.23854 333.702C1.03314 333.702 0.344333 333.022 0.516533 332.171C0.516533 331.32 1.20534 330.81 2.06634 330.81C2.92734 330.81 3.96055 330.64 4.82155 330.47C3.96055 327.237 3.27175 324.174 2.41074 321.282C1.72194 318.73 1.20534 316.178 0.516533 313.626C0.172132 312.264 0.688734 311.414 2.23854 311.414C4.82155 311.244 7.74897 311.244 10.6764 311.244ZM86.9613 309.712C86.7891 309.712 86.6169 309.712 86.4447 309.712C80.5899 309.712 74.9073 309.712 69.0525 309.712C68.7081 309.712 68.3637 309.882 68.1915 310.053C66.6416 311.244 65.0918 312.264 63.542 313.455C62.8532 313.966 62.1644 314.136 61.3034 314.136C42.3613 314.136 23.5914 314.136 4.64935 314.136C4.30495 314.136 3.96055 314.136 3.61615 314.136C4.82155 319.07 6.02696 323.834 7.23237 328.768C7.40457 328.598 7.57677 328.598 7.74897 328.598C11.5374 327.067 15.1536 327.237 18.5976 329.279C21.8694 331.15 24.969 331.15 28.2409 329.279C32.2015 327.067 36.3343 326.897 40.2949 329.279C43.5667 331.15 46.8386 331.15 50.1104 329.279C54.2432 327.067 58.2038 327.067 62.3366 329.279C65.6084 331.15 68.8803 331.15 72.1521 329.279C73.8741 328.258 75.5961 327.747 77.6625 327.747C78.1791 327.747 78.5235 327.577 78.6957 327.067C80.9343 322.133 83.3451 317.199 85.7559 312.264C86.1003 311.244 86.4447 310.563 86.9613 309.712ZM47.6996 311.073C47.5274 310.733 47.5274 310.563 47.5274 310.393C45.6331 305.459 43.5667 300.354 41.6725 295.42C41.5003 294.91 41.1559 294.74 40.6393 294.74C31.8571 294.74 23.247 294.74 14.4648 294.74C14.2926 294.74 13.9482 294.74 13.776 294.74C13.776 300.184 13.776 305.629 13.776 311.073C25.1413 311.073 36.3343 311.073 47.6996 311.073ZM21.1806 291.677C21.1806 289.636 21.1806 287.764 21.1806 285.892C20.1474 285.892 19.2864 285.892 18.2532 285.892C18.2532 286.233 18.2532 286.573 18.2532 286.743C18.2532 288.445 18.2532 289.976 18.2532 291.677C19.2864 291.677 20.3196 291.677 21.1806 291.677Z" fill="#B1B1B1"/>
<path opacity="0.7" d="M12.5707 333.532C14.8093 333.532 16.8757 334.043 18.7699 335.234C21.8695 336.935 24.9691 336.935 28.0687 335.234C32.2016 332.852 36.3344 332.852 40.4672 335.234C43.5668 336.935 46.6664 336.935 49.9382 335.234C54.2433 332.852 58.3761 332.852 62.5089 335.234C65.6085 336.935 68.7081 336.935 71.8077 335.234C76.1128 332.852 80.4178 332.852 84.7228 335.404C86.1004 336.084 87.478 336.595 89.0278 336.595C90.4054 336.595 91.2664 337.956 90.4054 338.807C90.061 339.147 89.5444 339.487 89.0278 339.487C86.9614 339.657 84.895 338.977 83.173 337.956C79.9012 336.084 76.6294 336.084 73.1853 337.786C69.2247 339.998 65.0919 339.998 61.1313 337.786C57.8595 335.914 54.7599 335.914 51.488 337.786C47.3552 339.998 43.2224 339.998 39.0896 337.616C35.99 335.914 32.8904 335.914 29.6185 337.616C25.4857 339.998 21.3529 339.998 17.2201 337.616C14.1205 335.914 10.8487 335.744 7.74904 337.616C5.85483 338.636 3.96062 339.317 1.72201 339.317C0.688804 339.317 0 338.807 0 337.956C0 337.105 0.516602 336.425 1.54981 336.425C3.44402 336.425 4.99382 335.914 6.54363 334.893C8.61004 334.043 10.5042 333.532 12.5707 333.532Z" fill="#B1B1B1"/>
<path opacity="0.7" d="M21.3532 297.802C23.9362 297.802 25.8304 299.844 25.8304 302.396C25.8304 304.778 23.764 306.82 21.3532 306.82C18.7702 306.82 16.876 304.778 16.876 302.226C16.876 299.674 18.7702 297.802 21.3532 297.802ZM21.3532 303.757C22.2142 303.757 22.903 303.077 22.7308 302.226C22.7308 301.375 22.042 300.865 21.181 300.865C20.32 300.865 19.6312 301.545 19.8034 302.396C19.8034 303.077 20.4922 303.757 21.3532 303.757Z" fill="#B1B1B1"/>
<path opacity="0.7" d="M34.957 297.802C37.54 297.802 39.4342 299.844 39.4342 302.226C39.4342 304.608 37.3678 306.65 34.957 306.65C32.374 306.65 30.3076 304.608 30.4798 302.056C30.3076 299.674 32.374 297.802 34.957 297.802ZM36.3346 302.226C36.3346 301.375 35.6458 300.695 34.957 300.695C34.096 300.695 33.4072 301.375 33.4072 302.226C33.4072 303.077 34.096 303.757 34.7848 303.757C35.6458 303.757 36.3346 303.077 36.3346 302.226Z" fill="#B1B1B1"/>
</g>
<g opacity="0.7">
<path opacity="0.7" d="M1263.41 137.286C1264.47 137.286 1264.77 137.735 1264.62 138.781C1264.16 140.426 1263.71 142.22 1263.26 143.864C1262.8 145.957 1262.2 147.901 1261.74 149.994C1262.35 150.143 1262.95 150.143 1263.56 150.143C1264.16 150.143 1264.62 150.592 1264.62 151.041C1264.62 151.639 1264.16 152.087 1263.41 152.087C1262.04 152.087 1260.68 151.788 1259.62 151.041C1257.51 149.695 1255.24 149.844 1253.12 151.041C1250.39 152.536 1247.67 152.536 1244.95 151.041C1242.83 149.844 1240.71 149.844 1238.44 151.041C1235.72 152.536 1232.99 152.536 1230.27 151.041C1228.15 149.844 1226.03 149.844 1223.76 151.041C1221.04 152.536 1218.32 152.536 1215.59 151.041C1213.32 149.844 1211.2 149.844 1209.08 151.041C1207.87 151.788 1206.66 152.087 1205.3 152.087C1204.55 152.087 1204.09 151.639 1204.09 151.041C1204.09 150.442 1204.55 150.143 1205.3 149.994C1206.06 149.844 1206.82 149.695 1207.57 149.545C1208.48 149.246 1209.39 148.648 1210.3 148.2C1210.3 148.05 1210.14 147.901 1209.99 147.751C1208.03 143.715 1206.21 139.678 1204.24 135.642C1203.79 134.745 1204.24 133.997 1205.3 133.997C1209.84 133.997 1214.38 133.997 1218.92 133.997C1219.22 133.997 1219.68 134.146 1219.98 134.296C1221.04 135.044 1222.1 135.941 1223.16 136.688C1223.31 136.838 1223.61 136.987 1223.91 136.987C1226.03 136.987 1228 136.987 1230.12 136.987C1230.42 136.987 1230.57 136.838 1230.72 136.539C1232.24 132.651 1233.75 128.764 1235.26 125.027C1235.56 124.13 1235.87 123.98 1236.62 123.98C1240.26 123.98 1244.04 123.98 1247.67 123.98C1247.82 123.98 1248.12 123.98 1248.28 123.98C1248.28 122.336 1248.28 120.841 1248.28 119.346C1248.28 118.449 1248.58 118 1249.64 118C1250.85 118 1251.91 118 1253.12 118C1254.03 118 1254.33 118.299 1254.33 119.196C1254.33 120.392 1254.33 121.588 1254.33 122.934C1254.33 123.233 1254.33 123.532 1254.33 123.98C1254.93 123.98 1255.39 123.98 1255.84 123.98C1257.05 123.98 1257.35 124.279 1257.35 125.475C1257.35 129.063 1257.35 132.651 1257.35 136.389C1257.35 136.539 1257.35 136.838 1257.35 137.137C1259.62 137.286 1261.59 137.286 1263.41 137.286ZM1207.42 137.884C1208.93 141.173 1210.6 144.462 1212.11 147.751C1212.26 148.05 1212.41 148.2 1212.87 148.2C1214.23 148.2 1215.44 148.648 1216.5 149.246C1218.62 150.442 1220.89 150.442 1223.01 149.246C1225.73 147.751 1228.45 147.751 1231.18 149.246C1233.45 150.442 1235.56 150.442 1237.83 149.246C1240.56 147.751 1243.28 147.751 1246.01 149.246C1248.12 150.442 1250.24 150.442 1252.36 149.246C1254.78 147.901 1257.2 147.751 1259.62 148.798C1259.77 148.798 1259.93 148.947 1260.08 148.947C1260.83 145.658 1261.74 142.519 1262.5 139.23C1262.2 139.23 1262.04 139.23 1261.74 139.23C1249.18 139.23 1236.47 139.23 1223.91 139.23C1223.31 139.23 1222.85 139.08 1222.4 138.781C1221.34 138.034 1220.43 137.286 1219.37 136.539C1219.22 136.389 1218.92 136.24 1218.77 136.24C1214.83 136.24 1211.05 136.24 1207.12 136.24C1207.12 136.24 1206.97 136.24 1206.82 136.24C1206.97 136.838 1207.27 137.436 1207.42 137.884ZM1255.54 137.286C1255.54 133.698 1255.54 130.11 1255.54 126.372C1255.39 126.372 1255.24 126.372 1255.08 126.372C1249.33 126.372 1243.43 126.372 1237.68 126.372C1237.23 126.372 1237.08 126.522 1236.93 126.821C1235.72 130.11 1234.35 133.548 1232.99 136.838C1232.99 136.987 1232.84 137.137 1232.84 137.286C1240.56 137.286 1247.97 137.286 1255.54 137.286ZM1252.66 124.279C1252.66 123.083 1252.66 122.037 1252.66 120.99C1252.66 120.841 1252.66 120.542 1252.66 120.392C1251.91 120.392 1251.3 120.392 1250.7 120.392C1250.7 121.738 1250.7 122.934 1250.7 124.279C1251.3 124.279 1251.91 124.279 1252.66 124.279Z" fill="#B1B1B1"/>
<path opacity="0.7" d="M1256.45 152.237C1254.93 152.237 1253.57 152.685 1252.21 153.433C1250.09 154.629 1247.97 154.629 1246.01 153.433C1243.28 151.938 1240.41 151.788 1237.68 153.433C1235.57 154.629 1233.45 154.629 1231.33 153.433C1228.45 151.938 1225.73 151.938 1222.86 153.433C1220.89 154.629 1218.77 154.629 1216.65 153.433C1213.78 151.788 1210.9 151.788 1208.03 153.433C1207.12 153.881 1206.21 154.18 1205.15 154.18C1204.24 154.18 1203.64 155.077 1204.24 155.675C1204.39 155.974 1204.85 156.124 1205.15 156.124C1206.51 156.124 1207.88 155.825 1209.09 155.077C1211.36 153.732 1213.47 153.732 1215.74 155.077C1218.47 156.572 1221.19 156.572 1223.91 155.077C1226.03 153.881 1228.15 153.881 1230.42 155.077C1233.14 156.572 1236.02 156.572 1238.74 155.077C1240.86 153.881 1242.98 153.881 1245.1 155.077C1247.82 156.572 1250.7 156.572 1253.42 155.077C1255.54 153.881 1257.66 153.881 1259.78 155.077C1260.99 155.825 1262.35 156.273 1263.86 156.124C1264.47 156.124 1264.92 155.675 1264.92 155.227C1264.92 154.629 1264.47 154.18 1263.86 154.18C1262.65 154.18 1261.59 153.732 1260.53 153.134C1259.17 152.536 1257.81 152.237 1256.45 152.237Z" fill="#B1B1B1"/>
<path opacity="0.7" d="M1253.57 131.306C1253.57 132.95 1252.21 134.296 1250.55 134.296C1248.88 134.296 1247.52 132.95 1247.52 131.306C1247.52 129.661 1248.88 128.316 1250.55 128.316C1252.21 128.316 1253.57 129.661 1253.57 131.306ZM1251.6 131.306C1251.6 130.708 1251.15 130.259 1250.7 130.259C1250.09 130.259 1249.64 130.708 1249.64 131.156C1249.64 131.754 1250.09 132.203 1250.55 132.203C1251.15 132.352 1251.6 131.904 1251.6 131.306Z" fill="#B1B1B1"/>
<path opacity="0.7" d="M1244.49 131.306C1244.49 132.95 1243.13 134.296 1241.47 134.296C1239.8 134.296 1238.44 132.95 1238.44 131.306C1238.44 129.661 1239.8 128.316 1241.47 128.316C1243.13 128.316 1244.49 129.661 1244.49 131.306ZM1241.62 132.352C1242.22 132.352 1242.53 131.904 1242.53 131.306C1242.53 130.708 1242.07 130.259 1241.47 130.259C1240.86 130.259 1240.56 130.708 1240.56 131.306C1240.56 131.904 1241.01 132.352 1241.62 132.352Z" fill="#B1B1B1"/>
</g>
<g opacity="0.7">
<path opacity="0.7" d="M1310.96 39.1599C1312.61 39.1599 1314.25 39.1599 1315.9 39.1599C1317 39.1599 1318.09 39.1599 1319.47 39.1599C1320.01 39.1599 1320.01 39.431 1320.01 39.702C1320.01 42.6835 1318.09 45.3939 1314.8 45.936C1314.53 45.936 1313.98 45.936 1313.71 45.936C1308.22 45.936 1303.01 45.936 1297.52 45.936C1294.5 45.936 1292.03 44.0387 1291.49 41.3283C1291.21 40.7862 1291.21 39.973 1291.21 39.431C1291.21 39.1599 1291.49 38.8889 1291.76 38.8889C1292.31 38.8889 1292.58 38.6178 1292.86 38.3468C1295.05 35.0943 1296.97 32.1128 1299.44 29.1313C1300.54 27.7761 1301.36 26.6919 1302.73 25.6077C1303.01 25.3367 1303.56 25.0657 1303.83 24.7946C1304.1 24.7946 1304.1 24.5236 1304.38 24.5236C1304.93 24.5236 1305.2 24.7946 1304.93 25.3367C1304.1 26.963 1303.83 28.8603 1303.83 30.7576C1303.83 32.9259 1304.38 35.0943 1305.48 37.2626C1305.48 36.9916 1305.48 36.9916 1305.48 36.9916C1305.48 31.8417 1305.48 26.963 1305.48 21.8131V21.5421C1305.48 21.271 1305.75 21 1306.02 21C1306.3 21 1306.57 21.271 1306.57 21.5421C1306.57 21.8131 1306.57 22.0842 1306.57 22.3552C1306.57 22.6263 1306.57 22.6263 1306.85 22.6263C1309.59 23.4394 1312.06 24.5236 1314.25 26.4209C1315.35 27.505 1316.17 28.5892 1316.72 29.9444C1317.27 31.5707 1317 32.9259 1316.45 34.5522C1315.63 36.7205 1313.98 38.0757 1311.78 38.8889C1311.51 38.8889 1311.24 38.8889 1310.96 39.1599ZM1292.03 39.973C1292.03 40.2441 1292.03 40.2441 1292.03 40.5151C1292.58 43.2256 1294.5 44.8518 1297.25 44.8518C1302.73 44.8518 1308.22 44.8518 1313.43 44.8518C1315.9 44.8518 1317.82 43.4966 1318.37 41.0572C1318.37 40.7862 1318.64 40.2441 1318.64 39.702C1309.86 39.973 1301.09 39.973 1292.03 39.973ZM1306.57 38.6178C1308.22 38.6178 1309.86 38.3468 1311.24 37.5337C1312.88 36.7205 1314.25 35.6364 1315.08 34.2811C1315.9 32.9259 1316.17 31.2997 1315.63 29.9444C1315.08 28.5892 1314.25 27.505 1313.16 26.6919C1311.51 25.3367 1309.86 24.5236 1307.94 23.7104C1307.67 23.7104 1307.67 23.7104 1307.4 23.4394C1309.04 25.8788 1310.14 28.3182 1309.86 31.0286C1309.59 34.0101 1308.49 36.7205 1306.57 38.6178ZM1293.68 39.1599C1297.52 39.1599 1301.36 39.1599 1305.2 39.1599V38.8889C1304.1 36.9916 1303.56 34.8232 1303.28 32.6549C1303.01 30.7576 1303.01 29.1313 1303.28 27.234C1303.28 26.963 1303.56 26.4209 1303.56 25.8788C1303.56 25.8788 1303.28 25.8788 1303.28 26.1498C1302.46 26.963 1301.63 28.0471 1300.81 28.8603C1298.34 32.3838 1295.87 35.6364 1293.68 39.1599C1293.68 38.8889 1293.68 38.8889 1293.68 39.1599ZM1306.57 24.2525C1306.57 28.5892 1306.57 32.9259 1306.57 37.2626C1308.22 35.0943 1309.04 32.6549 1308.77 29.6734C1308.49 27.7761 1307.67 25.8788 1306.57 24.2525Z" fill="#B1B1B1"/>
<path opacity="0.7" d="M1317.27 50.8147C1316.72 50.8147 1316.17 50.8147 1315.9 50.5437C1315.62 50.5437 1315.62 50.2726 1315.35 50.2726C1314.8 50.0016 1313.98 50.0016 1313.43 50.2726C1312.88 50.5437 1312.33 50.5437 1311.78 50.8147C1310.96 51.0857 1310.41 50.8147 1309.86 50.5437C1309.59 50.5437 1309.31 50.2726 1309.04 50.2726C1308.49 50.0016 1307.94 50.0016 1307.39 50.2726C1306.85 50.5437 1306.57 50.5437 1306.02 50.8147C1305.2 51.0857 1304.38 50.8147 1303.55 50.5437C1303.28 50.5437 1303.01 50.2726 1303.01 50.2726C1302.46 50.0016 1301.91 50.0016 1301.36 50.2726C1300.81 50.5437 1300.26 50.8147 1299.71 50.8147C1298.89 51.0857 1298.34 50.8147 1297.52 50.5437C1297.24 50.5437 1296.97 50.2726 1296.7 50.2726C1296.15 50.0016 1295.6 50.0016 1294.78 50.2726C1294.23 50.5437 1293.68 50.8147 1293.13 50.8147C1292.31 50.8147 1291.76 50.8147 1291.21 50.5437C1290.93 50.5437 1290.93 50.2726 1290.93 50.0016C1290.93 49.7305 1291.21 49.7305 1291.48 49.7305C1292.31 50.2726 1293.4 50.0016 1294.23 49.7305C1295.32 49.1885 1296.42 49.1885 1297.24 49.7305C1297.52 49.7305 1297.79 50.0016 1297.79 50.0016C1298.62 50.2726 1299.16 50.2726 1299.99 50.0016C1300.54 49.7305 1300.81 49.7305 1301.36 49.4595C1302.18 49.1885 1303.01 49.4595 1303.83 50.0016C1304.38 50.2726 1305.2 50.2726 1305.75 50.2726C1306.02 50.2726 1306.3 50.0016 1306.57 50.0016C1307.67 49.4595 1308.77 49.4595 1309.59 50.0016C1309.86 50.0016 1310.14 50.2726 1310.14 50.2726C1310.96 50.5437 1311.78 50.5437 1312.33 50.2726C1312.88 50.0016 1313.16 50.0016 1313.7 49.7305C1314.53 49.4595 1315.35 49.7305 1315.9 50.0016C1317 50.5437 1317.82 50.5437 1318.92 50.0016C1319.19 49.7305 1319.74 49.7305 1320.29 49.7305C1320.56 49.7305 1320.84 49.7305 1320.84 50.2726C1320.84 50.5437 1320.56 50.8147 1320.29 50.8147C1320.01 50.8147 1319.74 51.0858 1319.19 51.0858C1318.64 50.8147 1317.82 50.8147 1317.27 50.8147Z" fill="#B1B1B1"/>
<path opacity="0.7" d="M1317.27 48.6464C1316.72 48.6464 1316.17 48.6464 1315.63 48.3754C1315.35 48.3754 1315.08 48.1043 1315.08 48.1043C1314.53 47.8333 1313.98 47.8333 1313.16 48.1043C1312.61 48.3754 1312.33 48.3754 1311.79 48.6464C1310.96 48.9174 1310.14 48.6464 1309.59 48.3754C1309.32 48.3754 1309.04 48.1043 1308.77 48.1043C1308.22 47.8333 1307.4 47.8333 1306.85 48.1043C1306.3 48.3754 1306.02 48.3754 1305.48 48.6464C1304.65 48.9174 1303.83 48.6464 1303.01 48.3754C1302.73 48.3754 1302.73 48.1043 1302.46 48.1043C1301.64 47.8333 1301.09 47.8333 1300.26 48.1043C1299.44 48.3754 1298.89 48.6464 1298.07 48.6464C1297.52 48.6464 1297.25 48.3754 1296.7 48.3754C1296.42 48.3754 1296.42 48.1043 1296.15 48.1043C1295.33 47.8333 1294.78 47.8333 1293.95 48.1043C1293.13 48.3754 1292.58 48.6464 1291.76 48.6464C1291.21 48.6464 1290.94 48.3754 1290.39 48.3754C1290.11 48.3754 1289.84 48.1043 1290.11 47.8333C1290.11 47.5622 1290.39 47.5622 1290.66 47.5622C1291.49 47.8333 1292.58 47.8333 1293.41 47.5622C1294.5 47.0201 1295.6 47.0201 1296.7 47.5622C1297.25 47.8333 1298.07 48.1043 1298.62 47.8333C1298.89 47.8333 1299.44 47.5622 1299.71 47.5622C1300.81 47.0201 1301.91 47.0201 1303.01 47.5622C1303.83 48.1043 1304.93 48.1043 1305.75 47.5622C1306.3 47.2912 1306.85 47.0201 1307.67 47.0201C1308.22 47.0201 1308.77 47.2912 1309.32 47.5622C1309.86 47.8333 1310.41 48.1043 1311.24 47.8333C1311.51 47.8333 1312.06 47.5622 1312.33 47.5622C1313.43 47.0201 1314.8 47.0201 1315.9 47.5622C1316.72 47.8333 1317.55 48.1043 1318.37 47.5622C1318.92 47.2912 1319.19 47.2912 1319.74 47.0201H1320.01C1320.29 47.0201 1320.56 47.2912 1320.56 47.5622C1320.56 47.8333 1320.29 48.1043 1320.01 48.1043C1319.74 48.1043 1319.19 48.3754 1318.92 48.3754C1318.37 48.6464 1317.82 48.6464 1317.27 48.6464Z" fill="#B1B1B1"/>
</g>
<g opacity="0.7">
<path opacity="0.7" d="M60.3203 41.8742C61.0272 41.8742 61.2629 42.107 61.0272 42.8055C60.7916 43.9697 60.556 44.901 60.3203 46.0651C60.0847 47.2293 59.6134 48.6262 59.3777 50.0232C59.849 50.0232 60.0847 50.0232 60.556 50.256C61.0272 50.256 61.2629 50.4888 61.2629 50.9545C61.2629 51.4202 61.0272 51.653 60.556 51.653C59.6134 51.653 58.9064 51.4202 58.1995 50.9545C56.7856 50.256 55.3718 50.256 54.1935 50.9545C52.544 51.8858 50.8945 51.8858 49.0093 50.9545C47.5955 50.256 46.4172 50.256 45.0034 50.9545C43.3539 51.8858 41.4687 51.8858 39.8192 50.9545C38.4053 50.256 37.2271 50.256 35.8132 50.9545C34.1637 51.8858 32.2785 51.8858 30.629 50.9545C29.2151 50.256 27.8013 50.256 26.623 50.9545C25.9161 51.4202 24.9735 51.653 24.2666 51.653C23.7953 51.653 23.5597 51.4202 23.5597 50.9545C23.0884 50.256 23.324 50.0232 23.7953 50.0232C24.2666 50.0232 24.7379 49.7904 25.2092 49.7904C25.6805 49.5575 26.3874 49.3247 26.8587 49.0919C26.8587 49.0919 26.8587 48.859 26.623 48.859C25.4448 46.2979 24.2666 43.7368 23.0884 41.4086C22.8527 40.7101 23.0884 40.4772 23.7953 40.4772C26.623 40.4772 29.4508 40.4772 32.2785 40.4772C32.5142 40.4772 32.7498 40.4772 32.9855 40.7101C33.6924 41.1757 34.3993 41.6414 35.1063 42.107C35.3419 42.107 35.3419 42.3399 35.5776 42.3399C36.7558 42.3399 38.1697 42.3399 39.3479 42.3399C39.5835 42.3399 39.5835 42.3399 39.8192 42.107C40.7618 39.7788 41.7043 37.2177 42.6469 34.8894C42.8826 33.9581 43.1182 33.7252 43.5895 33.7252C45.9459 33.7252 48.3024 33.7252 50.6589 33.7252C50.8945 33.7252 50.8945 33.7252 51.1301 33.7252C51.1301 32.7939 51.1301 31.6298 51.1301 30.6985C51.1301 30 51.3658 30 51.8371 30C52.544 30 53.251 30 53.9579 30C54.4292 30 54.6648 30.2328 54.6648 30.6985C54.6648 31.397 54.6648 32.3283 54.6648 33.0268C54.6648 33.2596 54.6648 33.4924 54.6648 33.7252C55.1361 33.7252 55.3718 33.7252 55.6074 33.7252C56.3143 33.7252 56.55 33.9581 56.55 34.6566C56.55 36.9848 56.55 39.0803 56.55 41.4086C56.55 41.6414 56.55 41.6414 56.55 41.8742C57.9639 41.8742 59.1421 41.8742 60.3203 41.8742ZM25.2092 42.3399C26.1518 44.4353 27.0943 46.5308 28.0369 48.6262C28.0369 48.859 28.2726 48.859 28.5082 48.859C29.2151 48.859 30.1577 49.0919 30.8647 49.5575C32.2785 50.256 33.4568 50.256 34.8706 49.5575C36.5201 48.6262 38.1697 48.6262 40.0548 49.5575C41.4687 50.256 42.8826 50.256 44.2964 49.5575C45.9459 48.6262 47.5955 48.6262 49.4806 49.5575C50.8945 50.256 52.0727 50.256 53.4866 49.5575C54.9005 48.6262 56.55 48.6262 57.9639 49.3247H58.1995C58.6708 47.2293 59.1421 45.3666 59.849 43.2712C59.6134 43.2712 59.6134 43.2712 59.3777 43.2712C51.3658 43.2712 43.3539 43.2712 35.3419 43.2712C35.1063 43.2712 34.8706 43.0384 34.3993 42.8055C33.928 42.3399 33.2211 41.8742 32.5142 41.4086C32.5142 41.4086 32.2785 41.1757 32.0429 41.1757C29.6864 41.1757 27.0943 41.1757 24.7379 41.1757C24.7379 41.1757 24.7379 41.1757 24.5022 41.1757C24.9735 41.6414 24.9735 41.8742 25.2092 42.3399ZM55.3718 41.8742C55.3718 39.5459 55.3718 37.2177 55.3718 35.1222H55.1361C51.6014 35.1222 47.8311 35.1222 44.2964 35.1222C44.0608 35.1222 44.0608 35.1222 43.8251 35.355C42.8826 37.4505 41.94 39.5459 41.233 41.6414V41.8742C45.9459 41.8742 50.6589 41.8742 55.3718 41.8742ZM53.4866 33.7252C53.4866 33.0268 53.4866 32.3283 53.4866 31.6298C53.4866 31.397 53.4866 31.397 53.4866 31.1641C53.0153 31.1641 52.544 31.1641 52.3084 31.1641C52.3084 31.8626 52.3084 32.7939 52.3084 33.7252C52.544 33.7252 53.0153 33.7252 53.4866 33.7252Z" fill="#B1B1B1"/>
<path opacity="0.7" d="M55.8423 51.4202C54.8997 51.4202 53.9571 51.653 53.2502 52.1187C52.0719 52.8171 50.6581 52.8171 49.2442 52.1187C47.5947 51.1873 45.7095 51.1873 44.06 52.1187C42.6461 52.8171 41.4679 52.8171 40.054 52.1187C38.1689 51.1873 36.5194 51.1873 34.8698 52.1187C33.6916 52.8171 32.2777 52.8171 31.0995 52.1187C29.2144 51.1873 27.5648 51.1873 25.6797 52.1187C24.9727 52.3515 24.5015 52.5843 23.7945 52.5843C23.3232 52.5843 22.8519 53.05 23.0876 53.5156C23.3232 53.7484 23.5589 53.7484 23.5589 53.7484C24.5015 53.7484 25.2084 53.5156 25.9153 53.05C27.3292 52.3515 28.7431 52.3515 30.1569 53.05C31.8065 53.9813 33.456 53.9813 35.3411 53.05C36.755 52.3515 37.9332 52.3515 39.3471 53.05C40.9966 53.9813 42.8818 53.9813 44.5313 53.05C45.9452 52.3515 47.1234 52.3515 48.5373 53.05C50.1868 53.9813 52.0719 53.9813 53.7215 53.05C55.1353 52.3515 56.3135 52.3515 57.7274 53.05C58.4344 53.5156 59.3769 53.7484 60.3195 53.7484C60.7908 53.7484 61.0265 53.5156 61.0265 53.05C61.0265 52.5843 60.7908 52.3515 60.3195 52.3515C59.6126 52.3515 58.9056 52.1187 58.1987 51.653C57.4918 51.4202 56.7848 51.1873 55.8423 51.4202Z" fill="#B1B1B1"/>
<path opacity="0.7" d="M54.1937 38.1489C54.1937 39.313 53.2511 40.0115 52.3085 40.0115C51.3659 40.0115 50.4233 39.0802 50.4233 38.1489C50.4233 36.9847 51.3659 36.2863 52.3085 36.2863C53.2511 36.2863 54.1937 37.2176 54.1937 38.1489ZM52.7798 38.1489C52.7798 37.6832 52.5441 37.4504 52.0729 37.4504C51.8372 37.4504 51.3659 37.6832 51.3659 38.1489C51.3659 38.6145 51.6016 38.8474 52.0729 38.8474C52.5441 38.8474 52.7798 38.6145 52.7798 38.1489Z" fill="#B1B1B1"/>
<path opacity="0.7" d="M48.5379 38.1489C48.5379 39.0802 47.5953 40.0115 46.6527 40.0115C45.7102 40.0115 44.7676 39.0802 44.7676 38.1489C44.5319 37.2176 45.4745 36.2863 46.4171 36.2863C47.5953 36.2863 48.3023 37.2176 48.5379 38.1489ZM46.6527 38.8474C46.8884 38.8474 47.3597 38.6145 47.3597 38.1489C47.3597 37.916 47.124 37.4504 46.6527 37.4504C46.4171 37.4504 45.9458 37.6832 45.9458 38.1489C45.9458 38.6145 46.1815 38.8474 46.6527 38.8474Z" fill="#B1B1B1"/>
</g>
</svg>
