<svg width="1440" height="273" viewBox="0 0 1440 273" fill="none" xmlns="http://www.w3.org/2000/svg">
<g opacity="0.7">
<path opacity="0.7" d="M424.871 121.653C430.938 121.653 437.006 121.809 443.074 121.809C447.897 121.809 451.631 118.053 451.787 113.044C451.943 108.974 449.142 105.687 445.252 105.531C444.474 105.531 444.163 105.061 444.163 104.278C444.163 102.87 444.319 101.304 444.163 99.8958C443.697 94.1043 439.807 90.0347 434.206 89.2521C427.982 88.4694 423.159 93.6348 422.07 98.174C421.914 98.6436 421.759 99.1131 421.136 99.1131C420.67 99.1131 420.359 98.8001 420.047 98.3305C419.581 97.3914 418.958 96.4522 418.336 95.8261C415.224 92.5391 409.934 93.6348 408.067 97.8609C407.445 99.4262 407.445 101.148 407.6 102.713C407.6 103.652 407.289 103.965 406.511 104.122C405.733 104.122 404.955 104.278 404.177 104.435C399.821 105.374 397.332 109.131 397.954 113.826C398.576 118.053 402.155 121.34 406.356 121.34C412.735 121.653 418.803 121.653 424.871 121.653Z" stroke="#D4D4D4" stroke-width="4" stroke-miterlimit="10"/>
</g>
<g opacity="0.7">
<path opacity="0.7" d="M715.029 83.3586C720.246 83.3586 725.353 83.4703 730.571 83.4703C734.678 83.4703 737.898 80.2315 738.12 75.9874C738.342 72.5251 735.9 69.733 732.569 69.6213C731.903 69.6213 731.57 69.2863 731.57 68.5045C731.57 67.2759 731.681 66.0474 731.57 64.7071C731.126 59.6813 727.795 56.3307 723.022 55.6606C717.693 54.9905 713.585 59.3462 712.697 63.3669C712.586 63.8137 712.364 64.1487 711.92 64.2604C711.476 64.3721 711.254 64.037 711.032 63.5903C710.588 62.8085 710.144 62.0267 709.589 61.4683C706.924 58.6761 702.484 59.5696 700.819 63.1435C700.264 64.4838 700.264 65.9357 700.375 67.3876C700.486 68.1694 700.152 68.5045 699.375 68.5045C698.709 68.5045 698.043 68.6161 697.377 68.7278C693.603 69.5096 691.493 72.7485 692.048 76.7692C692.603 80.4548 695.712 83.247 699.264 83.247C704.593 83.247 709.811 83.247 715.029 83.3586Z" stroke="#D4D4D4" stroke-width="4" stroke-miterlimit="10"/>
</g>
<g opacity="0.7">
<path opacity="0.7" d="M866.867 54.25C871.757 54.25 876.741 54.3428 881.631 54.3428C885.507 54.3428 888.552 51.2792 888.829 47.1944C889.014 43.8522 886.707 41.2528 883.569 41.0671C882.923 41.0671 882.647 40.6958 882.647 40.0459C882.647 38.839 882.739 37.6321 882.647 36.5181C882.185 31.7834 879.048 28.5341 874.618 27.8842C869.635 27.2344 865.575 31.4121 864.836 35.2184C864.744 35.6826 864.56 35.9611 864.098 36.0539C863.637 36.1467 863.452 35.8682 863.175 35.4969C862.714 34.7542 862.345 34.0115 861.791 33.4545C859.3 30.855 854.962 31.6906 853.486 35.0327C852.932 36.3324 853.024 37.6321 853.117 39.0247C853.209 39.7674 852.932 40.0459 852.194 40.1387C851.548 40.1387 850.902 40.2316 850.256 40.3244C846.657 41.0671 844.627 44.2236 845.181 48.0299C845.734 51.5577 848.595 54.1571 852.009 54.1571C856.9 54.1571 861.883 54.1571 866.867 54.25Z" stroke="#D4D4D4" stroke-width="4" stroke-miterlimit="10"/>
</g>
<g opacity="0.7">
<path opacity="0.7" d="M571.728 77.7162C577.906 77.7162 584.201 77.8335 590.379 77.8335C595.275 77.8335 599.122 73.9635 599.471 68.8036C599.705 64.5819 596.79 61.2983 592.827 61.0638C592.011 61.0638 591.661 60.5947 591.661 59.7738C591.661 58.2493 591.778 56.7247 591.661 55.3175C591.079 49.3367 587.115 45.2322 581.52 44.4113C575.225 43.5904 570.096 48.8676 569.164 53.6757C569.047 54.262 568.814 54.6139 568.231 54.7311C567.648 54.8484 567.415 54.4966 567.065 54.0275C566.483 53.0893 566.016 52.1512 565.317 51.4475C562.17 48.164 556.691 49.2194 554.826 53.4411C554.126 55.0829 554.243 56.7247 554.36 58.4838C554.476 59.422 554.126 59.7738 553.194 59.891C552.378 59.891 551.562 60.0083 550.746 60.1256C546.2 61.0638 543.635 65.051 544.335 69.8591C545.034 74.3154 548.648 77.5989 552.961 77.5989C559.139 77.5989 565.434 77.5989 571.728 77.7162Z" stroke="#D4D4D4" stroke-width="4" stroke-miterlimit="10"/>
</g>
<g opacity="0.7">
<path opacity="0.7" d="M1011.53 120.686C1015.63 120.686 1019.59 120.828 1023.69 120.828C1026.8 120.828 1029.35 118.409 1029.49 114.993C1029.63 112.289 1027.79 110.155 1025.25 110.012C1024.68 110.012 1024.54 109.728 1024.54 109.159C1024.54 108.162 1024.54 107.166 1024.54 106.312C1024.26 102.47 1021.57 99.766 1017.89 99.1968C1013.79 98.6276 1010.54 102.043 1009.83 105.174C1009.69 105.459 1009.54 105.743 1009.26 105.885C1008.84 105.885 1008.7 105.743 1008.55 105.459C1008.13 104.889 1007.85 104.32 1007.42 103.751C1005.3 101.616 1001.91 102.328 1000.63 105.032C1000.21 106.028 1000.21 107.166 1000.35 108.305C1000.35 108.874 1000.21 109.159 999.643 109.159C999.077 109.159 998.652 109.159 998.087 109.301C995.116 109.87 993.418 112.432 993.984 115.563C994.409 118.409 996.814 120.544 999.501 120.544C1003.46 120.686 1007.56 120.686 1011.53 120.686Z" stroke="#D4D4D4" stroke-width="4" stroke-miterlimit="10"/>
</g>
<g opacity="0.7">
<path opacity="0.7" d="M301.524 59.5777C306.591 59.5777 311.755 59.5777 316.822 59.5777C320.838 59.5777 323.993 56.4033 324.185 52.1708C324.376 48.7079 321.986 46.0145 318.639 45.9183C317.97 45.9183 317.683 45.5335 317.683 44.8602C317.683 43.6096 317.778 42.3591 317.587 41.2048C317.109 36.299 313.858 32.9322 309.173 32.3551C303.914 31.6817 299.898 36.1066 299.038 39.9543C298.942 40.4353 298.751 40.7239 298.273 40.82C297.795 40.9162 297.603 40.6277 297.316 40.2429C296.838 39.4733 296.456 38.7038 295.882 38.1266C293.205 35.4332 288.807 36.299 287.277 39.8581C286.703 41.2048 286.799 42.5515 286.894 43.9944C286.99 44.764 286.703 45.0525 285.938 45.1487C285.269 45.1487 284.599 45.2449 283.93 45.3411C280.201 46.1107 278.098 49.3812 278.767 53.3252C279.341 56.8843 282.4 59.6739 285.842 59.6739C291.293 59.6739 296.456 59.5777 301.524 59.5777Z" stroke="#D4D4D4" stroke-width="4" stroke-miterlimit="10"/>
</g>
<path d="M1009.33 18.0649C1000.04 18.0649 992.495 25.6575 992.495 35C992.495 44.3425 1000.04 51.935 1009.33 51.935C1018.62 51.935 1026.16 44.3425 1026.16 35C1026.16 25.6575 1018.62 18.0649 1009.33 18.0649ZM1009.33 49.6752C1001.29 49.6752 994.742 43.0886 994.742 35C994.742 26.9114 1001.29 20.3248 1009.33 20.3248C1017.37 20.3248 1023.92 26.9114 1023.92 35C1023.92 43.0886 1017.37 49.6752 1009.33 49.6752Z" fill="#FFA912"/>
<path d="M1010.45 0H1008.21V13.5453H1010.45V0Z" fill="#FFA912"/>
<path d="M1010.45 56.4547H1008.21V70H1010.45V56.4547Z" fill="#FFA912"/>
<path d="M995.04 19.0343L985.519 9.45642L983.93 11.0544L993.451 20.6322L995.04 19.0343Z" fill="#FFA912"/>
<path d="M1023.61 50.9729L1033.14 60.5508L1034.72 58.9528L1025.2 49.375L1023.61 50.9729Z" fill="#FFA912"/>
<path d="M988.003 33.8701H974.538V36.1299H988.003V33.8701Z" fill="#FFA912"/>
<path d="M1044.12 33.8701H1030.66V36.1299H1044.12V33.8701Z" fill="#FFA912"/>
<path d="M983.934 58.9452L985.522 60.5431L995.043 50.9652L993.455 49.3673L983.934 58.9452Z" fill="#FFA912"/>
<path d="M1034.73 11.0553L1033.14 9.4574L1023.62 19.0353L1025.21 20.6332L1034.73 11.0553Z" fill="#FFA912"/>
<path d="M1002.2 14.7422L998.77 6.4035L996.695 7.26834L1000.13 15.6071L1002.2 14.7422Z" fill="#FFA912"/>
<path d="M1016.46 55.2621L1019.89 63.6008L1021.97 62.736L1018.54 54.3972L1016.46 55.2621Z" fill="#FFA912"/>
<path d="M990.05 25.7461L981.761 22.2921L980.901 24.3799L989.19 27.834L990.05 25.7461Z" fill="#FFA912"/>
<path d="M1028.6 44.2461L1036.9 47.7047L1037.75 45.624L1029.47 42.1653L1028.6 44.2461Z" fill="#FFA912"/>
<path d="M1021.96 7.26576L1019.89 6.4007L1016.45 14.7385L1018.53 15.6036L1021.96 7.26576Z" fill="#FFA912"/>
<path d="M996.693 62.7353L998.768 63.6003L1002.2 55.2625L1000.13 54.3974L996.693 62.7353Z" fill="#FFA912"/>
<path d="M1029.46 27.8353L1037.76 24.3759L1036.9 22.288L1028.6 25.7474L1029.46 27.8353Z" fill="#FFA912"/>
<path d="M989.194 42.1653L980.907 45.624L981.77 47.7047L990.057 44.2461L989.194 42.1653Z" fill="#FFA912"/>
<g opacity="0.7">
<g opacity="0.7">
<g opacity="0.7">
<g opacity="0.7">
<path opacity="0.7" d="M1161.04 271.287H259.433V272.87H1161.04V271.287Z" fill="black"/>
</g>
<g opacity="0.7">
<path opacity="0.7" d="M285.474 263.573H282.121V253.683H289.223V246.166H295.339V234.694H320V237.859H298.693V249.331H292.38V256.848H285.474V263.573Z" fill="black"/>
</g>
<g opacity="0.7">
<path opacity="0.7" d="M320.197 239.639H302.047V242.804H320.197V239.639Z" fill="black"/>
</g>
<g opacity="0.7">
<path opacity="0.7" d="M320.197 243.793H302.047V246.958H320.197V243.793Z" fill="black"/>
</g>
<g opacity="0.7">
<path opacity="0.7" d="M320.197 248.342H302.047V251.507H320.197V248.342Z" fill="black"/>
</g>
<g opacity="0.7">
<path opacity="0.7" d="M320 253.683H295.339V256.848H320V253.683Z" fill="black"/>
</g>
<g opacity="0.7">
<path opacity="0.7" d="M320.197 259.024H293.366V262.189H320.197V259.024Z" fill="black"/>
</g>
<g opacity="0.7">
<path opacity="0.7" d="M316.054 231.924H312.897V200.276H325.721V203.441H316.054V231.924Z" fill="black"/>
</g>
<g opacity="0.7">
<path opacity="0.7" d="M322.762 205.221H318.224V208.386H322.762V205.221Z" fill="black"/>
</g>
<g opacity="0.7">
<path opacity="0.7" d="M322.762 210.364H318.224V213.529H322.762V210.364Z" fill="black"/>
</g>
<g opacity="0.7">
<path opacity="0.7" d="M322.762 216.496H318.224V219.661H322.762V216.496Z" fill="black"/>
</g>
<g opacity="0.7">
<path opacity="0.7" d="M322.762 221.837H318.224V225.001H322.762V221.837Z" fill="black"/>
</g>
<g opacity="0.7">
<path opacity="0.7" d="M322.762 226.979H318.224V230.144H322.762V226.979Z" fill="black"/>
</g>
<g opacity="0.7">
<path opacity="0.7" d="M343.872 264.364H340.715V234.1H328.089V264.364H324.932V230.936H343.872V264.364Z" fill="black"/>
</g>
<g opacity="0.7">
<path opacity="0.7" d="M332.034 249.925H329.667V252.298H332.034V249.925Z" fill="black"/>
</g>
<g opacity="0.7">
<path opacity="0.7" d="M335.586 249.925H333.218V252.298H335.586V249.925Z" fill="black"/>
</g>
<g opacity="0.7">
<path opacity="0.7" d="M338.939 249.925H336.572V252.298H338.939V249.925Z" fill="black"/>
</g>
<g opacity="0.7">
<path opacity="0.7" d="M332.232 244.188H329.864V246.562H332.232V244.188Z" fill="black"/>
</g>
<g opacity="0.7">
<path opacity="0.7" d="M335.783 244.188H333.416V246.562H335.783V244.188Z" fill="black"/>
</g>
<g opacity="0.7">
<path opacity="0.7" d="M338.939 244.188H336.572V246.562H338.939V244.188Z" fill="black"/>
</g>
<g opacity="0.7">
<path opacity="0.7" d="M332.232 238.254H329.864V240.628H332.232V238.254Z" fill="black"/>
</g>
<g opacity="0.7">
<path opacity="0.7" d="M335.783 238.254H333.416V240.628H335.783V238.254Z" fill="black"/>
</g>
<g opacity="0.7">
<path opacity="0.7" d="M338.939 238.254H336.572V240.628H338.939V238.254Z" fill="black"/>
</g>
<g opacity="0.7">
<path opacity="0.7" d="M332.034 222.43H329.667V224.804H332.034V222.43Z" fill="black"/>
</g>
<g opacity="0.7">
<path opacity="0.7" d="M335.586 222.43H333.218V224.804H335.586V222.43Z" fill="black"/>
</g>
<g opacity="0.7">
<path opacity="0.7" d="M338.939 222.43H336.572V224.804H338.939V222.43Z" fill="black"/>
</g>
<g opacity="0.7">
<path opacity="0.7" d="M332.232 216.891H329.864V219.265H332.232V216.891Z" fill="black"/>
</g>
<g opacity="0.7">
<path opacity="0.7" d="M335.783 216.891H333.416V219.265H335.783V216.891Z" fill="black"/>
</g>
<g opacity="0.7">
<path opacity="0.7" d="M338.939 216.891H336.572V219.265H338.939V216.891Z" fill="black"/>
</g>
<g opacity="0.7">
<path opacity="0.7" d="M332.232 210.76H329.864V213.133H332.232V210.76Z" fill="black"/>
</g>
<g opacity="0.7">
<path opacity="0.7" d="M335.783 210.76H333.416V213.133H335.783V210.76Z" fill="black"/>
</g>
<g opacity="0.7">
<path opacity="0.7" d="M338.939 210.76H336.572V213.133H338.939V210.76Z" fill="black"/>
</g>
<g opacity="0.7">
<path opacity="0.7" d="M343.083 230.144H339.926V208.386H328.878V230.144H325.918V205.221H343.083V230.144Z" fill="black"/>
</g>
<g opacity="0.7">
<path opacity="0.7" d="M341.307 203.836H338.348V199.88H330.851V203.836H327.694V196.913H341.307V203.836Z" fill="black"/>
</g>
<g opacity="0.7">
<path opacity="0.7" d="M339.137 194.144H335.98V185.243H333.021V194.144H330.062V182.276H339.137V194.144Z" fill="black"/>
</g>
<g opacity="0.7">
<path opacity="0.7" d="M363.6 264.364H360.641V237.859H346.831V234.694H363.6V264.364Z" fill="black"/>
</g>
<g opacity="0.7">
<path opacity="0.7" d="M357.879 239.045H346.831V242.012H357.879V239.045Z" fill="black"/>
</g>
<g opacity="0.7">
<path opacity="0.7" d="M357.879 243.793H346.831V246.76H357.879V243.793Z" fill="black"/>
</g>
<g opacity="0.7">
<path opacity="0.7" d="M357.879 248.738H346.831V251.705H357.879V248.738Z" fill="black"/>
</g>
<g opacity="0.7">
<path opacity="0.7" d="M357.879 253.683H346.831V256.65H357.879V253.683Z" fill="black"/>
</g>
<g opacity="0.7">
<path opacity="0.7" d="M357.879 259.024H346.831V261.991H357.879V259.024Z" fill="black"/>
</g>
<g opacity="0.7">
<path opacity="0.7" d="M387.867 264.364H384.71V203.441H345.253V200.276H387.867V264.364Z" fill="black"/>
</g>
<g opacity="0.7">
<path opacity="0.7" d="M351.566 205.221H346.831V208.188H351.566V205.221Z" fill="black"/>
</g>
<g opacity="0.7">
<path opacity="0.7" d="M361.036 205.221H356.301V208.188H361.036V205.221Z" fill="black"/>
</g>
<g opacity="0.7">
<path opacity="0.7" d="M370.308 205.221H365.573V208.188H370.308V205.221Z" fill="black"/>
</g>
<g opacity="0.7">
<path opacity="0.7" d="M379.975 205.221H375.24V208.188H379.975V205.221Z" fill="black"/>
</g>
<g opacity="0.7">
<path opacity="0.7" d="M351.566 210.364H346.831V213.331H351.566V210.364Z" fill="black"/>
</g>
<g opacity="0.7">
<path opacity="0.7" d="M361.036 210.364H356.301V213.331H361.036V210.364Z" fill="black"/>
</g>
<g opacity="0.7">
<path opacity="0.7" d="M370.308 210.364H365.573V213.331H370.308V210.364Z" fill="black"/>
</g>
<g opacity="0.7">
<path opacity="0.7" d="M379.975 210.364H375.24V213.331H379.975V210.364Z" fill="black"/>
</g>
<g opacity="0.7">
<path opacity="0.7" d="M351.566 216.496H346.831V219.463H351.566V216.496Z" fill="black"/>
</g>
<g opacity="0.7">
<path opacity="0.7" d="M361.036 216.496H356.301V219.463H361.036V216.496Z" fill="black"/>
</g>
<g opacity="0.7">
<path opacity="0.7" d="M370.308 216.496H365.573V219.463H370.308V216.496Z" fill="black"/>
</g>
<g opacity="0.7">
<path opacity="0.7" d="M379.975 216.496H375.24V219.463H379.975V216.496Z" fill="black"/>
</g>
<g opacity="0.7">
<path opacity="0.7" d="M351.566 222.034H346.831V225.001H351.566V222.034Z" fill="black"/>
</g>
<g opacity="0.7">
<path opacity="0.7" d="M361.036 222.034H356.301V225.001H361.036V222.034Z" fill="black"/>
</g>
<g opacity="0.7">
<path opacity="0.7" d="M370.308 222.034H365.573V225.001H370.308V222.034Z" fill="black"/>
</g>
<g opacity="0.7">
<path opacity="0.7" d="M379.975 222.034H375.24V225.001H379.975V222.034Z" fill="black"/>
</g>
<g opacity="0.7">
<path opacity="0.7" d="M351.566 227.177H346.831V230.144H351.566V227.177Z" fill="black"/>
</g>
<g opacity="0.7">
<path opacity="0.7" d="M361.036 227.177H356.301V230.144H361.036V227.177Z" fill="black"/>
</g>
<g opacity="0.7">
<path opacity="0.7" d="M370.308 227.177H365.573V230.144H370.308V227.177Z" fill="black"/>
</g>
<g opacity="0.7">
<path opacity="0.7" d="M379.975 227.177H375.24V230.144H379.975V227.177Z" fill="black"/>
</g>
<g opacity="0.7">
<path opacity="0.7" d="M370.308 236.672H365.573V239.639H370.308V236.672Z" fill="black"/>
</g>
<g opacity="0.7">
<path opacity="0.7" d="M379.975 236.672H375.24V239.639H379.975V236.672Z" fill="black"/>
</g>
<g opacity="0.7">
<path opacity="0.7" d="M370.505 242.606H365.771V245.573H370.505V242.606Z" fill="black"/>
</g>
<g opacity="0.7">
<path opacity="0.7" d="M379.975 242.606H375.24V245.573H379.975V242.606Z" fill="black"/>
</g>
<g opacity="0.7">
<path opacity="0.7" d="M370.308 246.958H365.573V249.925H370.308V246.958Z" fill="black"/>
</g>
<g opacity="0.7">
<path opacity="0.7" d="M379.975 246.958H375.24V249.925H379.975V246.958Z" fill="black"/>
</g>
<g opacity="0.7">
<path opacity="0.7" d="M370.505 252.694H365.771V255.661H370.505V252.694Z" fill="black"/>
</g>
<g opacity="0.7">
<path opacity="0.7" d="M379.975 252.694H375.24V255.661H379.975V252.694Z" fill="black"/>
</g>
<g opacity="0.7">
<path opacity="0.7" d="M370.505 259.024H365.771V261.991H370.505V259.024Z" fill="black"/>
</g>
<g opacity="0.7">
<path opacity="0.7" d="M379.975 259.024H375.24V261.991H379.975V259.024Z" fill="black"/>
</g>
<g opacity="0.7">
<path opacity="0.7" d="M392.01 263.573H389.05V239.639H393.391V198.1H399.901V192.759H433.045V236.276H429.889V195.726H402.86V201.067H396.547V242.804H392.01V263.573Z" fill="black"/>
</g>
<g opacity="0.7">
<path opacity="0.7" d="M433.046 263.573H429.889V243.397H401.283V263.573H398.323V240.43H433.046V263.573Z" fill="black"/>
</g>
<g opacity="0.7">
<path opacity="0.7" d="M420.617 191.375H412.528V183.858H402.861V190.781H399.901V180.891H415.487V188.408H417.657V180.891H429.494V190.781H426.338V183.858H420.617V191.375Z" fill="black"/>
</g>
<g opacity="0.7">
<path opacity="0.7" d="M448.434 263.573H445.475V214.518H437.386V263.573H434.427V211.551H448.434V263.573Z" fill="black"/>
</g>
<g opacity="0.7">
<path opacity="0.7" d="M447.053 208.188H444.094V193.155H439.951V181.089H437.386V208.188H434.427V178.122H442.91V190.188H447.053V208.188Z" fill="black"/>
</g>
<g opacity="0.7">
<path opacity="0.7" d="M483.748 208.188H480.592V196.913H473.884V188.012L471.516 185.243V177.133H463.427V169.419H455.733V177.529H448.434V182.869H446.264V187.419H443.304V179.902H445.474V174.561H452.577V166.452H466.584V174.166H474.476V184.056L476.843 186.825V193.946H483.748V208.188Z" fill="black"/>
</g>
<g opacity="0.7">
<path opacity="0.7" d="M486.708 228.562H483.748V214.518H478.224V211.551H486.708V228.562Z" fill="black"/>
</g>
<g opacity="0.7">
<path opacity="0.7" d="M489.864 263.573H486.905V234.694H474.673V239.639H466.584V242.804H462.244V245.771H458.101V251.903H452.38V263.573H449.42V248.738H454.944V242.606H459.285V239.639H463.625V236.672H471.714V231.529H489.864V263.573Z" fill="black"/>
</g>
<g opacity="0.7">
<path opacity="0.7" d="M452.38 245.375H449.42V239.045H453.761V211.551H456.523V198.298H458.298V191.572L463.231 182.474L469.741 191.375V197.704H472.306V211.551H475.462V229.353H472.503V214.518H469.149V200.869H466.782V192.364L463.625 188.012L461.455 192.364V201.265H459.482V214.518H456.72V242.012H452.38V245.375Z" fill="black"/>
</g>
<g opacity="0.7">
<path opacity="0.7" d="M522.417 264.364H519.458V234.1H507.423V227.771H499.926V234.694H492.035V231.529H496.967V224.606H510.58V231.133H522.417V264.364Z" fill="black"/>
</g>
<g opacity="0.7">
<path opacity="0.7" d="M500.517 185.243H497.558V170.605H478.619V180.891H475.462V167.638H500.517V185.243Z" fill="black"/>
</g>
<g opacity="0.7">
<path opacity="0.7" d="M488.483 208.979H485.327V192.364H488.286V186.627H498.348V189.199H506.239V193.748H503.083V192.166H495.388V189.594H491.245V195.331H488.483V208.979Z" fill="black"/>
</g>
<g opacity="0.7">
<path opacity="0.7" d="M493.612 229.749H490.653V199.089H488.088V196.122H493.612V229.749Z" fill="black"/>
</g>
<g opacity="0.7">
<path opacity="0.7" d="M534.648 231.727H531.689V200.078H523.206V195.331H511.369V200.078H502.885V221.837H499.926V197.111H508.212V192.364H526.165V197.111H534.648V231.727Z" fill="black"/>
</g>
<g opacity="0.7">
<path opacity="0.7" d="M582.589 263.573H579.63V244.584H566.214V237.859H526.362V234.694H569.174V241.617H582.589V263.573Z" fill="black"/>
</g>
<g opacity="0.7">
<path opacity="0.7" d="M543.329 210.166H540.173V175.551H514.131V189.792H511.171V172.583H543.329V210.166Z" fill="black"/>
</g>
<g opacity="0.7">
<path opacity="0.7" d="M580.419 238.254H577.46V183.858H549.248V215.309H546.289V180.891H580.419V238.254Z" fill="black"/>
</g>
<g opacity="0.7">
<path opacity="0.7" d="M505.252 186.43H502.293V158.539H505.055V153.99H512.749V156.957H508.014V161.506H505.252V186.43Z" fill="black"/>
</g>
<g opacity="0.7">
<path opacity="0.7" d="M517.09 171.001H514.13V143.902H524.981V146.869H517.09V171.001Z" fill="black"/>
</g>
<g opacity="0.7">
<path opacity="0.7" d="M524.192 171.001H521.036V156.759H524.784V150.627H552.404V153.594H527.743V159.726H524.192V171.001Z" fill="black"/>
</g>
<g opacity="0.7">
<path opacity="0.7" d="M563.255 233.309H551.615L540.962 216.891H537.608V213.727H542.54L553.391 230.342H563.255V233.309Z" fill="black"/>
</g>
<g opacity="0.7">
<path opacity="0.7" d="M574.895 177.133H571.738V164.671H542.54V168.034H539.383V161.506H574.895V177.133Z" fill="black"/>
</g>
<g opacity="0.7">
<path opacity="0.7" d="M530.702 148.056H527.743V99.396H561.282V144.495H558.125V102.363H530.702V148.056Z" fill="black"/>
</g>
<g opacity="0.7">
<path opacity="0.7" d="M538.989 100.781H536.029V138.957H538.989V100.781Z" fill="black"/>
</g>
<g opacity="0.7">
<path opacity="0.7" d="M573.711 158.144H570.752V119.968H574.5V112.649H608.631V132.231H605.672V115.814H577.46V122.935H573.711V158.144Z" fill="black"/>
</g>
<g opacity="0.7">
<path opacity="0.7" d="M592.651 252.694H589.494V134.803H627.965V151.023H625.006V137.77H592.651V252.694Z" fill="black"/>
</g>
<g opacity="0.7">
<path opacity="0.7" d="M645.129 265.156H642.17V257.441H631.911V254.276H597.78V258.628H591.27V265.156H588.113V255.661H594.624V251.112H634.87V254.276H645.129V265.156Z" fill="black"/>
</g>
<g opacity="0.7">
<path opacity="0.7" d="M686.165 252.694H683.206V237.859H603.502V248.342H600.542V234.694H686.165V252.694Z" fill="black"/>
</g>
<g opacity="0.7">
<path opacity="0.7" d="M652.429 231.727H649.272V159.726H642.17V156.957H620.665V159.726H613.958V231.727H610.998V156.759H617.509V153.99H645.129V156.759H652.429V231.727Z" fill="black"/>
</g>
<g opacity="0.7">
<path opacity="0.7" d="M679.852 194.54H676.695V111.066H636.646V151.023H633.687V107.902H679.852V194.54Z" fill="black"/>
</g>
<g opacity="0.7">
<path opacity="0.7" d="M695.043 144.298H692.084V135.792H678.273V132.825H695.043V144.298Z" fill="black"/>
</g>
<g opacity="0.7">
<path opacity="0.7" d="M699.975 180.496H697.016V149.638H678.273V146.473H699.975V180.496Z" fill="black"/>
</g>
<g opacity="0.7">
<path opacity="0.7" d="M679.852 231.727H676.695V197.111H682.022V190.584H693.07V198.693H695.438V185.045H706.88V195.331H709.445V198.891H715.166V202.847H712.207V201.858H706.486V198.496H703.724V188.012H698.594V201.661H689.914V193.551H684.981V200.078H679.852V231.727Z" fill="black"/>
</g>
<g opacity="0.7">
<path opacity="0.7" d="M686.165 231.727H683.206V217.089H705.302V208.782H708.064V204.43H717.534V208.584H722.269V217.287H731.541V220.452H719.309V211.551H714.574V207.397H711.221V211.749H708.261V220.056H686.165V231.727Z" fill="black"/>
</g>
<g opacity="0.7">
<path opacity="0.7" d="M721.282 206.012H718.125V166.452H732.527V169.419H721.282V206.012Z" fill="black"/>
</g>
<g opacity="0.7">
<path opacity="0.7" d="M704.71 182.276H701.751V177.331H708.064V126.495H737.46V129.66H711.221V180.298H704.71V182.276Z" fill="black"/>
</g>
<g opacity="0.7">
<path opacity="0.7" d="M778.89 140.737H775.931V109.088H741.997V140.737H739.038V106.121H778.89V140.737Z" fill="black"/>
</g>
<g opacity="0.7">
<path opacity="0.7" d="M737.065 239.441H734.106V142.913H778.89V190.781H775.931V145.88H737.065V239.441Z" fill="black"/>
</g>
<g opacity="0.7">
<path opacity="0.7" d="M868.853 265.156H865.894V258.826H858.397V251.903H689.913V257.837H684.192V261.2H676.301V265.156H673.144V258.232H681.233V254.87H686.954V248.936H861.553V255.859H868.853V265.156Z" fill="black"/>
</g>
<g opacity="0.7">
<path opacity="0.7" d="M861.948 246.562H858.989V244.98H689.913V246.562H686.954V241.815H861.948V246.562Z" fill="black"/>
</g>
<g opacity="0.7">
<path opacity="0.7" d="M819.926 239.441H816.966V207.397H811.048V201.858H807.497V207.397H788.36V204.43H804.537V198.891H814.007V204.43H819.926V239.441Z" fill="black"/>
</g>
<g opacity="0.7">
<path opacity="0.7" d="M840.049 239.441H837.09V134.605H798.619V202.056H795.462V131.44H840.049V239.441Z" fill="black"/>
</g>
<g opacity="0.7">
<path opacity="0.7" d="M838.471 137.572H805.129V140.539H838.471V137.572Z" fill="black"/>
</g>
<g opacity="0.7">
<path opacity="0.7" d="M840.049 128.078H837.09V111.066H814.994V128.078H812.034V107.902H840.049V128.078Z" fill="black"/>
</g>
<g opacity="0.7">
<path opacity="0.7" d="M785.203 239.441H782.244V207.397H775.931V208.782H778.89V239.441H775.931V211.749H772.971V204.43H785.203V239.441Z" fill="black"/>
</g>
<g opacity="0.7">
<path opacity="0.7" d="M757.978 239.441H755.019V204.43H774.353V207.397H757.978V239.441Z" fill="black"/>
</g>
<g opacity="0.7">
<path opacity="0.7" d="M779.087 192.957H751.862V195.924H779.087V192.957Z" fill="black"/>
</g>
<g opacity="0.7">
<path opacity="0.7" d="M779.087 198.891H751.862V201.858H779.087V198.891Z" fill="black"/>
</g>
<g opacity="0.7">
<path opacity="0.7" d="M857.608 239.441H854.648V109.088H851.689V122.539H848.138V127.089H844.389V239.441H841.233V124.121H844.981V119.374H848.73V106.121H857.608V239.441Z" fill="black"/>
</g>
<g opacity="0.7">
<path opacity="0.7" d="M882.466 119.572H879.309V82.9783H886.412V73.6815H913.045V83.5717H921.134V111.264H917.978V86.5388H910.086V76.6486H889.568V85.9454H882.466V119.572Z" fill="black"/>
</g>
<g opacity="0.7">
<path opacity="0.7" d="M877.336 118.781H874.377V109.088H856.227V106.121H877.336V118.781Z" fill="black"/>
</g>
<g opacity="0.7">
<path opacity="0.7" d="M868.853 252.694H865.894V120.957H886.412V145.286H883.453V123.924H868.853V252.694Z" fill="black"/>
</g>
<g opacity="0.7">
<path opacity="0.7" d="M886.411 263.573H883.452V148.847H910.283V156.759H919.556V246.562H916.399V159.726H907.127V151.814H886.411V263.573Z" fill="black"/>
</g>
<g opacity="0.7">
<path opacity="0.7" d="M905.351 265.156H902.195V257.441H914.032V248.936H931.393V245.177H956.843V248.936H1023.72V243.595H1049.37V248.936H1056.28V263.573H1053.12V251.903H1046.41V246.562H1026.88V251.903H953.884V248.144H934.352V251.903H916.991V260.408H905.351V265.156Z" fill="black"/>
</g>
<g opacity="0.7">
<path opacity="0.7" d="M909.889 144.297H906.929V125.308H911.467V114.825H939.876V122.539H936.917V117.792H914.624V128.275H909.889V144.297Z" fill="black"/>
</g>
<g opacity="0.7">
<path opacity="0.7" d="M943.033 241.815H940.074V129.66H924.883V149.44H919.556V155.177H916.399V146.275H921.923V126.495H943.033V241.815Z" fill="black"/>
</g>
<g opacity="0.7">
<path opacity="0.7" d="M968.286 244.98H965.327V201.858H946.979V198.891H968.286V244.98Z" fill="black"/>
</g>
<g opacity="0.7">
<path opacity="0.7" d="M952.503 175.155H946.979V171.99H949.543V162.496H961.578V165.463H952.503V175.155Z" fill="black"/>
</g>
<g opacity="0.7">
<path opacity="0.7" d="M967.102 194.54H964.143V159.726H1021.95V185.045H1018.79V162.693H967.102V194.54Z" fill="black"/>
</g>
<g opacity="0.7">
<path opacity="0.7" d="M1004.59 155.177H1001.63V140.539H972.429V155.177H969.469V137.572H1004.59V155.177Z" fill="black"/>
</g>
<g opacity="0.7">
<path opacity="0.7" d="M994.525 138.957H991.566V150.232H994.525V138.957Z" fill="black"/>
</g>
<g opacity="0.7">
<path opacity="0.7" d="M1052.53 182.276H1049.57V162.693H1045.82V151.814H1032.8V162.693H1026.88V171.99H1023.72V159.726H1029.64V148.847H1048.78V159.726H1052.53V182.276Z" fill="black"/>
</g>
<g opacity="0.7">
<path opacity="0.7" d="M1054.7 193.353H1047.99V188.408H1044.83V185.243H1041.08V179.309H1025.3V176.342H1044.24V182.276H1047.79V185.441H1050.95V190.386H1054.7V193.353Z" fill="black"/>
</g>
<g opacity="0.7">
<path opacity="0.7" d="M1008.93 246.562H1005.97V195.726H1009.52V186.034H1039.7V190.386H1045.03V195.529H1066.34V239.441H1063.38V198.496H1042.07V193.353H1036.74V189.001H1012.68V198.891H1008.93V246.562Z" fill="black"/>
</g>
<g opacity="0.7">
<path opacity="0.7" d="M1091.79 235.881H1088.83V188.408H1066.34V191.968H1063.38V185.441H1091.79V235.881Z" fill="black"/>
</g>
<g opacity="0.7">
<path opacity="0.7" d="M1142.89 207.001H1139.73V205.419H1136.18V199.682H1129.86V191.77H1118.42V197.309H1096.72V189.001H1094.35V186.034H1099.88V194.342H1115.46V188.803H1133.02V196.715H1139.14V202.254H1142.89V207.001Z" fill="black"/>
</g>
<g opacity="0.7">
<path opacity="0.7" d="M1113.69 189.99H1110.73V186.43H1102.44V177.528H1091.79V182.276H1088.83V174.561H1105.4V183.265H1113.69V189.99Z" fill="black"/>
</g>
<g opacity="0.7">
<path opacity="0.7" d="M1088.04 168.825H1085.08V142.913H1088.83V139.155H1102.84V155.177H1099.68V142.319H1091.79V145.88H1088.04V168.825Z" fill="black"/>
</g>
<g opacity="0.7">
<path opacity="0.7" d="M1109.94 177.726H1106.98V165.462H1103.63V161.506H1102.84V165.462H1095.73V170.803H1092.77V162.495H1099.68V158.342H1106.58V162.495H1109.94V177.726Z" fill="black"/>
</g>
<g opacity="0.7">
<path opacity="0.7" d="M1122.17 185.045H1119.01V175.155H1116.25V162.693H1110.73V156.166H1106.98V151.814H1105.4V148.847H1109.94V153.199H1113.69V159.726H1119.41V171.99H1122.17V185.045Z" fill="black"/>
</g>
<g opacity="0.7">
<path opacity="0.7" d="M1122.17 235.881H1119.01V209.968H1142.89V229.749H1139.73V212.935H1122.17V235.881Z" fill="black"/>
</g>
<g opacity="0.7">
<path opacity="0.7" d="M1153.34 263.573H1150.38V243.397H1139.73V235.881H1128.88V241.815H1125.92V232.914H1142.89V240.43H1153.34V263.573Z" fill="black"/>
</g>
<g opacity="0.7">
<path opacity="0.7" d="M1148.41 263.573H1145.45V250.518H1131.05V247.551H1148.41V263.573Z" fill="black"/>
</g>
<g opacity="0.7">
<path opacity="0.7" d="M1079.16 263.573H1076V248.144H1067.92V256.65H1061.8V263.573H1058.84V253.485H1064.96V245.177H1079.16V263.573Z" fill="black"/>
</g>
<g opacity="0.7">
<path opacity="0.7" d="M1114.48 263.573H1111.52V254.276H1087.05V263.573H1084.09V251.112H1114.48V263.573Z" fill="black"/>
</g>
<g opacity="0.7">
<path opacity="0.7" d="M1087.05 248.936H1084.09V240.43H1099.28V245.177H1105.4V248.144H1096.13V243.397H1087.05V248.936Z" fill="black"/>
</g>
<g opacity="0.7">
<path opacity="0.7" d="M1127.69 263.573H1124.73V248.145H1120.59V243.397H1111.91V248.936H1108.95V240.43H1123.55V245.177H1127.69V263.573Z" fill="black"/>
</g>
<g opacity="0.7">
<path opacity="0.7" d="M550.431 159.331L558.717 151.023L567.201 159.528L550.431 159.331Z" fill="black"/>
</g>
<g opacity="0.7">
<path opacity="0.7" d="M1058.45 187.617L1055.29 187.419L1066.34 45H1069.69L1085.47 182.671L1082.32 183.067L1068.31 61.8133L1058.45 187.617Z" fill="black"/>
</g>
<g opacity="0.7">
<path opacity="0.7" d="M1070.68 156.759H1067.52V96.429H1064.17V93.2642H1070.68V156.759Z" fill="black"/>
</g>
<g opacity="0.7">
<path opacity="0.7" d="M1076.6 109.088H1074.23V182.276H1076.6V109.088Z" fill="black"/>
</g>
<g opacity="0.7">
<path opacity="0.7" d="M1038.13 145.682L1042.07 140.737L1046.21 145.682H1038.13Z" fill="black"/>
</g>
<g opacity="0.7">
<path opacity="0.7" d="M826.831 88.7146H825.252V104.935H826.831V88.7146Z" fill="black"/>
</g>
<g opacity="0.7">
<path opacity="0.7" d="M831.171 88.7146H829.593V104.935H831.171V88.7146Z" fill="black"/>
</g>
<g opacity="0.7">
<path opacity="0.7" d="M893.711 79.8135H891.344V144.298H893.711V79.8135Z" fill="black"/>
</g>
<g opacity="0.7">
<path opacity="0.7" d="M900.025 79.8135H897.657V144.693H900.025V79.8135Z" fill="black"/>
</g>
<g opacity="0.7">
<path opacity="0.7" d="M905.351 79.8135H902.984V144.298H905.351V79.8135Z" fill="black"/>
</g>
<g opacity="0.7">
<path opacity="0.7" d="M929.223 133.023H927.645V237.067H929.223V133.023Z" fill="black"/>
</g>
<g opacity="0.7">
<path opacity="0.7" d="M937.509 154.385H923.502V155.968H937.509V154.385Z" fill="black"/>
</g>
<g opacity="0.7">
<path opacity="0.7" d="M937.509 161.704H923.502V163.287H937.509V161.704Z" fill="black"/>
</g>
<g opacity="0.7">
<path opacity="0.7" d="M937.509 170.012H923.502V171.594H937.509V170.012Z" fill="black"/>
</g>
<g opacity="0.7">
<path opacity="0.7" d="M937.509 176.935H923.502V178.518H937.509V176.935Z" fill="black"/>
</g>
<g opacity="0.7">
<path opacity="0.7" d="M937.509 198.891H923.502V200.474H937.509V198.891Z" fill="black"/>
</g>
<g opacity="0.7">
<path opacity="0.7" d="M937.509 205.221H923.502V206.803H937.509V205.221Z" fill="black"/>
</g>
<g opacity="0.7">
<path opacity="0.7" d="M937.509 212.935H923.502V214.518H937.509V212.935Z" fill="black"/>
</g>
<g opacity="0.7">
<path opacity="0.7" d="M937.509 220.65H923.502V222.232H937.509V220.65Z" fill="black"/>
</g>
<g opacity="0.7">
<path opacity="0.7" d="M896.671 161.111H895.092V244.979H896.671V161.111Z" fill="black"/>
</g>
<g opacity="0.7">
<path opacity="0.7" d="M912.848 165.858H891.738V167.441H912.848V165.858Z" fill="black"/>
</g>
<g opacity="0.7">
<path opacity="0.7" d="M912.848 172.781H891.738V174.364H912.848V172.781Z" fill="black"/>
</g>
<g opacity="0.7">
<path opacity="0.7" d="M912.848 180.1H891.738V181.682H912.848V180.1Z" fill="black"/>
</g>
<g opacity="0.7">
<path opacity="0.7" d="M912.848 187.814H891.738V189.397H912.848V187.814Z" fill="black"/>
</g>
<g opacity="0.7">
<path opacity="0.7" d="M914.426 209.573H893.317V211.155H914.426V209.573Z" fill="black"/>
</g>
<g opacity="0.7">
<path opacity="0.7" d="M914.426 216.694H893.317V218.276H914.426V216.694Z" fill="black"/>
</g>
<g opacity="0.7">
<path opacity="0.7" d="M914.426 223.815H893.317V225.397H914.426V223.815Z" fill="black"/>
</g>
<g opacity="0.7">
<path opacity="0.7" d="M914.426 231.727H893.317V233.309H914.426V231.727Z" fill="black"/>
</g>
<g opacity="0.7">
<path opacity="0.7" d="M406.412 201.067H404.833V237.265H406.412V201.067Z" fill="black"/>
</g>
<g opacity="0.7">
<path opacity="0.7" d="M410.358 201.067H408.779V237.265H410.358V201.067Z" fill="black"/>
</g>
<g opacity="0.7">
<path opacity="0.7" d="M414.106 201.067H412.527V237.265H414.106V201.067Z" fill="black"/>
</g>
<g opacity="0.7">
<path opacity="0.7" d="M417.854 201.067H416.276V237.265H417.854V201.067Z" fill="black"/>
</g>
<g opacity="0.7">
<path opacity="0.7" d="M421.8 201.067H420.222V237.265H421.8V201.067Z" fill="black"/>
</g>
<g opacity="0.7">
<path opacity="0.7" d="M425.549 201.067H423.97V237.265H425.549V201.067Z" fill="black"/>
</g>
<g opacity="0.7">
<path opacity="0.7" d="M409.569 245.969H404.833V247.551H409.569V245.969Z" fill="black"/>
</g>
<g opacity="0.7">
<path opacity="0.7" d="M417.262 245.969H412.527V247.551H417.262V245.969Z" fill="black"/>
</g>
<g opacity="0.7">
<path opacity="0.7" d="M424.76 245.969H420.025V247.551H424.76V245.969Z" fill="black"/>
</g>
<g opacity="0.7">
<path opacity="0.7" d="M409.569 249.529H404.833V251.111H409.569V249.529Z" fill="black"/>
</g>
<g opacity="0.7">
<path opacity="0.7" d="M417.262 249.529H412.527V251.111H417.262V249.529Z" fill="black"/>
</g>
<g opacity="0.7">
<path opacity="0.7" d="M424.76 249.529H420.025V251.111H424.76V249.529Z" fill="black"/>
</g>
<g opacity="0.7">
<path opacity="0.7" d="M409.569 253.287H404.833V254.87H409.569V253.287Z" fill="black"/>
</g>
<g opacity="0.7">
<path opacity="0.7" d="M417.262 253.287H412.527V254.87H417.262V253.287Z" fill="black"/>
</g>
<g opacity="0.7">
<path opacity="0.7" d="M424.76 253.287H420.025V254.87H424.76V253.287Z" fill="black"/>
</g>
<g opacity="0.7">
<path opacity="0.7" d="M409.569 256.848H404.833V258.43H409.569V256.848Z" fill="black"/>
</g>
<g opacity="0.7">
<path opacity="0.7" d="M417.262 256.848H412.527V258.43H417.262V256.848Z" fill="black"/>
</g>
<g opacity="0.7">
<path opacity="0.7" d="M424.76 256.848H420.025V258.43H424.76V256.848Z" fill="black"/>
</g>
<g opacity="0.7">
<path opacity="0.7" d="M441.331 216.694H438.372V219.067H441.331V216.694Z" fill="black"/>
</g>
<g opacity="0.7">
<path opacity="0.7" d="M441.331 221.243H438.372V223.617H441.331V221.243Z" fill="black"/>
</g>
<g opacity="0.7">
<path opacity="0.7" d="M441.331 225.793H438.372V228.166H441.331V225.793Z" fill="black"/>
</g>
<g opacity="0.7">
<path opacity="0.7" d="M441.331 232.518H438.372V234.892H441.331V232.518Z" fill="black"/>
</g>
<g opacity="0.7">
<path opacity="0.7" d="M441.331 237.067H438.372V239.441H441.331V237.067Z" fill="black"/>
</g>
<g opacity="0.7">
<path opacity="0.7" d="M441.331 241.419H438.372V243.793H441.331V241.419Z" fill="black"/>
</g>
<g opacity="0.7">
<path opacity="0.7" d="M441.331 249.529H438.372V251.903H441.331V249.529Z" fill="black"/>
</g>
<g opacity="0.7">
<path opacity="0.7" d="M441.331 254.078H438.372V256.452H441.331V254.078Z" fill="black"/>
</g>
<g opacity="0.7">
<path opacity="0.7" d="M441.331 258.628H438.372V261.002H441.331V258.628Z" fill="black"/>
</g>
<g opacity="0.7">
<path opacity="0.7" d="M450.407 180.891H449.618V188.012H450.407V180.891Z" fill="black"/>
</g>
<g opacity="0.7">
<path opacity="0.7" d="M450.407 190.583H449.618V197.704H450.407V190.583Z" fill="black"/>
</g>
<g opacity="0.7">
<path opacity="0.7" d="M450.407 201.858H449.618V208.979H450.407V201.858Z" fill="black"/>
</g>
<g opacity="0.7">
<path opacity="0.7" d="M450.407 213.727H449.618V220.847H450.407V213.727Z" fill="black"/>
</g>
<g opacity="0.7">
<path opacity="0.7" d="M450.407 225.595H449.618V232.716H450.407V225.595Z" fill="black"/>
</g>
<g opacity="0.7">
<path opacity="0.7" d="M453.169 180.891H452.38V188.012H453.169V180.891Z" fill="black"/>
</g>
<g opacity="0.7">
<path opacity="0.7" d="M456.128 180.891H455.339V188.012H456.128V180.891Z" fill="black"/>
</g>
<g opacity="0.7">
<path opacity="0.7" d="M459.087 180.891H458.298V188.012H459.087V180.891Z" fill="black"/>
</g>
<g opacity="0.7">
<path opacity="0.7" d="M469.543 180.891H468.754V188.012H469.543V180.891Z" fill="black"/>
</g>
<g opacity="0.7">
<path opacity="0.7" d="M474.278 201.067H473.489V208.188H474.278V201.067Z" fill="black"/>
</g>
<g opacity="0.7">
<path opacity="0.7" d="M477.238 201.067H476.449V208.188H477.238V201.067Z" fill="black"/>
</g>
<g opacity="0.7">
<path opacity="0.7" d="M453.169 190.583H452.38V197.704H453.169V190.583Z" fill="black"/>
</g>
<g opacity="0.7">
<path opacity="0.7" d="M453.169 201.858H452.38V208.979H453.169V201.858Z" fill="black"/>
</g>
<g opacity="0.7">
<path opacity="0.7" d="M463.231 203.836H461.652V233.705H463.231V203.836Z" fill="black"/>
</g>
<g opacity="0.7">
<path opacity="0.7" d="M468.163 203.836H466.584V225.595H468.163V203.836Z" fill="black"/>
</g>
<g opacity="0.7">
<path opacity="0.7" d="M481.775 217.089H477.041V218.672H481.775V217.089Z" fill="black"/>
</g>
<g opacity="0.7">
<path opacity="0.7" d="M481.775 220.056H477.041V221.639H481.775V220.056Z" fill="black"/>
</g>
<g opacity="0.7">
<path opacity="0.7" d="M481.775 223.023H477.041V224.606H481.775V223.023Z" fill="black"/>
</g>
<g opacity="0.7">
<path opacity="0.7" d="M481.775 225.99H477.041V227.573H481.775V225.99Z" fill="black"/>
</g>
<g opacity="0.7">
<path opacity="0.7" d="M484.537 241.023H469.149V242.606H484.537V241.023Z" fill="black"/>
</g>
<g opacity="0.7">
<path opacity="0.7" d="M484.537 244.584H465.006V246.166H484.537V244.584Z" fill="black"/>
</g>
<g opacity="0.7">
<path opacity="0.7" d="M484.538 248.54H460.666V250.123H484.538V248.54Z" fill="black"/>
</g>
<g opacity="0.7">
<path opacity="0.7" d="M484.537 252.1H459.876V253.683H484.537V252.1Z" fill="black"/>
</g>
<g opacity="0.7">
<path opacity="0.7" d="M484.538 255.661H455.734V257.243H484.538V255.661Z" fill="black"/>
</g>
<g opacity="0.7">
<path opacity="0.7" d="M484.538 259.024H455.734V260.606H484.538V259.024Z" fill="black"/>
</g>
<g opacity="0.7">
<path opacity="0.7" d="M482.17 177.133H479.803V181.484H482.17V177.133Z" fill="black"/>
</g>
<g opacity="0.7">
<path opacity="0.7" d="M486.51 177.133H484.143V181.484H486.51V177.133Z" fill="black"/>
</g>
<g opacity="0.7">
<path opacity="0.7" d="M490.851 177.133H488.483V181.484H490.851V177.133Z" fill="black"/>
</g>
<g opacity="0.7">
<path opacity="0.7" d="M495.191 177.133H492.824V181.484H495.191V177.133Z" fill="black"/>
</g>
<g opacity="0.7">
<path opacity="0.7" d="M534.056 241.419H527.151V243.793H534.056V241.419Z" fill="black"/>
</g>
<g opacity="0.7">
<path opacity="0.7" d="M545.302 241.419H538.397V243.793H545.302V241.419Z" fill="black"/>
</g>
<g opacity="0.7">
<path opacity="0.7" d="M555.955 241.419H549.05V243.793H555.955V241.419Z" fill="black"/>
</g>
<g opacity="0.7">
<path opacity="0.7" d="M534.254 246.364H527.349V248.738H534.254V246.364Z" fill="black"/>
</g>
<g opacity="0.7">
<path opacity="0.7" d="M545.302 246.364H538.397V248.738H545.302V246.364Z" fill="black"/>
</g>
<g opacity="0.7">
<path opacity="0.7" d="M556.153 246.364H549.248V248.738H556.153V246.364Z" fill="black"/>
</g>
<g opacity="0.7">
<path opacity="0.7" d="M534.451 251.309H527.546V253.683H534.451V251.309Z" fill="black"/>
</g>
<g opacity="0.7">
<path opacity="0.7" d="M545.499 251.309H538.594V253.683H545.499V251.309Z" fill="black"/>
</g>
<g opacity="0.7">
<path opacity="0.7" d="M556.35 251.309H549.445V253.683H556.35V251.309Z" fill="black"/>
</g>
<g opacity="0.7">
<path opacity="0.7" d="M534.648 256.057H527.743V258.43H534.648V256.057Z" fill="black"/>
</g>
<g opacity="0.7">
<path opacity="0.7" d="M545.697 256.057H538.792V258.43H545.697V256.057Z" fill="black"/>
</g>
<g opacity="0.7">
<path opacity="0.7" d="M556.547 256.057H549.642V258.43H556.547V256.057Z" fill="black"/>
</g>
<g opacity="0.7">
<path opacity="0.7" d="M529.124 202.65H504.661V205.023H529.124V202.65Z" fill="black"/>
</g>
<g opacity="0.7">
<path opacity="0.7" d="M529.124 207.792H504.661V210.166H529.124V207.792Z" fill="black"/>
</g>
<g opacity="0.7">
<path opacity="0.7" d="M529.124 213.133H504.661V215.507H529.124V213.133Z" fill="black"/>
</g>
<g opacity="0.7">
<path opacity="0.7" d="M529.124 218.474H504.661V220.848H529.124V218.474Z" fill="black"/>
</g>
<g opacity="0.7">
<path opacity="0.7" d="M538.2 179.704H516.893V182.078H538.2V179.704Z" fill="black"/>
</g>
<g opacity="0.7">
<path opacity="0.7" d="M538.002 184.056H516.695V186.43H538.002V184.056Z" fill="black"/>
</g>
<g opacity="0.7">
<path opacity="0.7" d="M537.805 188.408H516.498V190.781H537.805V188.408Z" fill="black"/>
</g>
<g opacity="0.7">
<path opacity="0.7" d="M556.153 185.243H550.431V187.617H556.153V185.243Z" fill="black"/>
</g>
<g opacity="0.7">
<path opacity="0.7" d="M553.391 167.836H547.669V170.21H553.391V167.836Z" fill="black"/>
</g>
<g opacity="0.7">
<path opacity="0.7" d="M536.029 155.572H530.308V157.946H536.029V155.572Z" fill="black"/>
</g>
<g opacity="0.7">
<path opacity="0.7" d="M545.894 155.572H540.173V157.946H545.894V155.572Z" fill="black"/>
</g>
<g opacity="0.7">
<path opacity="0.7" d="M536.029 159.726H530.308V162.1H536.029V159.726Z" fill="black"/>
</g>
<g opacity="0.7">
<path opacity="0.7" d="M535.832 164.276H530.111V166.649H535.832V164.276Z" fill="black"/>
</g>
<g opacity="0.7">
<path opacity="0.7" d="M535.832 167.836H530.111V170.21H535.832V167.836Z" fill="black"/>
</g>
<g opacity="0.7">
<path opacity="0.7" d="M561.677 167.836H555.956V170.21H561.677V167.836Z" fill="black"/>
</g>
<g opacity="0.7">
<path opacity="0.7" d="M553.391 173.77H547.669V176.144H553.391V173.77Z" fill="black"/>
</g>
<g opacity="0.7">
<path opacity="0.7" d="M561.874 173.77H556.153V176.144H561.874V173.77Z" fill="black"/>
</g>
<g opacity="0.7">
<path opacity="0.7" d="M570.16 167.836H564.439V170.21H570.16V167.836Z" fill="black"/>
</g>
<g opacity="0.7">
<path opacity="0.7" d="M556.153 191.573H550.431V193.946H556.153V191.573Z" fill="black"/>
</g>
<g opacity="0.7">
<path opacity="0.7" d="M556.153 198.1H550.431V200.474H556.153V198.1Z" fill="black"/>
</g>
<g opacity="0.7">
<path opacity="0.7" d="M556.153 205.023H550.431V207.397H556.153V205.023Z" fill="black"/>
</g>
<g opacity="0.7">
<path opacity="0.7" d="M565.425 198.1H559.704V200.474H565.425V198.1Z" fill="black"/>
</g>
<g opacity="0.7">
<path opacity="0.7" d="M563.25 204.982L557.529 205.07L557.566 207.444L563.287 207.355L563.25 204.982Z" fill="black"/>
</g>
<g opacity="0.7">
<path opacity="0.7" d="M563.248 210.125L557.527 210.213L557.565 212.587L563.285 212.498L563.248 210.125Z" fill="black"/>
</g>
<g opacity="0.7">
<path opacity="0.7" d="M555.75 216.651L550.03 216.739L550.067 219.112L555.788 219.024L555.75 216.651Z" fill="black"/>
</g>
<g opacity="0.7">
<path opacity="0.7" d="M574.099 210.122L568.378 210.21L568.415 212.584L574.136 212.496L574.099 210.122Z" fill="black"/>
</g>
<g opacity="0.7">
<path opacity="0.7" d="M572.323 217.442L566.603 217.53L566.64 219.904L572.361 219.816L572.323 217.442Z" fill="black"/>
</g>
<g opacity="0.7">
<path opacity="0.7" d="M572.322 223.377L566.602 223.465L566.639 225.838L572.36 225.75L572.322 223.377Z" fill="black"/>
</g>
<g opacity="0.7">
<path opacity="0.7" d="M564.628 223.375L558.907 223.464L558.945 225.837L564.666 225.749L564.628 223.375Z" fill="black"/>
</g>
<g opacity="0.7">
<path opacity="0.7" d="M574.698 198.1H568.977V200.474H574.698V198.1Z" fill="black"/>
</g>
<g opacity="0.7">
<path opacity="0.7" d="M563.255 185.243H557.534V187.617H563.255V185.243Z" fill="black"/>
</g>
<g opacity="0.7">
<path opacity="0.7" d="M572.33 191.573H566.609V193.946H572.33V191.573Z" fill="black"/>
</g>
<g opacity="0.7">
<path opacity="0.7" d="M582.195 122.539H580.616V126.891H582.195V122.539Z" fill="black"/>
</g>
<g opacity="0.7">
<path opacity="0.7" d="M582.195 129.067H580.616V133.418H582.195V129.067Z" fill="black"/>
</g>
<g opacity="0.7">
<path opacity="0.7" d="M582.195 135.396H580.616V139.748H582.195V135.396Z" fill="black"/>
</g>
<g opacity="0.7">
<path opacity="0.7" d="M582.195 141.924H580.616V146.276H582.195V141.924Z" fill="black"/>
</g>
<g opacity="0.7">
<path opacity="0.7" d="M582.195 148.451H580.616V152.803H582.195V148.451Z" fill="black"/>
</g>
<g opacity="0.7">
<path opacity="0.7" d="M582.195 154.979H580.616V159.33H582.195V154.979Z" fill="black"/>
</g>
<g opacity="0.7">
<path opacity="0.7" d="M582.195 161.506H580.616V165.858H582.195V161.506Z" fill="black"/>
</g>
<g opacity="0.7">
<path opacity="0.7" d="M582.195 168.034H580.616V172.386H582.195V168.034Z" fill="black"/>
</g>
<g opacity="0.7">
<path opacity="0.7" d="M587.127 122.539H585.548V126.891H587.127V122.539Z" fill="black"/>
</g>
<g opacity="0.7">
<path opacity="0.7" d="M587.127 129.067H585.548V133.418H587.127V129.067Z" fill="black"/>
</g>
<g opacity="0.7">
<path opacity="0.7" d="M591.467 122.539H589.889V126.891H591.467V122.539Z" fill="black"/>
</g>
<g opacity="0.7">
<path opacity="0.7" d="M591.467 129.067H589.889V133.418H591.467V129.067Z" fill="black"/>
</g>
<g opacity="0.7">
<path opacity="0.7" d="M595.807 122.539H594.229V126.891H595.807V122.539Z" fill="black"/>
</g>
<g opacity="0.7">
<path opacity="0.7" d="M595.807 129.067H594.229V133.418H595.807V129.067Z" fill="black"/>
</g>
<g opacity="0.7">
<path opacity="0.7" d="M600.542 122.539H598.964V126.891H600.542V122.539Z" fill="black"/>
</g>
<g opacity="0.7">
<path opacity="0.7" d="M600.542 129.067H598.964V133.418H600.542V129.067Z" fill="black"/>
</g>
<g opacity="0.7">
<path opacity="0.7" d="M587.127 135.396H585.548V139.748H587.127V135.396Z" fill="black"/>
</g>
<g opacity="0.7">
<path opacity="0.7" d="M587.127 141.924H585.548V146.276H587.127V141.924Z" fill="black"/>
</g>
<g opacity="0.7">
<path opacity="0.7" d="M587.127 148.451H585.548V152.803H587.127V148.451Z" fill="black"/>
</g>
<g opacity="0.7">
<path opacity="0.7" d="M587.127 154.979H585.548V159.33H587.127V154.979Z" fill="black"/>
</g>
<g opacity="0.7">
<path opacity="0.7" d="M587.127 161.506H585.548V165.858H587.127V161.506Z" fill="black"/>
</g>
<g opacity="0.7">
<path opacity="0.7" d="M587.127 168.034H585.548V172.386H587.127V168.034Z" fill="black"/>
</g>
<g opacity="0.7">
<path opacity="0.7" d="M599.359 140.539H597.78V144.891H599.359V140.539Z" fill="black"/>
</g>
<g opacity="0.7">
<path opacity="0.7" d="M599.359 147.067H597.78V151.418H599.359V147.067Z" fill="black"/>
</g>
<g opacity="0.7">
<path opacity="0.7" d="M599.359 153.594H597.78V157.946H599.359V153.594Z" fill="black"/>
</g>
<g opacity="0.7">
<path opacity="0.7" d="M599.359 159.924H597.78V164.276H599.359V159.924Z" fill="black"/>
</g>
<g opacity="0.7">
<path opacity="0.7" d="M599.359 166.452H597.78V170.803H599.359V166.452Z" fill="black"/>
</g>
<g opacity="0.7">
<path opacity="0.7" d="M599.359 172.979H597.78V177.331H599.359V172.979Z" fill="black"/>
</g>
<g opacity="0.7">
<path opacity="0.7" d="M599.359 179.506H597.78V183.858H599.359V179.506Z" fill="black"/>
</g>
<g opacity="0.7">
<path opacity="0.7" d="M599.359 186.034H597.78V190.386H599.359V186.034Z" fill="black"/>
</g>
<g opacity="0.7">
<path opacity="0.7" d="M599.359 193.155H597.78V197.507H599.359V193.155Z" fill="black"/>
</g>
<g opacity="0.7">
<path opacity="0.7" d="M599.359 199.683H597.78V204.034H599.359V199.683Z" fill="black"/>
</g>
<g opacity="0.7">
<path opacity="0.7" d="M604.291 193.155H602.712V197.507H604.291V193.155Z" fill="black"/>
</g>
<g opacity="0.7">
<path opacity="0.7" d="M604.291 199.683H602.712V204.034H604.291V199.683Z" fill="black"/>
</g>
<g opacity="0.7">
<path opacity="0.7" d="M599.556 206.21H597.978V210.562H599.556V206.21Z" fill="black"/>
</g>
<g opacity="0.7">
<path opacity="0.7" d="M604.291 206.21H602.712V210.562H604.291V206.21Z" fill="black"/>
</g>
<g opacity="0.7">
<path opacity="0.7" d="M604.291 140.539H602.712V144.891H604.291V140.539Z" fill="black"/>
</g>
<g opacity="0.7">
<path opacity="0.7" d="M604.291 147.067H602.712V151.418H604.291V147.067Z" fill="black"/>
</g>
<g opacity="0.7">
<path opacity="0.7" d="M604.291 153.594H602.712V157.946H604.291V153.594Z" fill="black"/>
</g>
<g opacity="0.7">
<path opacity="0.7" d="M607.842 140.539H606.264V144.891H607.842V140.539Z" fill="black"/>
</g>
<g opacity="0.7">
<path opacity="0.7" d="M607.842 147.067H606.264V151.418H607.842V147.067Z" fill="black"/>
</g>
<g opacity="0.7">
<path opacity="0.7" d="M611.59 140.539H610.012V144.891H611.59V140.539Z" fill="black"/>
</g>
<g opacity="0.7">
<path opacity="0.7" d="M611.59 147.067H610.012V151.418H611.59V147.067Z" fill="black"/>
</g>
<g opacity="0.7">
<path opacity="0.7" d="M615.142 140.539H613.563V144.891H615.142V140.539Z" fill="black"/>
</g>
<g opacity="0.7">
<path opacity="0.7" d="M615.142 147.067H613.563V151.418H615.142V147.067Z" fill="black"/>
</g>
<g opacity="0.7">
<path opacity="0.7" d="M618.693 140.539H617.115V144.891H618.693V140.539Z" fill="black"/>
</g>
<g opacity="0.7">
<path opacity="0.7" d="M618.693 147.067H617.115V151.418H618.693V147.067Z" fill="black"/>
</g>
<g opacity="0.7">
<path opacity="0.7" d="M622.047 140.539H620.468V144.891H622.047V140.539Z" fill="black"/>
</g>
<g opacity="0.7">
<path opacity="0.7" d="M622.047 147.067H620.468V151.418H622.047V147.067Z" fill="black"/>
</g>
<g opacity="0.7">
<path opacity="0.7" d="M607.842 153.594H606.264V157.946H607.842V153.594Z" fill="black"/>
</g>
<g opacity="0.7">
<path opacity="0.7" d="M604.291 159.924H602.712V164.276H604.291V159.924Z" fill="black"/>
</g>
<g opacity="0.7">
<path opacity="0.7" d="M604.291 166.452H602.712V170.803H604.291V166.452Z" fill="black"/>
</g>
<g opacity="0.7">
<path opacity="0.7" d="M604.291 172.979H602.712V177.331H604.291V172.979Z" fill="black"/>
</g>
<g opacity="0.7">
<path opacity="0.7" d="M604.291 179.506H602.712V183.858H604.291V179.506Z" fill="black"/>
</g>
<g opacity="0.7">
<path opacity="0.7" d="M604.291 186.034H602.712V190.386H604.291V186.034Z" fill="black"/>
</g>
<g opacity="0.7">
<path opacity="0.7" d="M607.645 216.1H594.624V217.683H607.645V216.1Z" fill="black"/>
</g>
<g opacity="0.7">
<path opacity="0.7" d="M607.645 221.243H594.624V222.826H607.645V221.243Z" fill="black"/>
</g>
<g opacity="0.7">
<path opacity="0.7" d="M607.645 225.397H594.624V226.979H607.645V225.397Z" fill="black"/>
</g>
<g opacity="0.7">
<path opacity="0.7" d="M607.645 230.342H594.624V231.925H607.645V230.342Z" fill="black"/>
</g>
<g opacity="0.7">
<path opacity="0.7" d="M622.244 162.693H616.72V165.858H622.244V162.693Z" fill="black"/>
</g>
<g opacity="0.7">
<path opacity="0.7" d="M630.136 162.693H624.612V165.858H630.136V162.693Z" fill="black"/>
</g>
<g opacity="0.7">
<path opacity="0.7" d="M638.027 162.693H632.503V165.858H638.027V162.693Z" fill="black"/>
</g>
<g opacity="0.7">
<path opacity="0.7" d="M646.116 162.693H640.592V165.858H646.116V162.693Z" fill="black"/>
</g>
<g opacity="0.7">
<path opacity="0.7" d="M622.244 167.045H616.72V170.21H622.244V167.045Z" fill="black"/>
</g>
<g opacity="0.7">
<path opacity="0.7" d="M630.136 167.045H624.612V170.21H630.136V167.045Z" fill="black"/>
</g>
<g opacity="0.7">
<path opacity="0.7" d="M638.027 167.045H632.503V170.21H638.027V167.045Z" fill="black"/>
</g>
<g opacity="0.7">
<path opacity="0.7" d="M646.116 167.045H640.592V170.21H646.116V167.045Z" fill="black"/>
</g>
<g opacity="0.7">
<path opacity="0.7" d="M622.244 171.594H616.72V174.759H622.244V171.594Z" fill="black"/>
</g>
<g opacity="0.7">
<path opacity="0.7" d="M630.136 171.594H624.612V174.759H630.136V171.594Z" fill="black"/>
</g>
<g opacity="0.7">
<path opacity="0.7" d="M638.027 171.594H632.503V174.759H638.027V171.594Z" fill="black"/>
</g>
<g opacity="0.7">
<path opacity="0.7" d="M646.116 171.594H640.592V174.759H646.116V171.594Z" fill="black"/>
</g>
<g opacity="0.7">
<path opacity="0.7" d="M647.497 112.649H641.973V115.814H647.497V112.649Z" fill="black"/>
</g>
<g opacity="0.7">
<path opacity="0.7" d="M655.585 112.649H650.062V115.814H655.585V112.649Z" fill="black"/>
</g>
<g opacity="0.7">
<path opacity="0.7" d="M663.477 112.649H657.953V115.814H663.477V112.649Z" fill="black"/>
</g>
<g opacity="0.7">
<path opacity="0.7" d="M671.369 112.649H665.844V115.814H671.369V112.649Z" fill="black"/>
</g>
<g opacity="0.7">
<path opacity="0.7" d="M647.497 117.001H641.973V120.165H647.497V117.001Z" fill="black"/>
</g>
<g opacity="0.7">
<path opacity="0.7" d="M655.585 117.001H650.062V120.165H655.585V117.001Z" fill="black"/>
</g>
<g opacity="0.7">
<path opacity="0.7" d="M663.477 117.001H657.953V120.165H663.477V117.001Z" fill="black"/>
</g>
<g opacity="0.7">
<path opacity="0.7" d="M671.369 117.001H665.844V120.165H671.369V117.001Z" fill="black"/>
</g>
<g opacity="0.7">
<path opacity="0.7" d="M647.497 121.55H641.973V124.715H647.497V121.55Z" fill="black"/>
</g>
<g opacity="0.7">
<path opacity="0.7" d="M655.585 121.55H650.062V124.715H655.585V121.55Z" fill="black"/>
</g>
<g opacity="0.7">
<path opacity="0.7" d="M663.477 121.55H657.953V124.715H663.477V121.55Z" fill="black"/>
</g>
<g opacity="0.7">
<path opacity="0.7" d="M671.369 121.55H665.844V124.715H671.369V121.55Z" fill="black"/>
</g>
<g opacity="0.7">
<path opacity="0.7" d="M646.313 133.22H640.789V136.385H646.313V133.22Z" fill="black"/>
</g>
<g opacity="0.7">
<path opacity="0.7" d="M654.402 133.22H648.878V136.385H654.402V133.22Z" fill="black"/>
</g>
<g opacity="0.7">
<path opacity="0.7" d="M662.293 133.22H656.769V136.385H662.293V133.22Z" fill="black"/>
</g>
<g opacity="0.7">
<path opacity="0.7" d="M670.185 133.22H664.66V136.385H670.185V133.22Z" fill="black"/>
</g>
<g opacity="0.7">
<path opacity="0.7" d="M646.313 137.77H640.789V140.935H646.313V137.77Z" fill="black"/>
</g>
<g opacity="0.7">
<path opacity="0.7" d="M654.402 137.77H648.878V140.935H654.402V137.77Z" fill="black"/>
</g>
<g opacity="0.7">
<path opacity="0.7" d="M662.293 137.77H656.769V140.935H662.293V137.77Z" fill="black"/>
</g>
<g opacity="0.7">
<path opacity="0.7" d="M670.185 137.77H664.66V140.935H670.185V137.77Z" fill="black"/>
</g>
<g opacity="0.7">
<path opacity="0.7" d="M646.313 142.122H640.789V145.286H646.313V142.122Z" fill="black"/>
</g>
<g opacity="0.7">
<path opacity="0.7" d="M654.402 142.122H648.878V145.286H654.402V142.122Z" fill="black"/>
</g>
<g opacity="0.7">
<path opacity="0.7" d="M662.293 142.122H656.769V145.286H662.293V142.122Z" fill="black"/>
</g>
<g opacity="0.7">
<path opacity="0.7" d="M670.185 142.122H664.66V145.286H670.185V142.122Z" fill="black"/>
</g>
<g opacity="0.7">
<path opacity="0.7" d="M659.334 156.166H653.81V159.331H659.334V156.166Z" fill="black"/>
</g>
<g opacity="0.7">
<path opacity="0.7" d="M667.225 156.166H661.701V159.331H667.225V156.166Z" fill="black"/>
</g>
<g opacity="0.7">
<path opacity="0.7" d="M675.314 156.166H669.79V159.331H675.314V156.166Z" fill="black"/>
</g>
<g opacity="0.7">
<path opacity="0.7" d="M659.334 160.517H653.81V163.682H659.334V160.517Z" fill="black"/>
</g>
<g opacity="0.7">
<path opacity="0.7" d="M667.225 160.517H661.701V163.682H667.225V160.517Z" fill="black"/>
</g>
<g opacity="0.7">
<path opacity="0.7" d="M675.314 160.517H669.79V163.682H675.314V160.517Z" fill="black"/>
</g>
<g opacity="0.7">
<path opacity="0.7" d="M659.334 165.067H653.81V168.232H659.334V165.067Z" fill="black"/>
</g>
<g opacity="0.7">
<path opacity="0.7" d="M667.225 165.067H661.701V168.232H667.225V165.067Z" fill="black"/>
</g>
<g opacity="0.7">
<path opacity="0.7" d="M675.314 165.067H669.79V168.232H675.314V165.067Z" fill="black"/>
</g>
<g opacity="0.7">
<path opacity="0.7" d="M659.531 177.726H654.007V180.891H659.531V177.726Z" fill="black"/>
</g>
<g opacity="0.7">
<path opacity="0.7" d="M667.423 177.726H661.899V180.891H667.423V177.726Z" fill="black"/>
</g>
<g opacity="0.7">
<path opacity="0.7" d="M675.314 177.726H669.79V180.891H675.314V177.726Z" fill="black"/>
</g>
<g opacity="0.7">
<path opacity="0.7" d="M659.531 182.276H654.007V185.441H659.531V182.276Z" fill="black"/>
</g>
<g opacity="0.7">
<path opacity="0.7" d="M667.423 182.276H661.899V185.441H667.423V182.276Z" fill="black"/>
</g>
<g opacity="0.7">
<path opacity="0.7" d="M675.314 182.276H669.79V185.441H675.314V182.276Z" fill="black"/>
</g>
<g opacity="0.7">
<path opacity="0.7" d="M659.531 186.627H654.007V189.792H659.531V186.627Z" fill="black"/>
</g>
<g opacity="0.7">
<path opacity="0.7" d="M667.423 186.627H661.899V189.792H667.423V186.627Z" fill="black"/>
</g>
<g opacity="0.7">
<path opacity="0.7" d="M675.314 186.627H669.79V189.792H675.314V186.627Z" fill="black"/>
</g>
<g opacity="0.7">
<path opacity="0.7" d="M659.531 198.693H654.007V201.858H659.531V198.693Z" fill="black"/>
</g>
<g opacity="0.7">
<path opacity="0.7" d="M667.423 198.693H661.899V201.858H667.423V198.693Z" fill="black"/>
</g>
<g opacity="0.7">
<path opacity="0.7" d="M675.314 198.693H669.79V201.858H675.314V198.693Z" fill="black"/>
</g>
<g opacity="0.7">
<path opacity="0.7" d="M659.531 203.045H654.007V206.21H659.531V203.045Z" fill="black"/>
</g>
<g opacity="0.7">
<path opacity="0.7" d="M667.423 203.045H661.899V206.21H667.423V203.045Z" fill="black"/>
</g>
<g opacity="0.7">
<path opacity="0.7" d="M675.314 203.045H669.79V206.21H675.314V203.045Z" fill="black"/>
</g>
<g opacity="0.7">
<path opacity="0.7" d="M659.531 207.595H654.007V210.76H659.531V207.595Z" fill="black"/>
</g>
<g opacity="0.7">
<path opacity="0.7" d="M667.423 207.595H661.899V210.76H667.423V207.595Z" fill="black"/>
</g>
<g opacity="0.7">
<path opacity="0.7" d="M675.314 207.595H669.79V210.76H675.314V207.595Z" fill="black"/>
</g>
<g opacity="0.7">
<path opacity="0.7" d="M659.531 220.848H654.007V224.013H659.531V220.848Z" fill="black"/>
</g>
<g opacity="0.7">
<path opacity="0.7" d="M667.423 220.848H661.899V224.013H667.423V220.848Z" fill="black"/>
</g>
<g opacity="0.7">
<path opacity="0.7" d="M675.314 220.848H669.79V224.013H675.314V220.848Z" fill="black"/>
</g>
<g opacity="0.7">
<path opacity="0.7" d="M659.531 225.397H654.007V228.562H659.531V225.397Z" fill="black"/>
</g>
<g opacity="0.7">
<path opacity="0.7" d="M667.423 225.397H661.899V228.562H667.423V225.397Z" fill="black"/>
</g>
<g opacity="0.7">
<path opacity="0.7" d="M675.314 225.397H669.79V228.562H675.314V225.397Z" fill="black"/>
</g>
<g opacity="0.7">
<path opacity="0.7" d="M622.244 186.627H616.72V189.792H622.244V186.627Z" fill="black"/>
</g>
<g opacity="0.7">
<path opacity="0.7" d="M630.136 186.627H624.612V189.792H630.136V186.627Z" fill="black"/>
</g>
<g opacity="0.7">
<path opacity="0.7" d="M638.027 186.627H632.503V189.792H638.027V186.627Z" fill="black"/>
</g>
<g opacity="0.7">
<path opacity="0.7" d="M646.116 186.627H640.592V189.792H646.116V186.627Z" fill="black"/>
</g>
<g opacity="0.7">
<path opacity="0.7" d="M622.244 191.177H616.72V194.342H622.244V191.177Z" fill="black"/>
</g>
<g opacity="0.7">
<path opacity="0.7" d="M630.136 191.177H624.612V194.342H630.136V191.177Z" fill="black"/>
</g>
<g opacity="0.7">
<path opacity="0.7" d="M638.027 191.177H632.503V194.342H638.027V191.177Z" fill="black"/>
</g>
<g opacity="0.7">
<path opacity="0.7" d="M646.116 191.177H640.592V194.342H646.116V191.177Z" fill="black"/>
</g>
<g opacity="0.7">
<path opacity="0.7" d="M622.244 195.529H616.72V198.693H622.244V195.529Z" fill="black"/>
</g>
<g opacity="0.7">
<path opacity="0.7" d="M630.136 195.529H624.612V198.693H630.136V195.529Z" fill="black"/>
</g>
<g opacity="0.7">
<path opacity="0.7" d="M638.027 195.529H632.503V198.693H638.027V195.529Z" fill="black"/>
</g>
<g opacity="0.7">
<path opacity="0.7" d="M646.116 195.529H640.592V198.693H646.116V195.529Z" fill="black"/>
</g>
<g opacity="0.7">
<path opacity="0.7" d="M694.056 223.221H688.532V226.386H694.056V223.221Z" fill="black"/>
</g>
<g opacity="0.7">
<path opacity="0.7" d="M701.948 223.221H696.424V226.386H701.948V223.221Z" fill="black"/>
</g>
<g opacity="0.7">
<path opacity="0.7" d="M709.84 223.221H704.316V226.386H709.84V223.221Z" fill="black"/>
</g>
<g opacity="0.7">
<path opacity="0.7" d="M717.928 223.221H712.404V226.386H717.928V223.221Z" fill="black"/>
</g>
<g opacity="0.7">
<path opacity="0.7" d="M694.056 227.573H688.532V230.738H694.056V227.573Z" fill="black"/>
</g>
<g opacity="0.7">
<path opacity="0.7" d="M701.948 227.573H696.424V230.738H701.948V227.573Z" fill="black"/>
</g>
<g opacity="0.7">
<path opacity="0.7" d="M709.84 227.573H704.316V230.738H709.84V227.573Z" fill="black"/>
</g>
<g opacity="0.7">
<path opacity="0.7" d="M717.928 227.573H712.404V230.738H717.928V227.573Z" fill="black"/>
</g>
<g opacity="0.7">
<path opacity="0.7" d="M694.056 231.925H688.532V235.089H694.056V231.925Z" fill="black"/>
</g>
<g opacity="0.7">
<path opacity="0.7" d="M701.948 231.925H696.424V235.089H701.948V231.925Z" fill="black"/>
</g>
<g opacity="0.7">
<path opacity="0.7" d="M709.84 231.925H704.316V235.089H709.84V231.925Z" fill="black"/>
</g>
<g opacity="0.7">
<path opacity="0.7" d="M717.928 231.925H712.404V235.089H717.928V231.925Z" fill="black"/>
</g>
<g opacity="0.7">
<path opacity="0.7" d="M725.82 223.221H720.296V226.386H725.82V223.221Z" fill="black"/>
</g>
<g opacity="0.7">
<path opacity="0.7" d="M725.82 227.573H720.296V230.738H725.82V227.573Z" fill="black"/>
</g>
<g opacity="0.7">
<path opacity="0.7" d="M725.82 231.925H720.296V235.089H725.82V231.925Z" fill="black"/>
</g>
<g opacity="0.7">
<path opacity="0.7" d="M622.244 211.946H616.72V215.111H622.244V211.946Z" fill="black"/>
</g>
<g opacity="0.7">
<path opacity="0.7" d="M630.136 211.946H624.612V215.111H630.136V211.946Z" fill="black"/>
</g>
<g opacity="0.7">
<path opacity="0.7" d="M638.027 211.946H632.503V215.111H638.027V211.946Z" fill="black"/>
</g>
<g opacity="0.7">
<path opacity="0.7" d="M646.116 211.946H640.592V215.111H646.116V211.946Z" fill="black"/>
</g>
<g opacity="0.7">
<path opacity="0.7" d="M622.244 216.298H616.72V219.463H622.244V216.298Z" fill="black"/>
</g>
<g opacity="0.7">
<path opacity="0.7" d="M630.136 216.298H624.612V219.463H630.136V216.298Z" fill="black"/>
</g>
<g opacity="0.7">
<path opacity="0.7" d="M638.027 216.298H632.503V219.463H638.027V216.298Z" fill="black"/>
</g>
<g opacity="0.7">
<path opacity="0.7" d="M646.116 216.298H640.592V219.463H646.116V216.298Z" fill="black"/>
</g>
<g opacity="0.7">
<path opacity="0.7" d="M622.244 220.848H616.72V224.013H622.244V220.848Z" fill="black"/>
</g>
<g opacity="0.7">
<path opacity="0.7" d="M630.136 220.848H624.612V224.013H630.136V220.848Z" fill="black"/>
</g>
<g opacity="0.7">
<path opacity="0.7" d="M638.027 220.848H632.503V224.013H638.027V220.848Z" fill="black"/>
</g>
<g opacity="0.7">
<path opacity="0.7" d="M646.116 220.848H640.592V224.013H646.116V220.848Z" fill="black"/>
</g>
<g opacity="0.7">
<path opacity="0.7" d="M612.38 239.045H607.053V242.21H612.38V239.045Z" fill="black"/>
</g>
<g opacity="0.7">
<path opacity="0.7" d="M630.333 239.045H616.72V242.21H630.333V239.045Z" fill="black"/>
</g>
<g opacity="0.7">
<path opacity="0.7" d="M648.878 239.045H635.265V242.21H648.878V239.045Z" fill="black"/>
</g>
<g opacity="0.7">
<path opacity="0.7" d="M667.423 239.045H653.81V242.21H667.423V239.045Z" fill="black"/>
</g>
<g opacity="0.7">
<path opacity="0.7" d="M612.38 243.793H607.053V246.958H612.38V243.793Z" fill="black"/>
</g>
<g opacity="0.7">
<path opacity="0.7" d="M630.333 243.793H616.72V246.958H630.333V243.793Z" fill="black"/>
</g>
<g opacity="0.7">
<path opacity="0.7" d="M648.878 243.793H635.265V246.958H648.878V243.793Z" fill="black"/>
</g>
<g opacity="0.7">
<path opacity="0.7" d="M667.423 243.793H653.81V246.958H667.423V243.793Z" fill="black"/>
</g>
<g opacity="0.7">
<path opacity="0.7" d="M683.009 151.023H681.43V185.243H683.009V151.023Z" fill="black"/>
</g>
<g opacity="0.7">
<path opacity="0.7" d="M687.941 151.023H686.362V185.243H687.941V151.023Z" fill="black"/>
</g>
<g opacity="0.7">
<path opacity="0.7" d="M692.873 151.023H691.295V185.243H692.873V151.023Z" fill="black"/>
</g>
<g opacity="0.7">
<path opacity="0.7" d="M729.568 132.627H712.799V135.792H729.568V132.627Z" fill="black"/>
</g>
<g opacity="0.7">
<path opacity="0.7" d="M729.568 140.341H712.799V143.506H729.568V140.341Z" fill="black"/>
</g>
<g opacity="0.7">
<path opacity="0.7" d="M729.568 148.056H712.799V151.221H729.568V148.056Z" fill="black"/>
</g>
<g opacity="0.7">
<path opacity="0.7" d="M729.568 155.77H712.799V158.935H729.568V155.77Z" fill="black"/>
</g>
<g opacity="0.7">
<path opacity="0.7" d="M750.678 141.924H747.324V127.484H750.283V115.814H753.834V107.704H756.991V118.979H753.44V130.649H750.678V141.924Z" fill="black"/>
</g>
<g opacity="0.7">
<path opacity="0.7" d="M761.529 141.924H758.372V127.484H761.134V115.814H764.685V107.704H767.842V118.979H764.488V130.649H761.529V141.924Z" fill="black"/>
</g>
<g opacity="0.7">
<path opacity="0.7" d="M741.208 152.803H739.63V239.639H741.208V152.803Z" fill="black"/>
</g>
<g opacity="0.7">
<path opacity="0.7" d="M744.562 152.803H742.984V239.639H744.562V152.803Z" fill="black"/>
</g>
<g opacity="0.7">
<path opacity="0.7" d="M748.113 152.803H746.535V239.639H748.113V152.803Z" fill="black"/>
</g>
<g opacity="0.7">
<path opacity="0.7" d="M751.467 152.803H749.889V189.199H751.467V152.803Z" fill="black"/>
</g>
<g opacity="0.7">
<path opacity="0.7" d="M754.821 152.803H753.243V189.199H754.821V152.803Z" fill="black"/>
</g>
<g opacity="0.7">
<path opacity="0.7" d="M758.175 152.803H756.597V189.199H758.175V152.803Z" fill="black"/>
</g>
<g opacity="0.7">
<path opacity="0.7" d="M761.923 152.803H760.345V189.199H761.923V152.803Z" fill="black"/>
</g>
<g opacity="0.7">
<path opacity="0.7" d="M769.223 239.441H767.645V211.353H763.896V239.441H762.318V209.771H769.223V239.441Z" fill="black"/>
</g>
<g opacity="0.7">
<path opacity="0.7" d="M793.687 138.166H781.258V140.539H793.687V138.166Z" fill="black"/>
</g>
<g opacity="0.7">
<path opacity="0.7" d="M793.687 143.506H781.258V145.88H793.687V143.506Z" fill="black"/>
</g>
<g opacity="0.7">
<path opacity="0.7" d="M793.687 148.847H781.258V151.221H793.687V148.847Z" fill="black"/>
</g>
<g opacity="0.7">
<path opacity="0.7" d="M793.687 154.188H781.258V156.561H793.687V154.188Z" fill="black"/>
</g>
<g opacity="0.7">
<path opacity="0.7" d="M793.687 159.528H781.258V161.902H793.687V159.528Z" fill="black"/>
</g>
<g opacity="0.7">
<path opacity="0.7" d="M793.687 164.869H781.258V167.243H793.687V164.869Z" fill="black"/>
</g>
<g opacity="0.7">
<path opacity="0.7" d="M793.687 170.21H781.258V172.583H793.687V170.21Z" fill="black"/>
</g>
<g opacity="0.7">
<path opacity="0.7" d="M793.687 175.551H781.258V177.924H793.687V175.551Z" fill="black"/>
</g>
<g opacity="0.7">
<path opacity="0.7" d="M813.81 209.573H807.694V212.738H813.81V209.573Z" fill="black"/>
</g>
<g opacity="0.7">
<path opacity="0.7" d="M813.81 215.111H807.694V218.276H813.81V215.111Z" fill="black"/>
</g>
<g opacity="0.7">
<path opacity="0.7" d="M813.81 220.452H807.694V223.617H813.81V220.452Z" fill="black"/>
</g>
<g opacity="0.7">
<path opacity="0.7" d="M813.81 225.793H807.694V228.958H813.81V225.793Z" fill="black"/>
</g>
<g opacity="0.7">
<path opacity="0.7" d="M813.81 231.331H807.694V234.496H813.81V231.331Z" fill="black"/>
</g>
<g opacity="0.7">
<path opacity="0.7" d="M813.81 236.672H807.694V239.837H813.81V236.672Z" fill="black"/>
</g>
<g opacity="0.7">
<path opacity="0.7" d="M859.975 128.671H847.349V131.836H859.975V128.671Z" fill="black"/>
</g>
<g opacity="0.7">
<path opacity="0.7" d="M859.975 136.188H847.349V139.352H859.975V136.188Z" fill="black"/>
</g>
<g opacity="0.7">
<path opacity="0.7" d="M859.975 143.704H847.349V146.869H859.975V143.704Z" fill="black"/>
</g>
<g opacity="0.7">
<path opacity="0.7" d="M859.975 151.221H847.349V154.386H859.975V151.221Z" fill="black"/>
</g>
<g opacity="0.7">
<path opacity="0.7" d="M859.975 172.188H847.349V175.353H859.975V172.188Z" fill="black"/>
</g>
<g opacity="0.7">
<path opacity="0.7" d="M859.975 179.704H847.349V182.869H859.975V179.704Z" fill="black"/>
</g>
<g opacity="0.7">
<path opacity="0.7" d="M859.975 187.221H847.349V190.386H859.975V187.221Z" fill="black"/>
</g>
<g opacity="0.7">
<path opacity="0.7" d="M859.975 194.737H847.349V197.902H859.975V194.737Z" fill="black"/>
</g>
<g opacity="0.7">
<path opacity="0.7" d="M859.975 215.705H847.349V218.869H859.975V215.705Z" fill="black"/>
</g>
<g opacity="0.7">
<path opacity="0.7" d="M859.975 223.221H847.349V226.386H859.975V223.221Z" fill="black"/>
</g>
<g opacity="0.7">
<path opacity="0.7" d="M859.975 230.738H847.349V233.903H859.975V230.738Z" fill="black"/>
</g>
<g opacity="0.7">
<path opacity="0.7" d="M859.975 238.254H847.349V241.419H859.975V238.254Z" fill="black"/>
</g>
<g opacity="0.7">
<path opacity="0.7" d="M829.396 114.627H819.729V116.209H829.396V114.627Z" fill="black"/>
</g>
<g opacity="0.7">
<path opacity="0.7" d="M829.396 117.99H819.729V119.572H829.396V117.99Z" fill="black"/>
</g>
<g opacity="0.7">
<path opacity="0.7" d="M829.396 121.748H819.729V123.33H829.396V121.748Z" fill="black"/>
</g>
<g opacity="0.7">
<path opacity="0.7" d="M829.396 125.308H819.729V126.891H829.396V125.308Z" fill="black"/>
</g>
<g opacity="0.7">
<path opacity="0.7" d="M700.962 254.078H694.057V257.243H700.962V254.078Z" fill="black"/>
</g>
<g opacity="0.7">
<path opacity="0.7" d="M711.615 254.078H704.71V257.243H711.615V254.078Z" fill="black"/>
</g>
<g opacity="0.7">
<path opacity="0.7" d="M722.071 254.078H715.166V257.243H722.071V254.078Z" fill="black"/>
</g>
<g opacity="0.7">
<path opacity="0.7" d="M732.725 254.078H725.82V257.243H732.725V254.078Z" fill="black"/>
</g>
<g opacity="0.7">
<path opacity="0.7" d="M743.181 254.078H736.276V257.243H743.181V254.078Z" fill="black"/>
</g>
<g opacity="0.7">
<path opacity="0.7" d="M753.637 254.078H746.732V257.243H753.637V254.078Z" fill="black"/>
</g>
<g opacity="0.7">
<path opacity="0.7" d="M764.291 254.078H757.386V257.243H764.291V254.078Z" fill="black"/>
</g>
<g opacity="0.7">
<path opacity="0.7" d="M774.747 254.078H767.842V257.243H774.747V254.078Z" fill="black"/>
</g>
<g opacity="0.7">
<path opacity="0.7" d="M785.401 254.078H778.496V257.243H785.401V254.078Z" fill="black"/>
</g>
<g opacity="0.7">
<path opacity="0.7" d="M795.857 254.078H788.952V257.243H795.857V254.078Z" fill="black"/>
</g>
<g opacity="0.7">
<path opacity="0.7" d="M806.51 254.078H799.605V257.243H806.51V254.078Z" fill="black"/>
</g>
<g opacity="0.7">
<path opacity="0.7" d="M816.966 254.078H810.061V257.243H816.966V254.078Z" fill="black"/>
</g>
<g opacity="0.7">
<path opacity="0.7" d="M827.423 254.078H820.518V257.243H827.423V254.078Z" fill="black"/>
</g>
<g opacity="0.7">
<path opacity="0.7" d="M838.076 254.078H831.171V257.243H838.076V254.078Z" fill="black"/>
</g>
<g opacity="0.7">
<path opacity="0.7" d="M848.532 254.078H841.627V257.243H848.532V254.078Z" fill="black"/>
</g>
<g opacity="0.7">
<path opacity="0.7" d="M875.758 130.253H874.18V213.727H875.758V130.253Z" fill="black"/>
</g>
<g opacity="0.7">
<path opacity="0.7" d="M879.704 135.594H870.628V137.177H879.704V135.594Z" fill="black"/>
</g>
<g opacity="0.7">
<path opacity="0.7" d="M879.704 142.517H870.628V144.1H879.704V142.517Z" fill="black"/>
</g>
<g opacity="0.7">
<path opacity="0.7" d="M879.704 149.44H870.628V151.023H879.704V149.44Z" fill="black"/>
</g>
<g opacity="0.7">
<path opacity="0.7" d="M879.704 156.561H870.628V158.144H879.704V156.561Z" fill="black"/>
</g>
<g opacity="0.7">
<path opacity="0.7" d="M879.704 180.1H870.628V181.682H879.704V180.1Z" fill="black"/>
</g>
<g opacity="0.7">
<path opacity="0.7" d="M879.507 186.825H870.431V188.408H879.507V186.825Z" fill="black"/>
</g>
<g opacity="0.7">
<path opacity="0.7" d="M879.309 193.551H870.234V195.133H879.309V193.551Z" fill="black"/>
</g>
<g opacity="0.7">
<path opacity="0.7" d="M879.112 200.276H870.037V201.858H879.112V200.276Z" fill="black"/>
</g>
<g opacity="0.7">
<path opacity="0.7" d="M975.585 166.254H970.851V169.419H975.585V166.254Z" fill="black"/>
</g>
<g opacity="0.7">
<path opacity="0.7" d="M984.069 166.254H979.334V169.419H984.069V166.254Z" fill="black"/>
</g>
<g opacity="0.7">
<path opacity="0.7" d="M992.355 166.254H987.62V169.419H992.355V166.254Z" fill="black"/>
</g>
<g opacity="0.7">
<path opacity="0.7" d="M1000.64 166.254H995.906V169.419H1000.64V166.254Z" fill="black"/>
</g>
<g opacity="0.7">
<path opacity="0.7" d="M1008.93 166.254H1004.19V169.419H1008.93V166.254Z" fill="black"/>
</g>
<g opacity="0.7">
<path opacity="0.7" d="M1000.05 172.979H995.314V176.144H1000.05V172.979Z" fill="black"/>
</g>
<g opacity="0.7">
<path opacity="0.7" d="M1008.34 172.979H1003.6V176.144H1008.34V172.979Z" fill="black"/>
</g>
<g opacity="0.7">
<path opacity="0.7" d="M1016.82 172.979H1012.08V176.144H1016.82V172.979Z" fill="black"/>
</g>
<g opacity="0.7">
<path opacity="0.7" d="M975.585 179.704H970.851V182.869H975.585V179.704Z" fill="black"/>
</g>
<g opacity="0.7">
<path opacity="0.7" d="M984.069 179.704H979.334V182.869H984.069V179.704Z" fill="black"/>
</g>
<g opacity="0.7">
<path opacity="0.7" d="M984.069 172.979H979.334V176.144H984.069V172.979Z" fill="black"/>
</g>
<g opacity="0.7">
<path opacity="0.7" d="M992.355 179.704H987.62V182.869H992.355V179.704Z" fill="black"/>
</g>
<g opacity="0.7">
<path opacity="0.7" d="M984.069 186.034H979.334V189.199H984.069V186.034Z" fill="black"/>
</g>
<g opacity="0.7">
<path opacity="0.7" d="M992.355 186.034H987.62V189.199H992.355V186.034Z" fill="black"/>
</g>
<g opacity="0.7">
<path opacity="0.7" d="M1000.64 186.034H995.906V189.199H1000.64V186.034Z" fill="black"/>
</g>
<g opacity="0.7">
<path opacity="0.7" d="M976.177 192.759H971.442V195.924H976.177V192.759Z" fill="black"/>
</g>
<g opacity="0.7">
<path opacity="0.7" d="M984.661 192.759H979.926V195.924H984.661V192.759Z" fill="black"/>
</g>
<g opacity="0.7">
<path opacity="0.7" d="M992.355 198.891H987.62V202.056H992.355V198.891Z" fill="black"/>
</g>
<g opacity="0.7">
<path opacity="0.7" d="M1000.64 198.891H995.906V202.056H1000.64V198.891Z" fill="black"/>
</g>
<g opacity="0.7">
<path opacity="0.7" d="M976.177 206.21H971.442V209.375H976.177V206.21Z" fill="black"/>
</g>
<g opacity="0.7">
<path opacity="0.7" d="M984.661 206.21H979.926V209.375H984.661V206.21Z" fill="black"/>
</g>
<g opacity="0.7">
<path opacity="0.7" d="M992.947 206.21H988.212V209.375H992.947V206.21Z" fill="black"/>
</g>
<g opacity="0.7">
<path opacity="0.7" d="M984.069 212.144H979.334V215.309H984.069V212.144Z" fill="black"/>
</g>
<g opacity="0.7">
<path opacity="0.7" d="M992.355 212.144H987.62V215.309H992.355V212.144Z" fill="black"/>
</g>
<g opacity="0.7">
<path opacity="0.7" d="M1000.64 212.144H995.906V215.309H1000.64V212.144Z" fill="black"/>
</g>
<g opacity="0.7">
<path opacity="0.7" d="M976.177 219.067H971.442V222.232H976.177V219.067Z" fill="black"/>
</g>
<g opacity="0.7">
<path opacity="0.7" d="M984.661 219.067H979.926V222.232H984.661V219.067Z" fill="black"/>
</g>
<g opacity="0.7">
<path opacity="0.7" d="M984.661 226.386H979.926V229.551H984.661V226.386Z" fill="black"/>
</g>
<g opacity="0.7">
<path opacity="0.7" d="M992.947 226.386H988.212V229.551H992.947V226.386Z" fill="black"/>
</g>
<g opacity="0.7">
<path opacity="0.7" d="M976.177 233.507H971.442V236.672H976.177V233.507Z" fill="black"/>
</g>
<g opacity="0.7">
<path opacity="0.7" d="M984.661 233.507H979.926V236.672H984.661V233.507Z" fill="black"/>
</g>
<g opacity="0.7">
<path opacity="0.7" d="M984.661 239.441H979.926V242.606H984.661V239.441Z" fill="black"/>
</g>
<g opacity="0.7">
<path opacity="0.7" d="M1000.05 233.507H995.314V236.672H1000.05V233.507Z" fill="black"/>
</g>
<g opacity="0.7">
<path opacity="0.7" d="M1000.05 239.441H995.314V242.606H1000.05V239.441Z" fill="black"/>
</g>
<g opacity="0.7">
<path opacity="0.7" d="M992.947 239.441H988.212V242.606H992.947V239.441Z" fill="black"/>
</g>
<g opacity="0.7">
<path opacity="0.7" d="M1000.64 219.067H995.906V222.232H1000.64V219.067Z" fill="black"/>
</g>
<g opacity="0.7">
<path opacity="0.7" d="M1000.64 192.759H995.906V195.924H1000.64V192.759Z" fill="black"/>
</g>
<g opacity="0.7">
<path opacity="0.7" d="M1008.34 179.309H1003.6V182.474H1008.34V179.309Z" fill="black"/>
</g>
<g opacity="0.7">
<path opacity="0.7" d="M1016.82 179.309H1012.08V182.474H1016.82V179.309Z" fill="black"/>
</g>
<g opacity="0.7">
<path opacity="0.7" d="M969.864 254.672H959.211V257.837H969.864V254.672Z" fill="black"/>
</g>
<g opacity="0.7">
<path opacity="0.7" d="M969.864 258.826H959.211V261.991H969.864V258.826Z" fill="black"/>
</g>
<g opacity="0.7">
<path opacity="0.7" d="M983.872 254.672H973.218V257.837H983.872V254.672Z" fill="black"/>
</g>
<g opacity="0.7">
<path opacity="0.7" d="M983.872 258.826H973.218V261.991H983.872V258.826Z" fill="black"/>
</g>
<g opacity="0.7">
<path opacity="0.7" d="M998.076 254.672H987.423V257.837H998.076V254.672Z" fill="black"/>
</g>
<g opacity="0.7">
<path opacity="0.7" d="M998.076 258.826H987.423V261.991H998.076V258.826Z" fill="black"/>
</g>
<g opacity="0.7">
<path opacity="0.7" d="M1031.22 201.463H1020.57V204.628H1031.22V201.463Z" fill="black"/>
</g>
<g opacity="0.7">
<path opacity="0.7" d="M1031.22 208.188H1020.57V211.353H1031.22V208.188Z" fill="black"/>
</g>
<g opacity="0.7">
<path opacity="0.7" d="M1045.23 201.463H1034.57V204.628H1045.23V201.463Z" fill="black"/>
</g>
<g opacity="0.7">
<path opacity="0.7" d="M1045.23 208.188H1034.57V211.353H1045.23V208.188Z" fill="black"/>
</g>
<g opacity="0.7">
<path opacity="0.7" d="M1059.43 201.463H1048.78V204.628H1059.43V201.463Z" fill="black"/>
</g>
<g opacity="0.7">
<path opacity="0.7" d="M1059.43 208.188H1048.78V211.353H1059.43V208.188Z" fill="black"/>
</g>
<g opacity="0.7">
<path opacity="0.7" d="M1031.22 214.122H1020.57V217.287H1031.22V214.122Z" fill="black"/>
</g>
<g opacity="0.7">
<path opacity="0.7" d="M1045.23 214.122H1034.57V217.287H1045.23V214.122Z" fill="black"/>
</g>
<g opacity="0.7">
<path opacity="0.7" d="M1059.43 214.122H1048.78V217.287H1059.43V214.122Z" fill="black"/>
</g>
<g opacity="0.7">
<path opacity="0.7" d="M1031.02 224.606H1020.37V227.771H1031.02V224.606Z" fill="black"/>
</g>
<g opacity="0.7">
<path opacity="0.7" d="M1031.02 231.133H1020.37V234.298H1031.02V231.133Z" fill="black"/>
</g>
<g opacity="0.7">
<path opacity="0.7" d="M1045.23 224.606H1034.57V227.771H1045.23V224.606Z" fill="black"/>
</g>
<g opacity="0.7">
<path opacity="0.7" d="M1045.23 231.133H1034.57V234.298H1045.23V231.133Z" fill="black"/>
</g>
<g opacity="0.7">
<path opacity="0.7" d="M1059.24 224.606H1048.58V227.771H1059.24V224.606Z" fill="black"/>
</g>
<g opacity="0.7">
<path opacity="0.7" d="M1059.24 231.133H1048.58V234.298H1059.24V231.133Z" fill="black"/>
</g>
<g opacity="0.7">
<path opacity="0.7" d="M1031.02 237.265H1020.37V240.43H1031.02V237.265Z" fill="black"/>
</g>
<g opacity="0.7">
<path opacity="0.7" d="M1045.23 237.265H1034.57V240.43H1045.23V237.265Z" fill="black"/>
</g>
<g opacity="0.7">
<path opacity="0.7" d="M1059.24 237.265H1048.58V240.43H1059.24V237.265Z" fill="black"/>
</g>
<g opacity="0.7">
<path opacity="0.7" d="M1084.69 194.144H1075.41V197.309H1084.69V194.144Z" fill="black"/>
</g>
<g opacity="0.7">
<path opacity="0.7" d="M1084.69 199.485H1075.41V202.649H1084.69V199.485Z" fill="black"/>
</g>
<g opacity="0.7">
<path opacity="0.7" d="M1084.69 204.825H1075.41V207.99H1084.69V204.825Z" fill="black"/>
</g>
<g opacity="0.7">
<path opacity="0.7" d="M1084.69 216.694H1075.41V219.858H1084.69V216.694Z" fill="black"/>
</g>
<g opacity="0.7">
<path opacity="0.7" d="M1084.69 222.034H1075.41V225.199H1084.69V222.034Z" fill="black"/>
</g>
<g opacity="0.7">
<path opacity="0.7" d="M1084.69 227.573H1075.41V230.738H1084.69V227.573Z" fill="black"/>
</g>
<g opacity="0.7">
<path opacity="0.7" d="M1099.28 203.243H1093.96V206.408H1099.28V203.243Z" fill="black"/>
</g>
<g opacity="0.7">
<path opacity="0.7" d="M1107.97 203.243H1102.64V206.408H1107.97V203.243Z" fill="black"/>
</g>
<g opacity="0.7">
<path opacity="0.7" d="M1116.45 203.243H1111.12V206.408H1116.45V203.243Z" fill="black"/>
</g>
<g opacity="0.7">
<path opacity="0.7" d="M1099.48 208.188H1094.15V211.353H1099.48V208.188Z" fill="black"/>
</g>
<g opacity="0.7">
<path opacity="0.7" d="M1108.16 208.188H1102.84V211.353H1108.16V208.188Z" fill="black"/>
</g>
<g opacity="0.7">
<path opacity="0.7" d="M1116.65 208.188H1111.32V211.353H1116.65V208.188Z" fill="black"/>
</g>
<g opacity="0.7">
<path opacity="0.7" d="M1099.48 213.133H1094.15V216.298H1099.48V213.133Z" fill="black"/>
</g>
<g opacity="0.7">
<path opacity="0.7" d="M1108.36 213.133H1103.03V216.298H1108.36V213.133Z" fill="black"/>
</g>
<g opacity="0.7">
<path opacity="0.7" d="M1116.84 213.133H1111.52V216.298H1116.84V213.133Z" fill="black"/>
</g>
<g opacity="0.7">
<path opacity="0.7" d="M1129.86 214.913H1124.54V218.078H1129.86V214.913Z" fill="black"/>
</g>
<g opacity="0.7">
<path opacity="0.7" d="M1130.06 219.859H1124.73V223.023H1130.06V219.859Z" fill="black"/>
</g>
<g opacity="0.7">
<path opacity="0.7" d="M1130.26 224.804H1124.93V227.968H1130.26V224.804Z" fill="black"/>
</g>
<g opacity="0.7">
<path opacity="0.7" d="M1136.37 254.078H1131.05V257.243H1136.37V254.078Z" fill="black"/>
</g>
<g opacity="0.7">
<path opacity="0.7" d="M1136.37 259.024H1131.05V262.189H1136.37V259.024Z" fill="black"/>
</g>
<g opacity="0.7">
<path opacity="0.7" d="M1099.48 223.419H1094.15V226.584H1099.48V223.419Z" fill="black"/>
</g>
<g opacity="0.7">
<path opacity="0.7" d="M1108.16 223.419H1102.84V226.584H1108.16V223.419Z" fill="black"/>
</g>
<g opacity="0.7">
<path opacity="0.7" d="M1116.65 223.419H1111.32V226.584H1116.65V223.419Z" fill="black"/>
</g>
<g opacity="0.7">
<path opacity="0.7" d="M1099.48 228.76H1094.15V231.925H1099.48V228.76Z" fill="black"/>
</g>
<g opacity="0.7">
<path opacity="0.7" d="M1108.16 228.76H1102.84V231.925H1108.16V228.76Z" fill="black"/>
</g>
<g opacity="0.7">
<path opacity="0.7" d="M1116.65 228.76H1111.32V231.925H1116.65V228.76Z" fill="black"/>
</g>
<g opacity="0.7">
<path opacity="0.7" d="M1066.54 182.078H1057.26V183.66H1066.54V182.078Z" fill="black"/>
</g>
<g opacity="0.7">
<path opacity="0.7" d="M1066.54 176.935H1057.26V178.518H1066.54V176.935Z" fill="black"/>
</g>
<g opacity="0.7">
<path opacity="0.7" d="M1066.54 171.792H1057.26V173.375H1066.54V171.792Z" fill="black"/>
</g>
<g opacity="0.7">
<path opacity="0.7" d="M1066.54 166.649H1057.26V168.232H1066.54V166.649Z" fill="black"/>
</g>
<g opacity="0.7">
<path opacity="0.7" d="M1066.54 161.506H1057.26V163.089H1066.54V161.506Z" fill="black"/>
</g>
<g opacity="0.7">
<path opacity="0.7" d="M1066.53 156.364H1059.24V157.55H1066.53V156.364Z" fill="black"/>
</g>
<g opacity="0.7">
<path opacity="0.7" d="M1066.53 151.221H1059.43V152.408H1066.53V151.221Z" fill="black"/>
</g>
<g opacity="0.7">
<path opacity="0.7" d="M1066.54 146.078H1060.02V147.265H1066.54V146.078Z" fill="black"/>
</g>
<g opacity="0.7">
<path opacity="0.7" d="M1066.53 141.133H1060.42V142.517H1066.53V141.133Z" fill="black"/>
</g>
<g opacity="0.7">
<path opacity="0.7" d="M1066.53 135.792H1060.81V136.979H1066.53V135.792Z" fill="black"/>
</g>
<g opacity="0.7">
<path opacity="0.7" d="M1066.53 130.847H1061.21V132.034H1066.53V130.847Z" fill="black"/>
</g>
<g opacity="0.7">
<path opacity="0.7" d="M1066.53 125.506H1061.6V126.495H1066.53V125.506Z" fill="black"/>
</g>
<g opacity="0.7">
<path opacity="0.7" d="M1066.73 120.363H1062V121.154H1066.73V120.363Z" fill="black"/>
</g>
<g opacity="0.7">
<path opacity="0.7" d="M1066.73 115.22H1062V116.209H1066.73V115.22Z" fill="black"/>
</g>
</g>
<g opacity="0.7">
<g opacity="0.7">
<g opacity="0.7">
<path opacity="0.7" d="M1329.12 135.594H1325.18V272.474H1329.12V135.594Z" fill="black"/>
</g>
<g opacity="0.7">
<path opacity="0.7" d="M1351.62 135.594H1347.67V272.474H1351.62V135.594Z" fill="black"/>
</g>
<g opacity="0.7">
<path opacity="0.7" d="M1349.64 229.749H1327.15V236.672H1349.64V229.749Z" fill="black"/>
</g>
<g opacity="0.7">
<path opacity="0.7" d="M1349.64 199.683H1327.15V206.606H1349.64V199.683Z" fill="black"/>
</g>
<g opacity="0.7">
<path opacity="0.7" d="M1349.64 169.616H1327.15V176.539H1349.64V169.616Z" fill="black"/>
</g>
<g opacity="0.7">
<path opacity="0.7" d="M1349.64 139.748H1327.15V146.671H1349.64V139.748Z" fill="black"/>
</g>
</g>
<g opacity="0.7">
<g opacity="0.7">
<path opacity="0.7" d="M1179.19 149.045H1174.25V272.079H1179.19V149.045Z" fill="black"/>
</g>
<g opacity="0.7">
<path opacity="0.7" d="M1201.68 149.045H1196.74V272.079H1201.68V149.045Z" fill="black"/>
</g>
<g opacity="0.7">
<path opacity="0.7" d="M1199.31 242.408H1176.82V247.353H1199.31V242.408Z" fill="black"/>
</g>
<g opacity="0.7">
<path opacity="0.7" d="M1199.31 212.342H1176.82V217.287H1199.31V212.342Z" fill="black"/>
</g>
<g opacity="0.7">
<path opacity="0.7" d="M1199.31 182.276H1176.82V187.221H1199.31V182.276Z" fill="black"/>
</g>
<g opacity="0.7">
<path opacity="0.7" d="M1199.31 152.21H1176.82V157.155H1199.31V152.21Z" fill="black"/>
</g>
</g>
<g opacity="0.7">
<path opacity="0.7" d="M1256.33 248.738C1254.94 248.738 1253.37 248.738 1251.99 248.54C1227.13 245.177 1208.38 211.749 1197.93 151.814L1200.89 151.221C1211.15 209.771 1229.1 242.408 1252.38 245.573C1279.61 249.331 1313.74 211.946 1348.26 140.144L1350.23 135.99L1351.02 140.539C1360.3 189.595 1404.49 215.507 1439.8 228.76L1438.82 231.529C1403.7 218.474 1360.3 192.957 1349.05 145.484C1315.71 213.133 1283.95 248.738 1256.33 248.738Z" fill="black"/>
</g>
<g opacity="0.7">
<path opacity="0.7" d="M1232.85 251.705C1231.66 251.705 1230.28 251.705 1229.1 251.507C1206.41 248.54 1188.85 219.265 1175.24 162.1L1178.2 161.309C1191.22 216.496 1208.58 245.771 1229.49 248.54C1254.75 251.705 1286.91 216.694 1325.38 144.1L1327.35 140.341L1328.14 144.495C1336.62 188.803 1381.01 229.749 1439.01 246.364L1438.22 249.331C1381.01 232.914 1336.62 192.957 1326.17 149.243C1289.27 217.88 1258.69 251.705 1232.85 251.705Z" fill="black"/>
</g>
<g opacity="0.7">
<path opacity="0.7" d="M1142.49 235.287L1139.93 233.705L1141.11 231.727C1151.37 216.1 1170.51 186.825 1174.85 163.88L1177.81 164.473C1173.27 187.814 1153.93 217.485 1143.48 233.309L1142.49 235.287Z" fill="black"/>
</g>
<g opacity="0.7">
<path opacity="0.7" d="M1152.55 246.76L1150.97 244.188C1165.38 235.287 1186.09 217.089 1197.73 159.924L1200.69 160.517C1188.85 218.869 1167.55 237.661 1152.55 246.76Z" fill="black"/>
</g>
<g opacity="0.7">
<path opacity="0.7" d="M1440 228.364H1437.04V271.881H1440V228.364Z" fill="black"/>
</g>
<g opacity="0.7">
<path opacity="0.7" d="M1425.8 223.221H1422.84V271.881H1425.8V223.221Z" fill="black"/>
</g>
<g opacity="0.7">
<path opacity="0.7" d="M1411.79 216.298H1408.83V271.881H1411.79V216.298Z" fill="black"/>
</g>
<g opacity="0.7">
<path opacity="0.7" d="M1397.78 207.199H1394.82V271.881H1397.78V207.199Z" fill="black"/>
</g>
<g opacity="0.7">
<path opacity="0.7" d="M1383.97 196.518H1381.01V272.079H1383.97V196.518Z" fill="black"/>
</g>
<g opacity="0.7">
<path opacity="0.7" d="M1369.77 181.485H1366.81V272.277H1369.77V181.485Z" fill="black"/>
</g>
<g opacity="0.7">
<path opacity="0.7" d="M1360.49 167.638H1357.53V272.079H1360.49V167.638Z" fill="black"/>
</g>
<g opacity="0.7">
<path opacity="0.7" d="M1315.31 167.638H1312.36V272.079H1315.31V167.638Z" fill="black"/>
</g>
<g opacity="0.7">
<path opacity="0.7" d="M1298.94 193.946H1295.98V272.079H1298.94V193.946Z" fill="black"/>
</g>
<g opacity="0.7">
<path opacity="0.7" d="M1282.76 216.298H1279.8V271.881H1282.76V216.298Z" fill="black"/>
</g>
<g opacity="0.7">
<path opacity="0.7" d="M1266.78 233.309H1263.82V272.079H1266.78V233.309Z" fill="black"/>
</g>
<g opacity="0.7">
<path opacity="0.7" d="M1250.01 243.99H1247.05V272.079H1250.01V243.99Z" fill="black"/>
</g>
<g opacity="0.7">
<path opacity="0.7" d="M1234.03 235.287H1231.07V271.881H1234.03V235.287Z" fill="black"/>
</g>
<g opacity="0.7">
<path opacity="0.7" d="M1217.07 209.771H1214.11V271.881H1217.07V209.771Z" fill="black"/>
</g>
<g opacity="0.7">
<path opacity="0.7" d="M1167.94 191.968H1164.98V272.079H1167.94V191.968Z" fill="black"/>
</g>
<g opacity="0.7">
<path opacity="0.7" d="M1439.41 271.288H1153.54V272.87H1439.41V271.288Z" fill="black"/>
</g>
</g>
<g opacity="0.7">
<g opacity="0.7">
<g opacity="0.7">
<path opacity="0.7" d="M115.018 135.594H111.072V272.474H115.018V135.594Z" fill="black"/>
</g>
<g opacity="0.7">
<path opacity="0.7" d="M92.3305 135.594H88.3848V272.474H92.3305V135.594Z" fill="black"/>
</g>
<g opacity="0.7">
<path opacity="0.7" d="M112.849 229.946H90.3579V236.87H112.849V229.946Z" fill="black"/>
</g>
<g opacity="0.7">
<path opacity="0.7" d="M112.849 199.88H90.3579V206.803H112.849V199.88Z" fill="black"/>
</g>
<g opacity="0.7">
<path opacity="0.7" d="M112.849 169.814H90.3579V176.737H112.849V169.814Z" fill="black"/>
</g>
<g opacity="0.7">
<path opacity="0.7" d="M112.849 139.748H90.3579V146.671H112.849V139.748Z" fill="black"/>
</g>
</g>
<g opacity="0.7">
<g opacity="0.7">
<path opacity="0.7" d="M265.746 149.243H260.814V270.694H265.746V149.243Z" fill="black"/>
</g>
<g opacity="0.7">
<path opacity="0.7" d="M243.058 149.243H238.126V270.694H243.058V149.243Z" fill="black"/>
</g>
<g opacity="0.7">
<path opacity="0.7" d="M263.182 242.606H240.691V247.551H263.182V242.606Z" fill="black"/>
</g>
<g opacity="0.7">
<path opacity="0.7" d="M263.182 212.54H240.691V217.485H263.182V212.54Z" fill="black"/>
</g>
<g opacity="0.7">
<path opacity="0.7" d="M263.182 182.474H240.691V187.419H263.182V182.474Z" fill="black"/>
</g>
<g opacity="0.7">
<path opacity="0.7" d="M263.182 152.407H240.691V157.353H263.182V152.407Z" fill="black"/>
</g>
</g>
<g opacity="0.7">
<path opacity="0.7" d="M183.676 248.738C156.056 248.738 124.095 213.133 90.9509 145.286C79.7055 192.957 36.3023 218.276 1.18517 231.331L0.19873 228.562C35.5132 215.309 79.7055 189.397 88.978 140.341L89.7672 135.792L91.74 139.946C126.265 211.749 160.396 249.133 187.622 245.375C211.099 242.21 228.855 209.573 239.114 151.023L242.073 151.616C231.419 211.551 212.677 244.98 188.016 248.342C186.635 248.738 185.254 248.738 183.676 248.738Z" fill="black"/>
</g>
<g opacity="0.7">
<path opacity="0.7" d="M207.152 251.705C181.307 251.705 150.727 218.078 113.835 149.045C103.378 192.759 58.9888 232.716 1.77548 249.133L0.986328 246.166C58.7915 229.551 103.378 188.605 111.862 144.297L112.651 140.144L114.624 143.902C153.095 216.496 185.45 251.507 210.505 248.342C231.418 245.573 248.582 216.298 261.8 161.111L264.759 161.902C251.147 219.265 233.588 248.54 210.9 251.309C209.519 251.705 208.335 251.705 207.152 251.705Z" fill="black"/>
</g>
<g opacity="0.7">
<path opacity="0.7" d="M299.088 237.067L296.72 233.507C286.067 217.287 266.338 187.221 261.8 164.473L264.76 163.88C269.1 186.034 288.631 215.705 299.088 231.727L301.455 235.287L299.088 237.067Z" fill="black"/>
</g>
<g opacity="0.7">
<path opacity="0.7" d="M290.999 249.133C265.549 233.507 247.99 203.836 239.31 160.715L242.269 160.122C250.95 202.452 267.916 231.529 292.577 246.562L290.999 249.133Z" fill="black"/>
</g>
<g opacity="0.7">
<path opacity="0.7" d="M2.95931 228.562H0V272.079H2.95931V228.562Z" fill="black"/>
</g>
<g opacity="0.7">
<path opacity="0.7" d="M17.1639 223.419H14.2046V272.079H17.1639V223.419Z" fill="black"/>
</g>
<g opacity="0.7">
<path opacity="0.7" d="M30.974 216.496H28.0146V272.079H30.974V216.496Z" fill="black"/>
</g>
<g opacity="0.7">
<path opacity="0.7" d="M45.179 207.397H42.2197V272.079H45.179V207.397Z" fill="black"/>
</g>
<g opacity="0.7">
<path opacity="0.7" d="M58.9891 196.518H56.0298V272.079H58.9891V196.518Z" fill="black"/>
</g>
<g opacity="0.7">
<path opacity="0.7" d="M73.1937 181.485H70.2344V272.277H73.1937V181.485Z" fill="black"/>
</g>
<g opacity="0.7">
<path opacity="0.7" d="M82.4661 167.638H79.5068V272.079H82.4661V167.638Z" fill="black"/>
</g>
<g opacity="0.7">
<path opacity="0.7" d="M127.645 167.638H124.686V272.079H127.645V167.638Z" fill="black"/>
</g>
<g opacity="0.7">
<path opacity="0.7" d="M143.823 193.946H140.863V272.079H143.823V193.946Z" fill="black"/>
</g>
<g opacity="0.7">
<path opacity="0.7" d="M160.198 216.496H157.238V272.079H160.198V216.496Z" fill="black"/>
</g>
<g opacity="0.7">
<path opacity="0.7" d="M175.98 233.309H173.021V272.079H175.98V233.309Z" fill="black"/>
</g>
<g opacity="0.7">
<path opacity="0.7" d="M192.947 244.188H189.988V272.277H192.947V244.188Z" fill="black"/>
</g>
<g opacity="0.7">
<path opacity="0.7" d="M208.928 235.485H205.968V272.079H208.928V235.485Z" fill="black"/>
</g>
<g opacity="0.7">
<path opacity="0.7" d="M225.894 209.968H222.935V272.079H225.894V209.968Z" fill="black"/>
</g>
<g opacity="0.7">
<path opacity="0.7" d="M275.018 192.759H272.059V272.079H275.018V192.759Z" fill="black"/>
</g>
<g opacity="0.7">
<path opacity="0.7" d="M286.458 271.288H0.588867V272.87H286.458V271.288Z" fill="black"/>
</g>
</g>
</g>
</g>
</svg>
