<svg width="1440" height="318" viewBox="0 0 1440 318" fill="none" xmlns="http://www.w3.org/2000/svg">
<g opacity="0.4">
<g opacity="0.7">
<path opacity="0.7" d="M356.011 149.48C362.079 149.48 368.147 149.636 374.215 149.636C379.038 149.636 382.772 145.88 382.928 140.871C383.083 136.801 380.283 133.514 376.393 133.358C375.615 133.358 375.304 132.888 375.304 132.106C375.304 130.697 375.46 129.132 375.304 127.723C374.837 121.931 370.948 117.862 365.346 117.079C359.123 116.297 354.3 121.462 353.211 126.001C353.055 126.471 352.899 126.94 352.277 126.94C351.81 126.94 351.499 126.627 351.188 126.158C350.721 125.219 350.099 124.279 349.477 123.653C346.365 120.366 341.075 121.462 339.208 125.688C338.585 127.253 338.585 128.975 338.741 130.54C338.741 131.48 338.43 131.793 337.652 131.949C336.874 131.949 336.096 132.106 335.318 132.262C330.962 133.201 328.472 136.958 329.095 141.654C329.717 145.88 333.295 149.167 337.496 149.167C343.875 149.48 349.943 149.48 356.011 149.48Z" stroke="black" stroke-width="4" stroke-miterlimit="10"/>
</g>
<g opacity="0.7">
<path opacity="0.7" d="M590.068 118.767C595.286 118.767 600.393 118.878 605.61 118.878C609.718 118.878 612.937 115.64 613.159 111.395C613.382 107.933 610.939 105.141 607.609 105.029C606.943 105.029 606.61 104.694 606.61 103.913C606.61 102.684 606.721 101.455 606.61 100.115C606.166 95.0894 602.835 91.7388 598.061 91.0687C592.733 90.3986 588.625 94.7543 587.737 98.775C587.626 99.2217 587.404 99.5568 586.96 99.6685C586.516 99.7802 586.294 99.4451 586.072 98.9984C585.628 98.2166 585.183 97.4348 584.628 96.8763C581.964 94.0842 577.523 94.9777 575.858 98.5516C575.303 99.8919 575.303 101.344 575.414 102.796C575.525 103.577 575.192 103.913 574.415 103.913C573.749 103.913 573.083 104.024 572.417 104.136C568.642 104.918 566.533 108.157 567.088 112.177C567.643 115.863 570.751 118.655 574.304 118.655C579.633 118.655 584.85 118.655 590.068 118.767Z" stroke="black" stroke-width="4" stroke-miterlimit="10"/>
</g>
<g opacity="0.7">
<path opacity="0.7" d="M831.776 100.433C836.667 100.433 841.65 100.526 846.541 100.526C850.417 100.526 853.462 97.4622 853.739 93.3774C853.924 90.0353 851.617 87.4358 848.479 87.2501C847.833 87.2501 847.556 86.8788 847.556 86.2289C847.556 85.0221 847.648 83.8152 847.556 82.7011C847.095 77.9664 843.957 74.7171 839.528 74.0673C834.545 73.4174 830.484 77.5951 829.746 81.4014C829.654 81.8656 829.469 82.1441 829.008 82.2369C828.546 82.3298 828.362 82.0513 828.085 81.6799C827.624 80.9372 827.254 80.1945 826.701 79.6375C824.209 77.0381 819.872 77.8736 818.396 81.2157C817.842 82.5155 817.934 83.8152 818.026 85.2077C818.119 85.9504 817.842 86.2289 817.104 86.3218C816.458 86.3218 815.812 86.4146 815.166 86.5075C811.567 87.2502 809.537 90.4066 810.09 94.2129C810.644 97.7407 813.505 100.34 816.919 100.34C821.81 100.34 826.793 100.34 831.776 100.433Z" stroke="black" stroke-width="4" stroke-miterlimit="10"/>
</g>
<g opacity="0.7">
<path opacity="0.7" d="M1165.51 122.39C1171.69 122.39 1177.98 122.507 1184.16 122.507C1189.05 122.507 1192.9 118.637 1193.25 113.477C1193.48 109.256 1190.57 105.972 1186.61 105.737C1185.79 105.737 1185.44 105.268 1185.44 104.447C1185.44 102.923 1185.56 101.398 1185.44 99.9912C1184.86 94.0104 1180.89 89.9059 1175.3 89.085C1169 88.2641 1163.88 93.5413 1162.94 98.3494C1162.83 98.9358 1162.59 99.2876 1162.01 99.4048C1161.43 99.5221 1161.19 99.1703 1160.84 98.7012C1160.26 97.763 1159.8 96.8249 1159.1 96.1213C1155.95 92.8377 1150.47 93.8931 1148.61 98.1149C1147.91 99.7566 1148.02 101.398 1148.14 103.158C1148.26 104.096 1147.91 104.447 1146.97 104.565C1146.16 104.565 1145.34 104.682 1144.53 104.799C1139.98 105.737 1137.41 109.725 1138.11 114.533C1138.81 118.989 1142.43 122.273 1146.74 122.273C1152.92 122.273 1159.21 122.273 1165.51 122.39Z" stroke="black" stroke-width="4" stroke-miterlimit="10"/>
</g>
<g opacity="0.7">
<path opacity="0.7" d="M1029.65 86.5517C1033.75 86.5517 1037.71 86.694 1041.81 86.694C1044.93 86.694 1047.47 84.2747 1047.61 80.8592C1047.76 78.1553 1045.92 76.0206 1043.37 75.8783C1042.8 75.8783 1042.66 75.5937 1042.66 75.0245C1042.66 74.0283 1042.66 73.0321 1042.66 72.1782C1042.38 68.3358 1039.69 65.6319 1036.01 65.0626C1031.91 64.4934 1028.66 67.9089 1027.95 71.0397C1027.81 71.3244 1027.67 71.609 1027.39 71.7513C1026.96 71.7513 1026.82 71.609 1026.68 71.3244C1026.25 70.7551 1025.97 70.1859 1025.55 69.6166C1023.42 67.4819 1020.03 68.1935 1018.76 70.8974C1018.33 71.8936 1018.33 73.0321 1018.47 74.1706C1018.47 74.7398 1018.33 75.0245 1017.77 75.0245C1017.2 75.0245 1016.78 75.0245 1016.21 75.1668C1013.24 75.736 1011.54 78.2976 1012.11 81.4285C1012.53 84.2747 1014.94 86.4094 1017.63 86.4094C1021.59 86.5517 1025.69 86.5517 1029.65 86.5517Z" stroke="black" stroke-width="4" stroke-miterlimit="10"/>
</g>
<g opacity="0.7">
<path opacity="0.7" d="M172.88 102.291C177.948 102.291 183.111 102.291 188.179 102.291C192.195 102.291 195.35 99.1167 195.541 94.8842C195.732 91.4213 193.342 88.7279 189.995 88.6317C189.326 88.6317 189.039 88.2469 189.039 87.5735C189.039 86.323 189.135 85.0725 188.944 83.9182C188.466 79.0123 185.215 75.6456 180.529 75.0684C175.27 74.3951 171.255 78.82 170.394 82.6677C170.298 83.1487 170.107 83.4372 169.629 83.5334C169.151 83.6296 168.96 83.341 168.673 82.9563C168.195 82.1867 167.812 81.4172 167.239 80.84C164.561 78.1466 160.163 79.0123 158.633 82.5715C158.059 83.9182 158.155 85.2649 158.251 86.7078C158.346 87.4773 158.059 87.7659 157.295 87.8621C156.625 87.8621 155.956 87.9583 155.287 88.0545C151.558 88.824 149.454 92.0946 150.123 96.0385C150.697 99.5977 153.757 102.387 157.199 102.387C162.649 102.387 167.812 102.291 172.88 102.291Z" stroke="black" stroke-width="4" stroke-miterlimit="10"/>
</g>
</g>
<path d="M1306 33.7492C1288.65 33.7492 1274.55 47.9337 1274.55 65.3876C1274.55 82.8414 1288.65 97.0259 1306 97.0259C1323.35 97.0259 1337.45 82.8414 1337.45 65.3876C1337.45 47.9337 1323.35 33.7492 1306 33.7492ZM1306 92.804C1290.98 92.804 1278.75 80.4988 1278.75 65.3876C1278.75 50.2763 1290.98 37.9711 1306 37.9711C1321.02 37.9711 1333.25 50.2763 1333.25 65.3876C1333.25 80.4988 1321.02 92.804 1306 92.804Z" fill="#FFA912"/>
<path d="M1308.1 0H1303.9V25.3055H1308.1V0Z" fill="#FFA912"/>
<path d="M1308.1 105.47H1303.9V130.775H1308.1V105.47Z" fill="#FFA912"/>
<path d="M1279.3 35.5602L1261.52 17.6666L1258.55 20.6519L1276.33 38.5454L1279.3 35.5602Z" fill="#FFA912"/>
<path d="M1332.69 95.2285L1350.47 113.122L1353.44 110.137L1335.65 92.2432L1332.69 95.2285Z" fill="#FFA912"/>
<path d="M1266.16 63.2767H1241V67.4985H1266.16V63.2767Z" fill="#FFA912"/>
<path d="M1371 63.2767H1345.84V67.4985H1371V63.2767Z" fill="#FFA912"/>
<path d="M1258.55 110.122L1261.52 113.108L1279.31 95.2141L1276.34 92.2288L1258.55 110.122Z" fill="#FFA912"/>
<path d="M1353.45 20.6538L1350.49 17.6685L1332.7 35.562L1335.67 38.5473L1353.45 20.6538Z" fill="#FFA912"/>
<path d="M1292.69 27.5418L1286.27 11.9632L1282.39 13.5789L1288.81 29.1575L1292.69 27.5418Z" fill="#FFA912"/>
<path d="M1319.32 103.242L1325.73 118.82L1329.61 117.205L1323.2 101.626L1319.32 103.242Z" fill="#FFA912"/>
<path d="M1269.98 48.0994L1254.49 41.6464L1252.89 45.547L1268.37 52L1269.98 48.0994Z" fill="#FFA912"/>
<path d="M1342.01 82.6612L1357.51 89.1227L1359.1 85.2355L1343.62 78.774L1342.01 82.6612Z" fill="#FFA912"/>
<path d="M1329.6 13.5741L1325.72 11.9579L1319.31 27.5348L1323.18 29.151L1329.6 13.5741Z" fill="#FFA912"/>
<path d="M1282.39 117.203L1286.27 118.819L1292.68 103.242L1288.81 101.626L1282.39 117.203Z" fill="#FFA912"/>
<path d="M1343.6 52.0023L1359.11 45.5395L1357.5 41.6389L1341.99 48.1017L1343.6 52.0023Z" fill="#FFA912"/>
<path d="M1268.38 78.774L1252.9 85.2355L1254.51 89.1227L1269.99 82.6612L1268.38 78.774Z" fill="#FFA912"/>
<g opacity="0.2">
<path d="M320.241 284.458H302.088V287.653H320.241V284.458Z" fill="black"/>
<path d="M320.241 288.651H302.088V291.845H320.241V288.651Z" fill="black"/>
<path d="M320.241 293.243H302.088V296.437H320.241V293.243Z" fill="black"/>
<path d="M320.044 298.634H295.38V301.828H320.044V298.634Z" fill="black"/>
<path d="M320.241 304.024H293.406V307.219H320.241V304.024Z" fill="black"/>
<path d="M316.098 247.922H325.766V244.727H312.94V276.672H316.098V247.922Z" fill="black"/>
<path d="M322.806 249.719H318.268V252.913H322.806V249.719Z" fill="black"/>
<path d="M322.806 254.91H318.268V258.104H322.806V254.91Z" fill="black"/>
<path d="M322.806 261.099H318.268V264.293H322.806V261.099Z" fill="black"/>
<path d="M322.806 266.49H318.268V269.684H322.806V266.49Z" fill="black"/>
<path d="M322.806 271.681H318.268V274.875H322.806V271.681Z" fill="black"/>
<path d="M343.919 309.415V275.674H324.977V309.415H328.134V278.868H340.762V309.415H343.919Z" fill="black"/>
<path d="M332.08 294.84H329.712V297.236H332.08V294.84Z" fill="black"/>
<path d="M335.632 294.84H333.264V297.236H335.632V294.84Z" fill="black"/>
<path d="M338.986 294.84H336.618V297.236H338.986V294.84Z" fill="black"/>
<path d="M332.277 289.05H329.91V291.446H332.277V289.05Z" fill="black"/>
<path d="M335.829 289.05H333.461V291.446H335.829V289.05Z" fill="black"/>
<path d="M338.986 289.05H336.618V291.446H338.986V289.05Z" fill="black"/>
<path d="M332.277 283.061H329.91V285.457H332.277V283.061Z" fill="black"/>
<path d="M335.829 283.061H333.461V285.457H335.829V283.061Z" fill="black"/>
<path d="M338.986 283.061H336.618V285.457H338.986V283.061Z" fill="black"/>
<path d="M332.08 267.089H329.712V269.484H332.08V267.089Z" fill="black"/>
<path d="M335.632 267.089H333.264V269.484H335.632V267.089Z" fill="black"/>
<path d="M338.986 267.089H336.618V269.484H338.986V267.089Z" fill="black"/>
<path d="M332.277 261.498H329.91V263.894H332.277V261.498Z" fill="black"/>
<path d="M335.829 261.498H333.461V263.894H335.829V261.498Z" fill="black"/>
<path d="M338.986 261.498H336.618V263.894H338.986V261.498Z" fill="black"/>
<path d="M332.277 255.309H329.91V257.705H332.277V255.309Z" fill="black"/>
<path d="M335.829 255.309H333.461V257.705H335.829V255.309Z" fill="black"/>
<path d="M338.986 255.309H336.618V257.705H338.986V255.309Z" fill="black"/>
<path d="M328.923 252.913H339.973V274.875H343.13V249.719H325.963V274.875H328.923V252.913Z" fill="black"/>
<path d="M330.896 244.328H338.394V248.321H341.354V241.333H327.739V248.321H330.896V244.328Z" fill="black"/>
<path d="M333.067 229.554H336.026V238.538H339.183V226.559H330.107V238.538H333.067V229.554Z" fill="black"/>
<path d="M363.65 309.415V279.467H346.879V282.661H360.691V309.415H363.65Z" fill="black"/>
<path d="M357.928 283.859H346.879V286.854H357.928V283.859Z" fill="black"/>
<path d="M357.928 288.651H346.879V291.646H357.928V288.651Z" fill="black"/>
<path d="M357.928 293.642H346.879V296.637H357.928V293.642Z" fill="black"/>
<path d="M357.928 298.634H346.879V301.628H357.928V298.634Z" fill="black"/>
<path d="M357.928 304.024H346.879V307.019H357.928V304.024Z" fill="black"/>
<path d="M384.763 309.415H387.92V244.727H345.3V247.922H384.763V309.415Z" fill="black"/>
<path d="M351.614 249.719H346.879V252.714H351.614V249.719Z" fill="black"/>
<path d="M361.085 249.719H356.35V252.714H361.085V249.719Z" fill="black"/>
<path d="M370.359 249.719H365.623V252.714H370.359V249.719Z" fill="black"/>
<path d="M380.027 249.719H375.292V252.714H380.027V249.719Z" fill="black"/>
<path d="M351.614 254.91H346.879V257.905H351.614V254.91Z" fill="black"/>
<path d="M361.085 254.91H356.35V257.905H361.085V254.91Z" fill="black"/>
<path d="M370.359 254.91H365.623V257.905H370.359V254.91Z" fill="black"/>
<path d="M380.027 254.91H375.292V257.905H380.027V254.91Z" fill="black"/>
<path d="M351.614 261.099H346.879V264.094H351.614V261.099Z" fill="black"/>
<path d="M361.085 261.099H356.35V264.094H361.085V261.099Z" fill="black"/>
<path d="M370.359 261.099H365.623V264.094H370.359V261.099Z" fill="black"/>
<path d="M380.027 261.099H375.292V264.094H380.027V261.099Z" fill="black"/>
<path d="M351.614 266.689H346.879V269.684H351.614V266.689Z" fill="black"/>
<path d="M361.085 266.689H356.35V269.684H361.085V266.689Z" fill="black"/>
<path d="M370.359 266.689H365.623V269.684H370.359V266.689Z" fill="black"/>
<path d="M380.027 266.689H375.292V269.684H380.027V266.689Z" fill="black"/>
<path d="M351.614 271.88H346.879V274.875H351.614V271.88Z" fill="black"/>
<path d="M361.085 271.88H356.35V274.875H361.085V271.88Z" fill="black"/>
<path d="M370.359 271.88H365.623V274.875H370.359V271.88Z" fill="black"/>
<path d="M380.027 271.88H375.292V274.875H380.027V271.88Z" fill="black"/>
<path d="M370.359 281.464H365.623V284.458H370.359V281.464Z" fill="black"/>
<path d="M380.027 281.464H375.292V284.458H380.027V281.464Z" fill="black"/>
<path d="M370.556 287.453H365.821V290.448H370.556V287.453Z" fill="black"/>
<path d="M380.027 287.453H375.292V290.448H380.027V287.453Z" fill="black"/>
<path d="M370.359 291.846H365.623V294.84H370.359V291.846Z" fill="black"/>
<path d="M380.027 291.846H375.292V294.84H380.027V291.846Z" fill="black"/>
<path d="M370.556 297.635H365.821V300.63H370.556V297.635Z" fill="black"/>
<path d="M380.027 297.635H375.292V300.63H380.027V297.635Z" fill="black"/>
<path d="M370.556 304.024H365.821V307.019H370.556V304.024Z" fill="black"/>
<path d="M380.027 304.024H375.292V307.019H380.027V304.024Z" fill="black"/>
<path d="M392.064 287.653H396.602V245.526H402.916V240.135H429.948V281.064H433.105V237.141H399.956V242.531H393.445V284.458H389.104V308.616H392.064V287.653Z" fill="black"/>
<path d="M433.105 308.616V285.257H398.378V308.616H401.337V288.252H429.948V308.616H433.105Z" fill="black"/>
<path d="M402.916 228.156H412.584V235.743H420.674V228.156H426.396V235.144H429.553V225.161H417.714V232.748H415.544V225.161H399.956V235.144H402.916V228.156Z" fill="black"/>
<path d="M437.446 259.102H445.536V308.616H448.496V256.108H434.486V308.616H437.446V259.102Z" fill="black"/>
<path d="M437.446 225.361H440.011V237.54H444.155V252.714H447.114V234.545H442.971V222.366H434.486V252.714H437.446V225.361Z" fill="black"/>
<path d="M446.325 227.158H448.496V221.767H455.796V213.582H463.491V221.368H471.581V229.554L473.949 232.349V241.333H480.658V252.714H483.815V238.339H476.909V231.151L474.541 228.356V218.373H466.648V210.587H452.639V218.773H445.536V224.163H443.365V231.75H446.325V227.158Z" fill="black"/>
<path d="M486.774 273.278V256.108H478.29V259.102H483.815V273.278H486.774Z" fill="black"/>
<path d="M489.931 308.616V276.273H471.779V281.464H463.689V284.458H459.348V287.453H455.007V293.642H449.482V308.616H452.442V296.837H458.164V290.648H462.307V287.653H466.648V284.458H474.738V279.467H486.972V308.616H489.931Z" fill="black"/>
<path d="M449.482 290.248H452.442V286.854H456.783V259.102H459.545V245.726H461.518V236.741L463.689 232.349L466.846 236.741V245.326H469.213V259.102H472.568V274.076H475.528V256.108H472.371V242.132H469.805V235.743L463.294 226.759L458.361 235.943V242.731H456.585V256.108H453.823V283.859H449.482V290.248Z" fill="black"/>
<path d="M522.488 309.415V275.873H510.649V269.285H497.035V276.273H492.102V279.467H499.995V272.479H507.493V278.868H519.529V309.415H522.488Z" fill="black"/>
<path d="M478.685 214.78H497.627V229.554H500.586V211.785H475.528V225.161H478.685V214.78Z" fill="black"/>
<path d="M493.681 274.476V240.535H488.55V239.736H491.313V233.946H495.456V236.542H503.152V238.139H506.309V233.547H498.416V230.951H488.353V236.741H485.393V253.512H488.55V243.53H490.721V274.476H493.681Z" fill="black"/>
<path d="M508.282 241.533H499.995V266.49H502.954V244.528H511.439V239.736H523.278V244.528H531.762V276.472H534.722V241.533H526.237V236.741H508.282V241.533Z" fill="black"/>
<path d="M582.669 308.616V286.455H569.252V279.467H526.435V282.661H566.292V289.45H579.71V308.616H582.669Z" fill="black"/>
<path d="M511.241 234.146H514.201V219.771H540.247V254.71H543.404V216.776H511.241V234.146Z" fill="black"/>
<path d="M580.499 283.061V225.161H546.363V259.901H549.323V228.156H577.539V283.061H580.499Z" fill="black"/>
<path d="M505.322 205.596H508.084V201.003H512.82V198.009H505.125V202.601H502.362V230.752H505.322V205.596Z" fill="black"/>
<path d="M517.161 190.821H525.054V187.826H514.201V215.179H517.161V190.821Z" fill="black"/>
<path d="M552.48 194.615H524.856V200.804H521.107V215.179H524.264V203.799H527.816V197.609H552.48V194.615Z" fill="black"/>
<path d="M551.691 278.069H563.333V275.075H553.467L542.615 258.304H537.682V261.498H541.036L551.691 278.069Z" fill="black"/>
<path d="M539.457 212.184H542.614V208.79H571.817V221.368H574.974V205.595H539.457V212.184Z" fill="black"/>
<path d="M530.776 145.899H536.103V182.835H539.063V145.899H558.202V188.425H561.359V142.905H527.816V192.019H530.776V145.899Z" fill="black"/>
<path d="M573.79 166.663H577.539V159.476H605.755V176.047H608.715V156.281H574.579V163.668H570.83V202.201H573.79V166.663Z" fill="black"/>
<path d="M589.575 297.635H592.732V181.637H625.092V195.014H628.052V178.642H589.575V297.635Z" fill="black"/>
<path d="M645.218 310.214V299.233H634.958V296.038H594.705V300.63H588.194V310.214H591.351V303.625H597.862V299.233H631.998V302.427H642.258V310.214H645.218Z" fill="black"/>
<path d="M683.3 297.635H686.259V279.467H600.625V293.243H603.585V282.661H683.3V297.635Z" fill="black"/>
<path d="M611.083 276.472H614.042V203.799H620.751V201.003H642.258V203.799H649.362V276.472H652.519V200.804H645.218V198.009H617.594V200.804H611.083V276.472Z" fill="black"/>
<path d="M636.733 154.684H676.788V238.938H679.945V193.616H697.112V224.762H700.071V190.422H679.945V179.641H692.179V188.226H695.138V176.646H679.945V151.49H633.774V195.014H636.733V154.684Z" fill="black"/>
<path d="M676.788 276.472H679.945V244.528H685.075V237.939H690.008V246.125H698.69V232.349H703.82V242.931H706.583V246.325H712.305V247.323H715.265V243.33H709.542V239.736H706.977V229.354H695.533V243.13H693.165V234.944H682.116V241.533H676.788V276.472Z" fill="black"/>
<path d="M708.161 248.92V253.313H705.399V261.698H683.3V276.472H686.259V264.693H708.359V256.307H711.318V251.915H714.673V256.108H719.408V265.092H731.642V261.898H722.368V253.113H717.632V248.92H708.161Z" fill="black"/>
<path d="M718.224 250.517H721.381V213.582H732.628V210.587H718.224V250.517Z" fill="black"/>
<path d="M704.807 224.562H711.318V173.451H737.561V170.257H708.161V221.568H701.847V226.559H704.807V224.562Z" fill="black"/>
<path d="M742.099 152.688H753.938V159.476H750.386V171.255H747.427V185.83H750.781V174.45H753.543V162.67H757.095V152.688H764.79V159.476H761.239V171.255H758.476V185.83H761.633V174.45H764.593V162.67H767.947V152.688H776.037V184.632H778.997V149.693H739.14V184.632H742.099V152.688Z" fill="black"/>
<path d="M778.997 235.144V186.828H734.207V284.259H737.166V189.823H776.037V235.144H778.997Z" fill="black"/>
<path d="M868.972 310.214V300.83H861.672V293.842H687.049V299.832H681.326V303.226H673.237V310.214H676.394V306.221H684.286V302.826H690.008V296.837H858.515V303.825H866.013V310.214H868.972Z" fill="black"/>
<path d="M687.049 291.446H690.008V289.849H859.107V291.446H862.066V286.655H687.049V291.446Z" fill="black"/>
<path d="M804.648 243.33V248.92H788.468V251.915H807.608V246.325H811.159V251.915H817.079V284.259H820.038V248.92H814.119V243.33H804.648Z" fill="black"/>
<path d="M798.728 178.443H837.205V181.438H805.24V184.432H837.205V284.259H840.164V175.248H795.571V246.524H798.728V178.443Z" fill="black"/>
<path d="M815.106 154.684H837.205V171.854H840.164V151.49H812.146V171.854H815.106V154.684Z" fill="black"/>
<path d="M785.311 284.259V248.92H774.459H773.078H755.122V284.259H758.082V251.915H773.078V256.307H776.037V284.259H778.997V253.313H776.037V251.915H782.351V284.259H785.311Z" fill="black"/>
<path d="M779.194 237.34H751.965V240.335H779.194V237.34Z" fill="black"/>
<path d="M779.194 243.33H751.965V246.325H779.194V243.33Z" fill="black"/>
<path d="M844.505 170.856H848.254V166.264H851.806V152.688H854.766V172.453H847.465V175.648H854.766V180.04H847.465V183.234H854.766V187.627H847.465V190.821H854.766V195.214H847.465V198.408H854.766V216.377H847.465V219.571H854.766V223.964H847.465V227.158H854.766V231.55H847.465V234.745H854.766V239.137H847.465V242.332H854.766V260.3H847.465V263.694H854.766V267.887H847.465V271.082H854.766V275.474H847.465V278.668H854.766V283.061H847.465V286.255H860.093V283.061H857.726V278.668H860.093V275.474H857.726V271.082H860.093V267.887H857.726V263.694H860.093V260.3H857.726V242.332H860.093V239.137H857.726V234.745H860.093V231.55H857.726V227.158H860.093V223.964H857.726V219.571H860.093V216.377H857.726V198.408H860.093V195.214H857.726V190.821H860.093V187.627H857.726V183.234H860.093V180.04H857.726V175.648H860.093V172.453H857.726V152.688H874.497V162.47H877.457V149.693H857.726H856.344H848.846V163.069H845.097V167.861H841.348V284.259H844.505V170.856Z" fill="black"/>
<path d="M882.587 129.328H889.69V119.944H910.211V129.927H918.104V154.884H921.261V126.932H913.171V116.95H886.533V126.333H879.43V163.269H882.587V129.328Z" fill="black"/>
<path d="M883.574 189.224H886.533V164.667H866.013V297.635H868.972V167.661H883.574V189.224Z" fill="black"/>
<path d="M886.533 195.813H907.251V203.799H916.525V291.446H919.682V200.804H910.408V192.818H883.574V308.616H886.533V195.813Z" fill="black"/>
<path d="M1056.42 308.616V293.842H1049.52V288.451H1023.86V293.842H956.975V290.049H931.521V293.842H914.157V302.427H902.318V310.214H905.476V305.422H917.117V296.837H934.481V293.043H954.015V296.837H1027.02V291.446H1046.56V296.837H1053.26V308.616H1056.42Z" fill="black"/>
<path d="M911.592 169.059H907.054V188.226H910.014V172.054H914.749V161.472H937.046V166.264H940.006V158.477H911.592V169.059Z" fill="black"/>
<path d="M922.05 190.222H916.525V199.207H919.682V193.417H925.01V173.451H940.203V286.655H943.163V170.257H922.05V190.222Z" fill="black"/>
<path d="M965.459 289.849H968.419V243.33H947.109V246.325H965.459V289.849Z" fill="black"/>
<path d="M952.634 209.589H961.71V206.594H949.674V216.177H947.109V219.372H952.634V209.589Z" fill="black"/>
<path d="M967.235 206.793H1018.93V229.354H1022.09V203.799H964.275V238.938H967.235V206.793Z" fill="black"/>
<path d="M972.562 184.432H991.702V194.215H994.662V184.432H1001.77V199.207H1004.72V181.438H969.603V199.207H972.562V184.432Z" fill="black"/>
<path d="M1027.02 206.793H1032.94V195.813H1045.96V206.793H1049.71V226.559H1052.67V203.799H1048.92V192.818H1029.78V203.799H1023.86V216.177H1027.02V206.793Z" fill="black"/>
<path d="M1051.09 229.753H1047.94V226.559H1044.38V220.569H1025.44V223.564H1041.23V229.554H1044.98V232.748H1048.13V237.74H1054.84V234.745H1051.09V229.753Z" fill="black"/>
<path d="M1009.66 240.135H1006.11V291.446H1009.07V243.33H1012.81V233.347H1036.89V237.74H1042.21V242.931H1063.52V284.259H1066.48V239.936H1045.17V234.745H1039.85V230.352H1009.66V240.135Z" fill="black"/>
<path d="M1063.52 236.342H1066.48V232.748H1088.98V280.665H1091.94V229.753H1063.52V236.342Z" fill="black"/>
<path d="M1115.62 233.148V238.738H1100.03V230.352H1094.5V233.347H1096.87V241.733H1118.58V236.142H1130.02V244.128H1136.33V249.918H1139.88V251.516H1143.04V246.724H1139.29V241.134H1133.18V233.148H1115.62Z" fill="black"/>
<path d="M1088.98 226.559H1091.94V221.767H1102.59V230.752H1110.88V234.346H1113.84V227.557H1105.55V218.773H1088.98V226.559Z" fill="black"/>
<path d="M1088.19 189.823H1091.94V186.229H1099.83V199.207H1102.99V183.035H1088.98V186.828H1085.23V212.983H1088.19V189.823Z" fill="black"/>
<path d="M1099.83 202.401V206.594H1092.92V214.979H1095.88V209.589H1102.99V205.595H1103.78V209.589H1107.13V221.967H1110.09V206.594H1106.74V202.401H1099.83Z" fill="black"/>
<path d="M1107.13 200.205H1110.88V206.793H1116.4V219.372H1119.17V229.354H1122.32V216.177H1119.56V203.799H1113.84V197.21H1110.09V192.818H1105.55V195.813H1107.13V200.205Z" fill="black"/>
<path d="M1148.57 308.616V292.444H1131.2V295.439H1145.61V308.616H1148.57Z" fill="black"/>
<path d="M1079.31 308.616V290.049H1065.1V298.434H1058.99V308.616H1061.95V301.628H1068.06V293.043H1076.15V308.616H1079.31Z" fill="black"/>
<path d="M1114.63 308.616V296.038H1084.24V308.616H1087.2V299.233H1111.67V308.616H1114.63Z" fill="black"/>
<path d="M1099.44 285.257H1084.24V293.842H1087.2V288.252H1096.28V293.043H1105.55V290.049H1099.44V285.257Z" fill="black"/>
<path d="M1109.1 285.257V293.842H1112.06V288.252H1120.75V293.043H1124.89V308.616H1127.85V290.049H1123.71V285.257H1109.1Z" fill="black"/>
<path d="M550.507 203.399L567.279 203.599L558.794 195.014L550.507 203.399Z" fill="black"/>
<path d="M1058.99 227.957H1066.68V226.359H1058.99L1059.38 222.766H1066.68V221.168H1059.38L1059.78 217.575H1066.68V215.977H1059.78L1060.17 212.384H1066.68V210.786H1060.17L1060.56 207.193H1066.68V205.595H1060.56L1060.96 201.602H1066.68V200.405H1061.16L1061.35 196.611H1066.68V195.214H1061.55L1061.75 191.22H1066.68V190.023H1061.95L1062.14 186.229H1066.68V185.031H1062.34L1062.54 180.839H1066.68V179.641H1062.74L1062.93 175.648H1066.68V174.649H1063.13L1063.33 170.457H1066.68V169.259H1063.52L1063.72 164.866H1066.68V164.068H1063.92L1064.12 159.875H1066.68V158.877H1064.31L1065.69 139.91H1067.67V200.804H1070.83V136.715H1066.09L1068.46 104.97L1074.38 156.281V226.559H1076.74V177.245L1082.47 227.358L1085.62 226.958L1069.84 88H1066.48L1057.41 205.595V206.594L1055.43 231.75L1058.59 231.95L1058.99 227.957Z" fill="black"/>
<path d="M1042.21 184.632L1038.27 189.623H1046.36L1042.21 184.632Z" fill="black"/>
<path d="M826.945 132.123H825.366V148.495H826.945V132.123Z" fill="black"/>
<path d="M831.285 132.123H829.707V148.495H831.285V132.123Z" fill="black"/>
<path d="M893.834 123.139H891.466V188.226H893.834V123.139Z" fill="black"/>
<path d="M900.148 123.139H897.78V188.625H900.148V123.139Z" fill="black"/>
<path d="M905.476 123.139H903.108V188.226H905.476V123.139Z" fill="black"/>
<path d="M923.628 265.292V266.889H927.772V281.863H929.351V266.889H937.638V265.292H929.351V259.102H937.638V257.505H929.351V251.316H937.638V249.719H929.351V244.927H937.638V243.33H929.351V222.766H937.638V221.168H929.351V215.778H937.638V214.181H929.351V207.392H937.638V205.795H929.351V200.005H937.638V198.408H929.351V176.845H927.772V198.408H923.628V200.005H927.772V205.795H923.628V207.392H927.772V214.181H923.628V215.778H927.772V221.168H923.628V222.766H927.772V243.33H923.628V244.927H927.772V249.719H923.628V251.316H927.772V257.505H923.628V259.102H927.772V265.292H923.628Z" fill="black"/>
<path d="M896.794 289.849V278.069H914.355V276.472H896.794V270.083H914.355V268.486H896.794V262.896H914.355V261.299H896.794V255.708H914.355V254.111H896.794V233.747H912.776V232.149H896.794V225.96H912.776V224.363H896.794V218.573H912.776V216.976H896.794V211.585H912.776V209.988H896.794V205.196H895.215V209.988H891.861V211.585H895.215V216.976H891.861V218.573H895.215V224.363H891.861V225.96H895.215V232.149H891.861V233.747H895.215V254.111H893.439V255.708H895.215V261.299H893.439V262.896H895.215V268.486H893.439V270.083H895.215V276.472H893.439V278.069H895.215V289.849H896.794Z" fill="black"/>
<path d="M406.468 245.526H404.889V282.062H406.468V245.526Z" fill="black"/>
<path d="M410.414 245.526H408.835V282.062H410.414V245.526Z" fill="black"/>
<path d="M414.163 245.526H412.584V282.062H414.163V245.526Z" fill="black"/>
<path d="M417.912 245.526H416.333V282.062H417.912V245.526Z" fill="black"/>
<path d="M421.858 245.526H420.28V282.062H421.858V245.526Z" fill="black"/>
<path d="M425.607 245.526H424.029V282.062H425.607V245.526Z" fill="black"/>
<path d="M409.625 290.847H404.889V292.444H409.625V290.847Z" fill="black"/>
<path d="M417.32 290.847H412.584V292.444H417.32V290.847Z" fill="black"/>
<path d="M424.818 290.847H420.082V292.444H424.818V290.847Z" fill="black"/>
<path d="M409.625 294.441H404.889V296.038H409.625V294.441Z" fill="black"/>
<path d="M417.32 294.441H412.584V296.038H417.32V294.441Z" fill="black"/>
<path d="M424.818 294.441H420.082V296.038H424.818V294.441Z" fill="black"/>
<path d="M409.625 298.234H404.889V299.832H409.625V298.234Z" fill="black"/>
<path d="M417.32 298.234H412.584V299.832H417.32V298.234Z" fill="black"/>
<path d="M424.818 298.234H420.082V299.832H424.818V298.234Z" fill="black"/>
<path d="M409.625 301.828H404.889V303.425H409.625V301.828Z" fill="black"/>
<path d="M417.32 301.828H412.584V303.425H417.32V301.828Z" fill="black"/>
<path d="M424.818 301.828H420.082V303.425H424.818V301.828Z" fill="black"/>
<path d="M441.392 261.299H438.432V263.694H441.392V261.299Z" fill="black"/>
<path d="M441.392 265.891H438.432V268.286H441.392V265.891Z" fill="black"/>
<path d="M441.392 270.483H438.432V272.878H441.392V270.483Z" fill="black"/>
<path d="M441.392 277.271H438.432V279.667H441.392V277.271Z" fill="black"/>
<path d="M441.392 281.863H438.432V284.259H441.392V281.863Z" fill="black"/>
<path d="M441.392 286.255H438.432V288.651H441.392V286.255Z" fill="black"/>
<path d="M441.392 294.441H438.432V296.837H441.392V294.441Z" fill="black"/>
<path d="M441.392 299.033H438.432V301.429H441.392V299.033Z" fill="black"/>
<path d="M441.392 303.625H438.432V306.021H441.392V303.625Z" fill="black"/>
<path d="M450.469 225.161H449.679V232.349H450.469V225.161Z" fill="black"/>
<path d="M450.469 234.944H449.679V242.132H450.469V234.944Z" fill="black"/>
<path d="M450.469 246.325H449.679V253.512H450.469V246.325Z" fill="black"/>
<path d="M450.469 258.304H449.679V265.491H450.469V258.304Z" fill="black"/>
<path d="M450.469 270.283H449.679V277.471H450.469V270.283Z" fill="black"/>
<path d="M453.231 225.161H452.442V232.349H453.231V225.161Z" fill="black"/>
<path d="M456.191 225.161H455.402V232.349H456.191V225.161Z" fill="black"/>
<path d="M459.15 225.161H458.361V232.349H459.15V225.161Z" fill="black"/>
<path d="M469.608 225.161H468.819V232.349H469.608V225.161Z" fill="black"/>
<path d="M474.344 245.526H473.554V252.714H474.344V245.526Z" fill="black"/>
<path d="M477.303 245.526H476.514V252.714H477.303V245.526Z" fill="black"/>
<path d="M453.231 234.944H452.442V242.132H453.231V234.944Z" fill="black"/>
<path d="M453.231 246.325H452.442V253.512H453.231V246.325Z" fill="black"/>
<path d="M463.294 248.321H461.716V278.469H463.294V248.321Z" fill="black"/>
<path d="M468.227 248.321H466.648V270.283H468.227V248.321Z" fill="black"/>
<path d="M481.842 261.698H477.106V263.295H481.842V261.698Z" fill="black"/>
<path d="M481.842 264.693H477.106V266.29H481.842V264.693Z" fill="black"/>
<path d="M481.842 267.688H477.106V269.285H481.842V267.688Z" fill="black"/>
<path d="M481.842 270.682H477.106V272.28H481.842V270.682Z" fill="black"/>
<path d="M484.604 285.856H469.214V287.453H484.604V285.856Z" fill="black"/>
<path d="M484.604 289.45H465.07V291.047H484.604V289.45Z" fill="black"/>
<path d="M484.604 293.443H460.729V295.04H484.604V293.443Z" fill="black"/>
<path d="M484.604 297.036H459.94V298.634H484.604V297.036Z" fill="black"/>
<path d="M484.604 300.63H455.796V302.227H484.604V300.63Z" fill="black"/>
<path d="M484.604 304.024H455.796V305.622H484.604V304.024Z" fill="black"/>
<path d="M482.236 221.368H479.869V225.76H482.236V221.368Z" fill="black"/>
<path d="M486.577 221.368H484.209V225.76H486.577V221.368Z" fill="black"/>
<path d="M490.918 221.368H488.55V225.76H490.918V221.368Z" fill="black"/>
<path d="M495.259 221.368H492.891V225.76H495.259V221.368Z" fill="black"/>
<path d="M534.13 286.255H527.224V288.651H534.13V286.255Z" fill="black"/>
<path d="M545.377 286.255H538.471V288.651H545.377V286.255Z" fill="black"/>
<path d="M556.032 286.255H549.126V288.651H556.032V286.255Z" fill="black"/>
<path d="M534.327 291.247H527.421V293.642H534.327V291.247Z" fill="black"/>
<path d="M545.377 291.247H538.471V293.642H545.377V291.247Z" fill="black"/>
<path d="M556.229 291.247H549.323V293.642H556.229V291.247Z" fill="black"/>
<path d="M534.525 296.238H527.619V298.634H534.525V296.238Z" fill="black"/>
<path d="M545.574 296.238H538.668V298.634H545.574V296.238Z" fill="black"/>
<path d="M556.426 296.238H549.52V298.634H556.426V296.238Z" fill="black"/>
<path d="M534.722 301.029H527.816V303.425H534.722V301.029Z" fill="black"/>
<path d="M545.772 301.029H538.866V303.425H545.772V301.029Z" fill="black"/>
<path d="M556.624 301.029H549.718V303.425H556.624V301.029Z" fill="black"/>
<path d="M529.197 247.123H504.73V249.519H529.197V247.123Z" fill="black"/>
<path d="M529.197 252.314H504.73V254.71H529.197V252.314Z" fill="black"/>
<path d="M529.197 257.705H504.73V260.101H529.197V257.705Z" fill="black"/>
<path d="M529.197 263.096H504.73V265.491H529.197V263.096Z" fill="black"/>
<path d="M538.274 223.964H516.964V226.359H538.274V223.964Z" fill="black"/>
<path d="M538.076 228.356H516.766V230.752H538.076V228.356Z" fill="black"/>
<path d="M537.879 232.748H516.569V235.144H537.879V232.748Z" fill="black"/>
<path d="M556.229 229.554H550.507V231.95H556.229V229.554Z" fill="black"/>
<path d="M553.467 211.984H547.745V214.38H553.467V211.984Z" fill="black"/>
<path d="M536.103 199.606H530.381V202.002H536.103V199.606Z" fill="black"/>
<path d="M545.969 199.606H540.247V202.002H545.969V199.606Z" fill="black"/>
<path d="M536.103 203.799H530.381V206.194H536.103V203.799Z" fill="black"/>
<path d="M535.906 208.391H530.184V210.786H535.906V208.391Z" fill="black"/>
<path d="M535.906 211.984H530.184V214.38H535.906V211.984Z" fill="black"/>
<path d="M561.754 211.984H556.032V214.38H561.754V211.984Z" fill="black"/>
<path d="M553.467 217.974H547.745V220.37H553.467V217.974Z" fill="black"/>
<path d="M561.951 217.974H556.229V220.37H561.951V217.974Z" fill="black"/>
<path d="M570.238 211.984H564.516V214.38H570.238V211.984Z" fill="black"/>
<path d="M556.229 235.943H550.507V238.339H556.229V235.943Z" fill="black"/>
<path d="M556.229 242.531H550.507V244.927H556.229V242.531Z" fill="black"/>
<path d="M556.229 249.519H550.507V251.915H556.229V249.519Z" fill="black"/>
<path d="M565.503 242.531H559.781V244.927H565.503V242.531Z" fill="black"/>
<path d="M563.328 249.479L557.606 249.57L557.643 251.965L563.365 251.874L563.328 249.479Z" fill="black"/>
<path d="M563.324 254.67L557.602 254.759L557.639 257.155L563.36 257.065L563.324 254.67Z" fill="black"/>
<path d="M555.827 261.257L550.106 261.348L550.143 263.743L555.865 263.652L555.827 261.257Z" fill="black"/>
<path d="M574.176 254.667L568.455 254.756L568.491 257.152L574.213 257.063L574.176 254.667Z" fill="black"/>
<path d="M572.403 262.055L566.681 262.146L566.719 264.542L572.44 264.451L572.403 262.055Z" fill="black"/>
<path d="M572.402 268.045L566.681 268.136L566.718 270.532L572.439 270.441L572.402 268.045Z" fill="black"/>
<path d="M564.707 268.044L558.985 268.135L559.022 270.531L564.744 270.44L564.707 268.044Z" fill="black"/>
<path d="M574.777 242.531H569.055V244.927H574.777V242.531Z" fill="black"/>
<path d="M563.333 229.554H557.61V231.95H563.333V229.554Z" fill="black"/>
<path d="M572.409 235.943H566.687V238.339H572.409V235.943Z" fill="black"/>
<path d="M582.275 166.264H580.696V170.656H582.275V166.264Z" fill="black"/>
<path d="M582.275 172.852H580.696V177.245H582.275V172.852Z" fill="black"/>
<path d="M582.275 179.241H580.696V183.634H582.275V179.241Z" fill="black"/>
<path d="M582.275 185.83H580.696V190.222H582.275V185.83Z" fill="black"/>
<path d="M582.275 192.418H580.696V196.811H582.275V192.418Z" fill="black"/>
<path d="M582.275 199.007H580.696V203.399H582.275V199.007Z" fill="black"/>
<path d="M582.275 205.595H580.696V209.988H582.275V205.595Z" fill="black"/>
<path d="M582.275 212.184H580.696V216.576H582.275V212.184Z" fill="black"/>
<path d="M587.207 166.264H585.629V170.656H587.207V166.264Z" fill="black"/>
<path d="M587.207 172.852H585.629V177.245H587.207V172.852Z" fill="black"/>
<path d="M591.548 166.264H589.97V170.656H591.548V166.264Z" fill="black"/>
<path d="M591.548 172.852H589.97V177.245H591.548V172.852Z" fill="black"/>
<path d="M595.889 166.264H594.311V170.656H595.889V166.264Z" fill="black"/>
<path d="M595.889 172.852H594.311V177.245H595.889V172.852Z" fill="black"/>
<path d="M600.625 166.264H599.046V170.656H600.625V166.264Z" fill="black"/>
<path d="M600.625 172.852H599.046V177.245H600.625V172.852Z" fill="black"/>
<path d="M587.207 179.241H585.629V183.634H587.207V179.241Z" fill="black"/>
<path d="M587.207 185.83H585.629V190.222H587.207V185.83Z" fill="black"/>
<path d="M587.207 192.418H585.629V196.811H587.207V192.418Z" fill="black"/>
<path d="M587.207 199.007H585.629V203.399H587.207V199.007Z" fill="black"/>
<path d="M587.207 205.595H585.629V209.988H587.207V205.595Z" fill="black"/>
<path d="M587.207 212.184H585.629V216.576H587.207V212.184Z" fill="black"/>
<path d="M599.441 184.432H597.862V188.825H599.441V184.432Z" fill="black"/>
<path d="M599.441 191.021H597.862V195.413H599.441V191.021Z" fill="black"/>
<path d="M599.441 197.609H597.862V202.002H599.441V197.609Z" fill="black"/>
<path d="M599.441 203.998H597.862V208.391H599.441V203.998Z" fill="black"/>
<path d="M599.441 210.587H597.862V214.979H599.441V210.587Z" fill="black"/>
<path d="M599.441 217.175H597.862V221.568H599.441V217.175Z" fill="black"/>
<path d="M599.441 223.764H597.862V228.156H599.441V223.764Z" fill="black"/>
<path d="M599.441 230.352H597.862V234.745H599.441V230.352Z" fill="black"/>
<path d="M599.441 237.54H597.862V241.932H599.441V237.54Z" fill="black"/>
<path d="M599.441 244.128H597.862V248.521H599.441V244.128Z" fill="black"/>
<path d="M604.374 237.54H602.795V241.932H604.374V237.54Z" fill="black"/>
<path d="M604.374 244.128H602.795V248.521H604.374V244.128Z" fill="black"/>
<path d="M599.638 250.717H598.06V255.109H599.638V250.717Z" fill="black"/>
<path d="M604.374 250.717H602.795V255.109H604.374V250.717Z" fill="black"/>
<path d="M604.374 184.432H602.795V188.825H604.374V184.432Z" fill="black"/>
<path d="M604.374 191.021H602.795V195.413H604.374V191.021Z" fill="black"/>
<path d="M604.374 197.609H602.795V202.002H604.374V197.609Z" fill="black"/>
<path d="M607.926 184.432H606.347V188.825H607.926V184.432Z" fill="black"/>
<path d="M607.926 191.021H606.347V195.413H607.926V191.021Z" fill="black"/>
<path d="M611.674 184.432H610.096V188.825H611.674V184.432Z" fill="black"/>
<path d="M611.674 191.021H610.096V195.413H611.674V191.021Z" fill="black"/>
<path d="M615.226 184.432H613.648V188.825H615.226V184.432Z" fill="black"/>
<path d="M615.226 191.021H613.648V195.413H615.226V191.021Z" fill="black"/>
<path d="M618.778 184.432H617.199V188.825H618.778V184.432Z" fill="black"/>
<path d="M618.778 191.021H617.199V195.413H618.778V191.021Z" fill="black"/>
<path d="M622.132 184.432H620.554V188.825H622.132V184.432Z" fill="black"/>
<path d="M622.132 191.021H620.554V195.413H622.132V191.021Z" fill="black"/>
<path d="M607.926 197.609H606.347V202.002H607.926V197.609Z" fill="black"/>
<path d="M604.374 203.998H602.795V208.391H604.374V203.998Z" fill="black"/>
<path d="M604.374 210.587H602.795V214.979H604.374V210.587Z" fill="black"/>
<path d="M604.374 217.175H602.795V221.568H604.374V217.175Z" fill="black"/>
<path d="M604.374 223.764H602.795V228.156H604.374V223.764Z" fill="black"/>
<path d="M604.374 230.352H602.795V234.745H604.374V230.352Z" fill="black"/>
<path d="M607.728 260.7H594.705V262.297H607.728V260.7Z" fill="black"/>
<path d="M607.728 265.891H594.705V267.488H607.728V265.891Z" fill="black"/>
<path d="M607.728 270.083H594.705V271.681H607.728V270.083Z" fill="black"/>
<path d="M607.728 275.075H594.705V276.672H607.728V275.075Z" fill="black"/>
<path d="M622.329 206.793H616.805V209.988H622.329V206.793Z" fill="black"/>
<path d="M630.222 206.793H624.697V209.988H630.222V206.793Z" fill="black"/>
<path d="M638.115 206.793H632.59V209.988H638.115V206.793Z" fill="black"/>
<path d="M646.205 206.793H640.68V209.988H646.205V206.793Z" fill="black"/>
<path d="M622.329 211.186H616.805V214.38H622.329V211.186Z" fill="black"/>
<path d="M630.222 211.186H624.697V214.38H630.222V211.186Z" fill="black"/>
<path d="M638.115 211.186H632.59V214.38H638.115V211.186Z" fill="black"/>
<path d="M646.205 211.186H640.68V214.38H646.205V211.186Z" fill="black"/>
<path d="M622.329 215.778H616.805V218.972H622.329V215.778Z" fill="black"/>
<path d="M630.222 215.778H624.697V218.972H630.222V215.778Z" fill="black"/>
<path d="M638.115 215.778H632.59V218.972H638.115V215.778Z" fill="black"/>
<path d="M646.205 215.778H640.68V218.972H646.205V215.778Z" fill="black"/>
<path d="M647.586 156.281H642.061V159.476H647.586V156.281Z" fill="black"/>
<path d="M655.676 156.281H650.151V159.476H655.676V156.281Z" fill="black"/>
<path d="M663.568 156.281H658.043V159.476H663.568V156.281Z" fill="black"/>
<path d="M671.461 156.281H665.936V159.476H671.461V156.281Z" fill="black"/>
<path d="M647.586 160.674H642.061V163.868H647.586V160.674Z" fill="black"/>
<path d="M655.676 160.674H650.151V163.868H655.676V160.674Z" fill="black"/>
<path d="M663.568 160.674H658.043V163.868H663.568V160.674Z" fill="black"/>
<path d="M671.461 160.674H665.936V163.868H671.461V160.674Z" fill="black"/>
<path d="M647.586 165.266H642.061V168.46H647.586V165.266Z" fill="black"/>
<path d="M655.676 165.266H650.151V168.46H655.676V165.266Z" fill="black"/>
<path d="M663.568 165.266H658.043V168.46H663.568V165.266Z" fill="black"/>
<path d="M671.461 165.266H665.936V168.46H671.461V165.266Z" fill="black"/>
<path d="M646.402 177.045H640.877V180.24H646.402V177.045Z" fill="black"/>
<path d="M654.492 177.045H648.967V180.24H654.492V177.045Z" fill="black"/>
<path d="M662.384 177.045H656.859V180.24H662.384V177.045Z" fill="black"/>
<path d="M670.277 177.045H664.752V180.24H670.277V177.045Z" fill="black"/>
<path d="M646.402 181.637H640.877V184.832H646.402V181.637Z" fill="black"/>
<path d="M654.492 181.637H648.967V184.832H654.492V181.637Z" fill="black"/>
<path d="M662.384 181.637H656.859V184.832H662.384V181.637Z" fill="black"/>
<path d="M670.277 181.637H664.752V184.832H670.277V181.637Z" fill="black"/>
<path d="M646.402 186.03H640.877V189.224H646.402V186.03Z" fill="black"/>
<path d="M654.492 186.03H648.967V189.224H654.492V186.03Z" fill="black"/>
<path d="M662.384 186.03H656.859V189.224H662.384V186.03Z" fill="black"/>
<path d="M670.277 186.03H664.752V189.224H670.277V186.03Z" fill="black"/>
<path d="M659.425 200.205H653.9V203.399H659.425V200.205Z" fill="black"/>
<path d="M667.317 200.205H661.792V203.399H667.317V200.205Z" fill="black"/>
<path d="M675.407 200.205H669.882V203.399H675.407V200.205Z" fill="black"/>
<path d="M659.425 204.597H653.9V207.792H659.425V204.597Z" fill="black"/>
<path d="M667.317 204.597H661.792V207.792H667.317V204.597Z" fill="black"/>
<path d="M675.407 204.597H669.882V207.792H675.407V204.597Z" fill="black"/>
<path d="M659.425 209.189H653.9V212.384H659.425V209.189Z" fill="black"/>
<path d="M667.317 209.189H661.792V212.384H667.317V209.189Z" fill="black"/>
<path d="M675.407 209.189H669.882V212.384H675.407V209.189Z" fill="black"/>
<path d="M659.622 221.967H654.097V225.161H659.622V221.967Z" fill="black"/>
<path d="M667.514 221.967H661.99V225.161H667.514V221.967Z" fill="black"/>
<path d="M675.407 221.967H669.882V225.161H675.407V221.967Z" fill="black"/>
<path d="M659.622 226.559H654.097V229.753H659.622V226.559Z" fill="black"/>
<path d="M667.514 226.559H661.99V229.753H667.514V226.559Z" fill="black"/>
<path d="M675.407 226.559H669.882V229.753H675.407V226.559Z" fill="black"/>
<path d="M659.622 230.951H654.097V234.146H659.622V230.951Z" fill="black"/>
<path d="M667.514 230.951H661.99V234.146H667.514V230.951Z" fill="black"/>
<path d="M675.407 230.951H669.882V234.146H675.407V230.951Z" fill="black"/>
<path d="M659.622 243.13H654.097V246.325H659.622V243.13Z" fill="black"/>
<path d="M667.514 243.13H661.99V246.325H667.514V243.13Z" fill="black"/>
<path d="M675.407 243.13H669.882V246.325H675.407V243.13Z" fill="black"/>
<path d="M659.622 247.523H654.097V250.717H659.622V247.523Z" fill="black"/>
<path d="M667.514 247.523H661.99V250.717H667.514V247.523Z" fill="black"/>
<path d="M675.407 247.523H669.882V250.717H675.407V247.523Z" fill="black"/>
<path d="M659.622 252.115H654.097V255.309H659.622V252.115Z" fill="black"/>
<path d="M667.514 252.115H661.99V255.309H667.514V252.115Z" fill="black"/>
<path d="M675.407 252.115H669.882V255.309H675.407V252.115Z" fill="black"/>
<path d="M659.622 265.491H654.097V268.686H659.622V265.491Z" fill="black"/>
<path d="M667.514 265.491H661.99V268.686H667.514V265.491Z" fill="black"/>
<path d="M675.407 265.491H669.882V268.686H675.407V265.491Z" fill="black"/>
<path d="M659.622 270.083H654.097V273.278H659.622V270.083Z" fill="black"/>
<path d="M667.514 270.083H661.99V273.278H667.514V270.083Z" fill="black"/>
<path d="M675.407 270.083H669.882V273.278H675.407V270.083Z" fill="black"/>
<path d="M622.329 230.951H616.805V234.146H622.329V230.951Z" fill="black"/>
<path d="M630.222 230.951H624.697V234.146H630.222V230.951Z" fill="black"/>
<path d="M638.115 230.951H632.59V234.146H638.115V230.951Z" fill="black"/>
<path d="M646.205 230.951H640.68V234.146H646.205V230.951Z" fill="black"/>
<path d="M622.329 235.543H616.805V238.738H622.329V235.543Z" fill="black"/>
<path d="M630.222 235.543H624.697V238.738H630.222V235.543Z" fill="black"/>
<path d="M638.115 235.543H632.59V238.738H638.115V235.543Z" fill="black"/>
<path d="M646.205 235.543H640.68V238.738H646.205V235.543Z" fill="black"/>
<path d="M622.329 239.936H616.805V243.13H622.329V239.936Z" fill="black"/>
<path d="M630.222 239.936H624.697V243.13H630.222V239.936Z" fill="black"/>
<path d="M638.115 239.936H632.59V243.13H638.115V239.936Z" fill="black"/>
<path d="M646.205 239.936H640.68V243.13H646.205V239.936Z" fill="black"/>
<path d="M694.152 267.887H688.627V271.082H694.152V267.887Z" fill="black"/>
<path d="M702.044 267.887H696.52V271.082H702.044V267.887Z" fill="black"/>
<path d="M709.937 267.887H704.412V271.082H709.937V267.887Z" fill="black"/>
<path d="M718.027 267.887H712.502V271.082H718.027V267.887Z" fill="black"/>
<path d="M694.152 272.28H688.627V275.474H694.152V272.28Z" fill="black"/>
<path d="M702.044 272.28H696.52V275.474H702.044V272.28Z" fill="black"/>
<path d="M709.937 272.28H704.412V275.474H709.937V272.28Z" fill="black"/>
<path d="M718.027 272.28H712.502V275.474H718.027V272.28Z" fill="black"/>
<path d="M694.152 276.672H688.627V279.866H694.152V276.672Z" fill="black"/>
<path d="M702.044 276.672H696.52V279.866H702.044V276.672Z" fill="black"/>
<path d="M709.937 276.672H704.412V279.866H709.937V276.672Z" fill="black"/>
<path d="M718.027 276.672H712.502V279.866H718.027V276.672Z" fill="black"/>
<path d="M725.919 267.887H720.395V271.082H725.919V267.887Z" fill="black"/>
<path d="M725.919 272.28H720.395V275.474H725.919V272.28Z" fill="black"/>
<path d="M725.919 276.672H720.395V279.866H725.919V276.672Z" fill="black"/>
<path d="M622.329 256.507H616.805V259.701H622.329V256.507Z" fill="black"/>
<path d="M630.222 256.507H624.697V259.701H630.222V256.507Z" fill="black"/>
<path d="M638.115 256.507H632.59V259.701H638.115V256.507Z" fill="black"/>
<path d="M646.205 256.507H640.68V259.701H646.205V256.507Z" fill="black"/>
<path d="M622.329 260.899H616.805V264.094H622.329V260.899Z" fill="black"/>
<path d="M630.222 260.899H624.697V264.094H630.222V260.899Z" fill="black"/>
<path d="M638.115 260.899H632.59V264.094H638.115V260.899Z" fill="black"/>
<path d="M646.205 260.899H640.68V264.094H646.205V260.899Z" fill="black"/>
<path d="M622.329 265.491H616.805V268.686H622.329V265.491Z" fill="black"/>
<path d="M630.222 265.491H624.697V268.686H630.222V265.491Z" fill="black"/>
<path d="M638.115 265.491H632.59V268.686H638.115V265.491Z" fill="black"/>
<path d="M646.205 265.491H640.68V268.686H646.205V265.491Z" fill="black"/>
<path d="M612.464 283.859H607.136V287.054H612.464V283.859Z" fill="black"/>
<path d="M630.419 283.859H616.805V287.054H630.419V283.859Z" fill="black"/>
<path d="M648.967 283.859H635.352V287.054H648.967V283.859Z" fill="black"/>
<path d="M667.514 283.859H653.9V287.054H667.514V283.859Z" fill="black"/>
<path d="M612.464 288.651H607.136V291.845H612.464V288.651Z" fill="black"/>
<path d="M630.419 288.651H616.805V291.845H630.419V288.651Z" fill="black"/>
<path d="M648.967 288.651H635.352V291.845H648.967V288.651Z" fill="black"/>
<path d="M667.514 288.651H653.9V291.845H667.514V288.651Z" fill="black"/>
<path d="M683.102 195.014H681.524V229.554H683.102V195.014Z" fill="black"/>
<path d="M688.035 195.014H686.457V229.554H688.035V195.014Z" fill="black"/>
<path d="M692.968 195.014H691.389V229.554H692.968V195.014Z" fill="black"/>
<path d="M729.668 176.446H712.897V179.641H729.668V176.446Z" fill="black"/>
<path d="M729.668 184.233H712.897V187.427H729.668V184.233Z" fill="black"/>
<path d="M729.668 192.019H712.897V195.214H729.668V192.019Z" fill="black"/>
<path d="M729.668 199.806H712.897V203H729.668V199.806Z" fill="black"/>
<path d="M741.31 196.811H739.732V284.458H741.31V196.811Z" fill="black"/>
<path d="M744.664 196.811H743.086V284.458H744.664V196.811Z" fill="black"/>
<path d="M748.216 196.811H746.637V284.458H748.216V196.811Z" fill="black"/>
<path d="M751.57 196.811H749.992V233.547H751.57V196.811Z" fill="black"/>
<path d="M754.925 196.811H753.346V233.547H754.925V196.811Z" fill="black"/>
<path d="M758.279 196.811H756.701V233.547H758.279V196.811Z" fill="black"/>
<path d="M762.028 196.811H760.45V233.547H762.028V196.811Z" fill="black"/>
<path d="M769.329 284.259V254.311H762.423V284.259H764.001V255.908H767.75V284.259H769.329Z" fill="black"/>
<path d="M793.796 182.036H781.365V184.432H793.796V182.036Z" fill="black"/>
<path d="M793.796 187.427H781.365V189.823H793.796V187.427Z" fill="black"/>
<path d="M793.796 192.818H781.365V195.214H793.796V192.818Z" fill="black"/>
<path d="M793.796 198.208H781.365V200.604H793.796V198.208Z" fill="black"/>
<path d="M793.796 203.599H781.365V205.995H793.796V203.599Z" fill="black"/>
<path d="M793.796 208.99H781.365V211.385H793.796V208.99Z" fill="black"/>
<path d="M793.796 214.38H781.365V216.776H793.796V214.38Z" fill="black"/>
<path d="M793.796 219.771H781.365V222.167H793.796V219.771Z" fill="black"/>
<path d="M813.922 254.111H807.805V257.306H813.922V254.111Z" fill="black"/>
<path d="M813.922 259.701H807.805V262.896H813.922V259.701Z" fill="black"/>
<path d="M813.922 265.092H807.805V268.286H813.922V265.092Z" fill="black"/>
<path d="M813.922 270.483H807.805V273.677H813.922V270.483Z" fill="black"/>
<path d="M813.922 276.073H807.805V279.267H813.922V276.073Z" fill="black"/>
<path d="M813.922 281.464H807.805V284.658H813.922V281.464Z" fill="black"/>
<path d="M829.51 158.278H819.841V159.875H829.51V158.278Z" fill="black"/>
<path d="M829.51 161.672H819.841V163.269H829.51V161.672Z" fill="black"/>
<path d="M829.51 165.465H819.841V167.062H829.51V165.465Z" fill="black"/>
<path d="M829.51 169.059H819.841V170.656H829.51V169.059Z" fill="black"/>
<path d="M701.058 299.033H694.152V302.227H701.058V299.033Z" fill="black"/>
<path d="M711.713 299.033H704.807V302.227H711.713V299.033Z" fill="black"/>
<path d="M722.171 299.033H715.265V302.227H722.171V299.033Z" fill="black"/>
<path d="M732.825 299.033H725.919V302.227H732.825V299.033Z" fill="black"/>
<path d="M743.283 299.033H736.377V302.227H743.283V299.033Z" fill="black"/>
<path d="M753.741 299.033H746.835V302.227H753.741V299.033Z" fill="black"/>
<path d="M764.396 299.033H757.49V302.227H764.396V299.033Z" fill="black"/>
<path d="M774.853 299.033H767.947V302.227H774.853V299.033Z" fill="black"/>
<path d="M785.508 299.033H778.602V302.227H785.508V299.033Z" fill="black"/>
<path d="M795.966 299.033H789.06V302.227H795.966V299.033Z" fill="black"/>
<path d="M806.621 299.033H799.715V302.227H806.621V299.033Z" fill="black"/>
<path d="M817.079 299.033H810.173V302.227H817.079V299.033Z" fill="black"/>
<path d="M827.536 299.033H820.63V302.227H827.536V299.033Z" fill="black"/>
<path d="M838.191 299.033H831.285V302.227H838.191V299.033Z" fill="black"/>
<path d="M848.649 299.033H841.743V302.227H848.649V299.033Z" fill="black"/>
<path d="M879.825 181.038V179.441H875.878V174.05H874.3V179.441H870.748V181.038H874.3V186.429H870.748V188.026H874.3V193.417H870.748V195.014H874.3V200.604H870.748V202.201H874.3V224.363H870.748V225.96H874.3V231.151H870.551V232.748H874.3V237.939H870.354V239.536H874.3V244.727H870.156V246.325H874.3V258.304H875.878V246.325H879.233V244.727H875.878V239.536H879.43V237.939H875.878V232.748H879.627V231.151H875.878V225.96H879.825V224.363H875.878V202.201H879.825V200.604H875.878V195.014H879.825V193.417H875.878V188.026H879.825V186.429H875.878V181.038H879.825Z" fill="black"/>
<path d="M975.719 210.387H970.984V213.582H975.719V210.387Z" fill="black"/>
<path d="M984.204 210.387H979.468V213.582H984.204V210.387Z" fill="black"/>
<path d="M992.491 210.387H987.756V213.582H992.491V210.387Z" fill="black"/>
<path d="M1000.78 210.387H996.043V213.582H1000.78V210.387Z" fill="black"/>
<path d="M1009.07 210.387H1004.33V213.582H1009.07V210.387Z" fill="black"/>
<path d="M1000.19 217.175H995.451V220.37H1000.19V217.175Z" fill="black"/>
<path d="M1008.47 217.175H1003.74V220.37H1008.47V217.175Z" fill="black"/>
<path d="M1016.96 217.175H1012.22V220.37H1016.96V217.175Z" fill="black"/>
<path d="M975.719 223.964H970.984V227.158H975.719V223.964Z" fill="black"/>
<path d="M984.204 223.964H979.468V227.158H984.204V223.964Z" fill="black"/>
<path d="M984.204 217.175H979.468V220.37H984.204V217.175Z" fill="black"/>
<path d="M992.491 223.964H987.756V227.158H992.491V223.964Z" fill="black"/>
<path d="M984.204 230.352H979.468V233.547H984.204V230.352Z" fill="black"/>
<path d="M992.491 230.352H987.756V233.547H992.491V230.352Z" fill="black"/>
<path d="M1000.78 230.352H996.043V233.547H1000.78V230.352Z" fill="black"/>
<path d="M976.311 237.141H971.576V240.335H976.311V237.141Z" fill="black"/>
<path d="M984.796 237.141H980.06V240.335H984.796V237.141Z" fill="black"/>
<path d="M992.491 243.33H987.756V246.524H992.491V243.33Z" fill="black"/>
<path d="M1000.78 243.33H996.043V246.524H1000.78V243.33Z" fill="black"/>
<path d="M976.311 250.717H971.576V253.911H976.311V250.717Z" fill="black"/>
<path d="M984.796 250.717H980.06V253.911H984.796V250.717Z" fill="black"/>
<path d="M993.083 250.717H988.348V253.911H993.083V250.717Z" fill="black"/>
<path d="M984.204 256.707H979.468V259.901H984.204V256.707Z" fill="black"/>
<path d="M992.491 256.707H987.756V259.901H992.491V256.707Z" fill="black"/>
<path d="M1000.78 256.707H996.043V259.901H1000.78V256.707Z" fill="black"/>
<path d="M976.311 263.694H971.576V266.889H976.311V263.694Z" fill="black"/>
<path d="M984.796 263.694H980.06V266.889H984.796V263.694Z" fill="black"/>
<path d="M984.796 271.082H980.06V274.276H984.796V271.082Z" fill="black"/>
<path d="M993.083 271.082H988.348V274.276H993.083V271.082Z" fill="black"/>
<path d="M976.311 278.269H971.576V281.464H976.311V278.269Z" fill="black"/>
<path d="M984.796 278.269H980.06V281.464H984.796V278.269Z" fill="black"/>
<path d="M984.796 284.259H980.06V287.453H984.796V284.259Z" fill="black"/>
<path d="M1000.19 278.269H995.451V281.464H1000.19V278.269Z" fill="black"/>
<path d="M1000.19 284.259H995.451V287.453H1000.19V284.259Z" fill="black"/>
<path d="M993.083 284.259H988.348V287.453H993.083V284.259Z" fill="black"/>
<path d="M1000.78 263.694H996.043V266.889H1000.78V263.694Z" fill="black"/>
<path d="M1000.78 237.141H996.043V240.335H1000.78V237.141Z" fill="black"/>
<path d="M1008.47 223.564H1003.74V226.759H1008.47V223.564Z" fill="black"/>
<path d="M1016.96 223.564H1012.22V226.759H1016.96V223.564Z" fill="black"/>
<path d="M969.997 299.632H959.342V302.826H969.997V299.632Z" fill="black"/>
<path d="M969.997 303.825H959.342V307.019H969.997V303.825Z" fill="black"/>
<path d="M984.007 299.632H973.352V302.826H984.007V299.632Z" fill="black"/>
<path d="M984.007 303.825H973.352V307.019H984.007V303.825Z" fill="black"/>
<path d="M998.213 299.632H987.558V302.826H998.213V299.632Z" fill="black"/>
<path d="M998.213 303.825H987.558V307.019H998.213V303.825Z" fill="black"/>
<path d="M1031.36 245.925H1020.71V249.12H1031.36V245.925Z" fill="black"/>
<path d="M1031.36 252.714H1020.71V255.908H1031.36V252.714Z" fill="black"/>
<path d="M1045.37 245.925H1034.72V249.12H1045.37V245.925Z" fill="black"/>
<path d="M1045.37 252.714H1034.72V255.908H1045.37V252.714Z" fill="black"/>
<path d="M1059.58 245.925H1048.92V249.12H1059.58V245.925Z" fill="black"/>
<path d="M1059.58 252.714H1048.92V255.908H1059.58V252.714Z" fill="black"/>
<path d="M1031.36 258.703H1020.71V261.898H1031.36V258.703Z" fill="black"/>
<path d="M1045.37 258.703H1034.72V261.898H1045.37V258.703Z" fill="black"/>
<path d="M1059.58 258.703H1048.92V261.898H1059.58V258.703Z" fill="black"/>
<path d="M1031.16 269.285H1020.51V272.479H1031.16V269.285Z" fill="black"/>
<path d="M1031.16 275.873H1020.51V279.068H1031.16V275.873Z" fill="black"/>
<path d="M1045.37 269.285H1034.72V272.479H1045.37V269.285Z" fill="black"/>
<path d="M1045.37 275.873H1034.72V279.068H1045.37V275.873Z" fill="black"/>
<path d="M1059.38 269.285H1048.73V272.479H1059.38V269.285Z" fill="black"/>
<path d="M1059.38 275.873H1048.73V279.068H1059.38V275.873Z" fill="black"/>
<path d="M1031.16 282.062H1020.51V285.257H1031.16V282.062Z" fill="black"/>
<path d="M1045.37 282.062H1034.72V285.257H1045.37V282.062Z" fill="black"/>
<path d="M1059.38 282.062H1048.73V285.257H1059.38V282.062Z" fill="black"/>
<path d="M1084.83 238.538H1075.56V241.733H1084.83V238.538Z" fill="black"/>
<path d="M1084.83 243.929H1075.56V247.123H1084.83V243.929Z" fill="black"/>
<path d="M1084.83 249.319H1075.56V252.514H1084.83V249.319Z" fill="black"/>
<path d="M1084.83 261.299H1075.56V264.493H1084.83V261.299Z" fill="black"/>
<path d="M1084.83 266.689H1075.56V269.884H1084.83V266.689Z" fill="black"/>
<path d="M1084.83 272.28H1075.56V275.474H1084.83V272.28Z" fill="black"/>
<path d="M1099.44 247.722H1094.11V250.917H1099.44V247.722Z" fill="black"/>
<path d="M1108.12 247.722H1102.79V250.917H1108.12V247.722Z" fill="black"/>
<path d="M1116.6 247.722H1111.27V250.917H1116.6V247.722Z" fill="black"/>
<path d="M1099.63 252.714H1094.31V255.908H1099.63V252.714Z" fill="black"/>
<path d="M1108.31 252.714H1102.99V255.908H1108.31V252.714Z" fill="black"/>
<path d="M1116.8 252.714H1111.47V255.908H1116.8V252.714Z" fill="black"/>
<path d="M1099.63 257.705H1094.31V260.899H1099.63V257.705Z" fill="black"/>
<path d="M1108.51 257.705H1103.18V260.899H1108.51V257.705Z" fill="black"/>
<path d="M1117 257.705H1111.67V260.899H1117V257.705Z" fill="black"/>
<path d="M1130.02 259.502H1124.69V262.696H1130.02V259.502Z" fill="black"/>
<path d="M1130.22 264.493H1124.89V267.687H1130.22V264.493Z" fill="black"/>
<path d="M1130.41 269.484H1125.09V272.679H1130.41V269.484Z" fill="black"/>
<path d="M1136.53 299.033H1131.2V302.227H1136.53V299.033Z" fill="black"/>
<path d="M1136.53 304.024H1131.2V307.219H1136.53V304.024Z" fill="black"/>
<path d="M1099.63 268.087H1094.31V271.281H1099.63V268.087Z" fill="black"/>
<path d="M1108.31 268.087H1102.99V271.281H1108.31V268.087Z" fill="black"/>
<path d="M1116.8 268.087H1111.47V271.281H1116.8V268.087Z" fill="black"/>
<path d="M1099.63 273.477H1094.31V276.672H1099.63V273.477Z" fill="black"/>
<path d="M1108.31 273.477H1102.99V276.672H1108.31V273.477Z" fill="black"/>
<path d="M1116.8 273.477H1111.47V276.672H1116.8V273.477Z" fill="black"/>
<path d="M1439.8 273.078C1405.08 259.901 1361.86 234.146 1351.6 186.229V179.241H1347.66V183.434H1328.91V179.241H1324.97V188.625C1320.62 196.811 1316.48 204.398 1312.34 211.585H1312.14V211.785C1306.62 221.368 1301.29 230.153 1295.96 238.139H1295.76V238.339C1284.32 255.509 1273.66 268.686 1263.6 277.87H1263.4V278.069C1258.27 282.661 1253.34 286.255 1248.61 288.851H1246.43C1241.9 287.253 1237.56 284.458 1233.41 280.465V280.066H1233.02C1219.4 266.49 1208.55 239.536 1201.25 200.604V193.017H1196.32V196.212H1178.76V193.017H1173.82V211.585C1168.5 232.948 1152.32 258.703 1142.25 274.076V254.51H1118.57V280.865H1121.53V257.505H1139.29V274.476H1142.06C1141.66 275.075 1141.27 275.873 1140.87 276.472L1140.08 277.67H1125.48V286.654H1128.44V280.665H1139.29V288.252H1149.75V308.616H1152.71V291.247C1156.26 289.05 1160.21 286.255 1164.35 282.462V316.403H1152.91V316.602H286.698H275.254V281.264C279.594 285.656 284.33 289.45 289.263 292.844V298.634H282.159V308.616H285.317V301.828H292.42V294.241H298.537V282.661H320.044V279.467H301.102L299.326 276.672C289.46 261.299 271.307 233.547 265.782 211.585V193.017H263.217H260.652V196.212H243.091V193.017H240.723H238.158V200.604C230.858 239.536 220.005 266.49 206.391 280.066H205.996V280.465C201.853 284.458 197.512 287.253 192.973 288.851H190.803C186.067 286.255 181.135 282.661 176.004 278.069C166.139 268.885 155.286 255.708 144.039 238.538V238.339H143.842C138.515 230.352 133.187 221.568 127.662 211.984V211.785H127.465C123.321 204.597 119.178 197.01 114.837 188.825V179.441H110.891V183.634H92.1458V179.441H88.1995V186.429C78.1365 234.345 34.9246 260.101 0 273.278H0V317.201H0.591943V318H259.468H286.5H1161V317.8H1439.41V317.002H1440V273.078H1439.8ZM275.254 242.332C282.554 256.108 291.039 269.285 296.958 278.269L297.747 279.467H295.577V291.047H292.223C286.106 287.253 280.384 282.462 275.254 276.872V242.332ZM14.2066 316.403H2.95971V293.642C6.70869 292.444 10.4577 291.247 14.0093 290.049V316.403H14.2066ZM14.2066 286.854C10.655 288.252 6.906 289.45 3.15703 290.648V275.674C6.70869 274.276 10.4577 272.679 14.2066 271.082V286.854ZM28.0186 316.403H17.1663V288.851C20.9153 287.453 24.467 285.856 28.0186 284.259V316.403ZM28.0186 281.064C24.467 282.661 20.9153 284.259 17.1663 285.656V269.484C20.718 267.887 24.467 265.891 28.0186 263.894V281.064ZM42.2253 316.403H31.1757V283.061C34.9246 281.264 38.6736 279.467 42.2253 277.47V316.403ZM42.2253 273.877C38.6736 275.873 34.9246 277.87 31.1757 279.667V262.297C34.9246 260.101 38.6736 257.905 42.2253 255.509V273.877ZM56.0373 316.403H45.185V275.674C48.934 273.477 52.4856 271.281 56.0373 268.885V316.403ZM56.0373 265.292C52.4856 267.687 48.934 269.884 45.185 272.08V253.312C48.934 250.717 52.4856 247.922 56.0373 244.927V265.292ZM70.2439 316.403H58.997V266.889C62.9433 264.094 66.6922 261.299 70.2439 258.304V316.403ZM70.2439 254.311C66.6922 257.306 62.9433 260.3 58.997 263.095V242.332C62.9433 238.738 66.6922 234.745 70.2439 230.552V254.311ZM79.5177 316.403H73.2036V255.708C75.3741 253.911 77.5445 251.915 79.5177 249.918V316.403ZM79.5177 245.726C77.5445 247.722 75.3741 249.719 73.2036 251.715V226.759C75.3741 223.764 77.5445 220.769 79.5177 217.575V245.726ZM88.3968 316.403H82.4774V246.924C84.6479 244.727 86.621 242.531 88.3968 240.335V316.403ZM88.3968 235.743C86.4237 238.139 84.4505 240.335 82.4774 242.531V212.184C84.8452 207.792 86.8183 203 88.3968 198.208V235.743ZM92.3431 192.019C95.8948 199.406 99.6437 206.394 103.195 212.983C102.998 213.382 102.801 213.582 102.801 213.981H92.3431V192.019ZM92.3431 220.969H98.8545C96.8813 224.163 94.7109 227.557 92.3431 230.552V220.969ZM111.088 316.403H92.3431V281.663H111.088V316.403ZM111.088 274.675H92.3431V251.316H111.088V274.675ZM111.088 244.328H92.3431V235.743C96.0921 230.951 99.4464 226.16 102.406 221.168H107.734C108.918 223.165 109.904 225.161 111.088 226.958V244.328ZM111.088 213.981H107.339C107.142 213.582 106.944 213.382 106.747 212.983C108.523 209.389 109.904 205.795 111.088 202.201V213.981ZM111.088 191.22C109.707 197.41 107.536 203.599 104.971 209.589C101.814 203.599 98.4599 197.21 95.3028 190.622H111.285V191.22H111.088ZM124.703 316.403H115.034V233.347C118.389 238.738 121.546 243.729 124.703 248.321V316.403ZM124.703 242.731C121.546 237.939 118.191 232.948 115.034 227.358V195.214C118.389 201.403 121.546 207.193 124.703 212.783V242.731ZM140.882 316.403H127.662V252.514C132.201 258.703 136.542 264.094 140.882 268.885V316.403ZM140.882 264.094C136.542 259.102 132.003 253.512 127.662 247.123V218.174C132.201 225.96 136.542 233.148 140.882 239.736V264.094ZM157.26 316.403H144.039V272.08C148.578 276.672 152.919 280.665 157.26 283.66V316.403ZM157.26 279.667C152.919 276.273 148.578 272.28 144.039 267.288V244.128C148.578 250.717 152.919 256.707 157.26 262.097V279.667ZM173.045 316.403H160.219V285.656C164.56 288.451 168.901 290.648 173.045 292.045V316.403ZM173.045 288.651C168.901 287.253 164.56 284.858 160.219 281.863V265.891C164.56 271.082 168.901 275.674 173.045 279.667V288.651ZM176.202 282.462C179.951 285.656 183.502 288.451 187.251 290.448C183.7 290.847 179.951 290.648 176.202 289.649V282.462ZM190.014 316.403H176.202V292.844C178.767 293.443 181.332 293.642 183.7 293.642C185.081 293.642 186.659 293.642 188.041 293.443C188.633 293.443 189.422 293.243 190.014 293.043V316.403ZM205.996 316.403H192.973V293.443C197.512 295.439 201.853 296.437 205.996 296.637V316.403ZM205.996 293.642C202.642 293.443 199.287 292.644 195.736 291.247C199.287 289.649 202.839 287.653 205.996 284.658V293.642ZM243.289 201.403H260.85V209.189C259.271 215.378 257.89 221.168 256.114 226.559H248.024C246.248 220.969 244.67 214.779 243.289 208.59V201.403ZM252.562 247.323C254.141 250.717 255.719 253.911 257.495 257.106H248.616C249.997 253.911 251.181 250.717 252.562 247.323ZM252.168 238.937C251.181 236.542 250.392 234.146 249.603 231.75H254.535C253.746 234.146 252.957 236.542 252.168 238.937ZM253.944 243.13C255.127 239.536 256.509 235.743 257.693 231.75H260.652V256.906C258.284 252.714 256.114 248.122 253.944 243.13ZM259.271 226.759C259.863 224.962 260.258 223.165 260.85 221.368V226.759H259.271ZM243.289 221.168C243.881 222.965 244.275 224.762 244.867 226.559H243.289V221.168ZM243.289 231.75H246.446C247.827 235.743 249.208 239.536 250.787 243.33C249.011 248.321 247.235 252.913 245.262 257.106H243.289V231.75ZM243.289 268.087C244.275 266.09 245.459 264.094 246.446 261.898H260.455C260.652 262.097 260.85 262.497 260.85 262.696V287.253H243.289V268.087ZM225.925 254.71C230.66 243.729 234.804 230.752 238.158 215.378V270.483C234.212 276.872 230.069 282.062 225.925 285.856V254.71ZM222.965 316.403H209.153V296.637C209.745 296.637 210.337 296.637 210.929 296.437C215.073 295.839 219.216 294.441 222.965 292.045V316.403ZM222.965 288.252C219.019 291.047 214.875 292.844 210.534 293.443C210.14 293.443 209.548 293.443 209.153 293.642V281.863C214.086 276.672 218.822 269.884 222.965 261.299V288.252ZM272.096 316.403H259.468H225.925V289.849C230.266 286.455 234.409 282.062 238.158 276.273V315.604H243.091V292.245H260.652V315.604H265.585V270.283C267.558 273.078 269.729 275.674 271.899 278.069V316.403H272.096ZM272.096 237.141V273.477C269.926 270.882 267.756 267.887 265.782 264.892V221.767C267.558 226.759 269.926 231.95 272.491 237.141H272.096ZM1165.14 278.069C1161.19 282.062 1157.25 285.257 1153.5 287.653V285.257H1143.04V279.667L1144.03 278.069C1149.75 269.285 1158.04 256.507 1165.14 242.731V278.069ZM1174.41 316.403H1168.1V279.467C1170.27 277.271 1172.44 274.675 1174.41 271.88V316.403ZM1174.41 266.689C1172.24 269.884 1170.07 272.479 1168.1 275.075V236.941C1170.47 231.95 1172.64 226.958 1174.41 221.967V266.689ZM1179.35 221.368C1179.74 223.165 1180.33 224.962 1180.93 226.759H1179.35V221.368ZM1179.35 231.55H1182.31C1183.69 235.743 1184.87 239.936 1186.25 243.729C1184.28 248.521 1182.31 252.913 1180.14 256.906H1179.35V231.55ZM1185.66 231.55H1190.99C1190.2 234.345 1189.21 236.941 1188.23 239.337C1187.24 236.941 1186.45 234.345 1185.66 231.55ZM1191.58 256.906H1183.69C1185.07 254.111 1186.45 251.116 1188.03 247.922C1189.21 251.116 1190.4 254.111 1191.58 256.906ZM1196.91 316.403H1179.35V292.444H1196.91V316.403ZM1196.91 287.253H1179.35V264.493C1179.94 263.694 1180.33 262.896 1180.93 261.898H1193.75C1194.74 264.094 1195.72 266.09 1196.91 268.087V287.253ZM1196.91 256.906H1194.94C1193.16 252.913 1191.38 248.521 1189.61 243.729C1191.19 239.936 1192.57 235.943 1193.95 231.55H1196.91V256.906ZM1196.91 226.559H1195.53C1195.92 224.962 1196.51 223.165 1196.91 221.368V226.559ZM1196.91 208.79C1195.53 215.179 1193.95 221.168 1192.37 226.559H1184.08C1182.5 221.168 1180.93 215.179 1179.35 209.189V201.403H1196.91V208.79ZM1214.27 316.403H1202.04V276.273C1205.99 282.062 1210.13 286.455 1214.27 289.849V316.403ZM1214.27 285.856C1209.93 282.062 1205.79 277.071 1202.04 270.483V215.378C1205.59 230.552 1209.73 243.729 1214.27 254.71V285.856ZM1231.24 316.403H1217.43V292.045C1221.38 294.441 1225.32 295.839 1229.47 296.437C1230.06 296.437 1230.65 296.637 1231.24 296.637V316.403ZM1231.24 293.443C1230.85 293.443 1230.25 293.443 1229.86 293.243C1225.52 292.644 1221.38 291.047 1217.43 288.052V261.099C1221.57 269.684 1226.31 276.472 1231.24 281.663V293.443ZM1234.2 284.658C1237.56 287.453 1240.91 289.649 1244.46 291.247C1240.91 292.644 1237.56 293.443 1234.2 293.642V284.658ZM1247.22 316.403H1234.2V296.637C1238.34 296.437 1242.69 295.439 1247.22 293.443V316.403ZM1264 316.403H1250.18V293.043C1250.78 293.243 1251.56 293.243 1252.16 293.443C1253.54 293.642 1254.92 293.642 1256.5 293.642C1259.06 293.642 1261.43 293.243 1264 292.844V316.403ZM1264 289.45C1260.25 290.448 1256.5 290.648 1252.95 290.248C1256.5 288.052 1260.25 285.457 1264 282.262V289.45ZM1279.98 316.403H1267.15V292.045C1271.3 290.648 1275.64 288.651 1279.98 285.656V316.403ZM1279.98 281.863C1275.64 284.858 1271.3 287.253 1267.15 288.651V279.667C1271.3 275.674 1275.64 271.082 1279.98 265.891V281.863ZM1296.16 316.403H1282.94V283.46C1287.28 280.266 1291.62 276.472 1296.16 271.88V316.403ZM1296.16 267.288C1291.62 272.08 1287.28 276.273 1282.94 279.667V262.097C1287.28 256.707 1291.62 250.717 1296.16 244.128V267.288ZM1312.54 316.403H1299.31V268.686C1303.66 263.894 1308.19 258.503 1312.54 252.314V316.403ZM1312.54 246.924C1308 253.312 1303.66 258.903 1299.31 263.894V239.536C1303.66 232.948 1308 225.76 1312.54 217.974V246.924ZM1325.36 316.403H1315.69V248.122C1318.85 243.529 1322.2 238.538 1325.36 233.148V316.403ZM1325.36 227.358C1322.01 232.748 1318.85 237.939 1315.69 242.731V212.783C1318.85 207.193 1322.2 201.203 1325.36 195.214V227.358ZM1329.11 190.622H1345.09C1341.74 197.21 1338.58 203.599 1335.42 209.589C1332.66 203.599 1330.69 197.41 1329.31 191.22V190.622H1329.11ZM1329.11 202.201C1330.29 205.795 1331.87 209.389 1333.45 212.983C1333.25 213.382 1333.06 213.582 1332.86 213.981H1329.11V202.201ZM1347.85 316.403H1329.11V281.663H1347.85V316.403ZM1347.85 274.476H1329.11V251.316H1347.85V274.476ZM1347.85 244.128H1329.11V226.759C1330.29 224.762 1331.28 222.965 1332.46 220.969H1337.79C1340.75 225.96 1344.11 230.951 1347.85 235.543V244.128ZM1347.85 230.552C1345.49 227.358 1343.32 224.163 1341.34 220.969H1347.85V230.552ZM1347.85 213.781H1337.4C1337.2 213.382 1337 213.182 1337 212.783C1340.55 206.194 1344.3 199.207 1347.85 191.819V213.781ZM1357.72 316.403H1351.8V240.335C1353.77 242.531 1355.75 244.727 1357.72 246.924V316.403ZM1357.72 242.332C1355.55 240.135 1353.58 237.74 1351.8 235.543V198.009C1353.38 203 1355.55 207.592 1357.72 211.984V242.332ZM1366.99 316.403H1360.68V249.719C1362.65 251.715 1364.82 253.512 1366.99 255.509V316.403ZM1366.99 251.516C1364.82 249.519 1362.65 247.523 1360.68 245.526V217.375C1362.65 220.569 1364.63 223.564 1366.99 226.559V251.516ZM1381.2 316.403H1369.95V258.104C1373.51 261.099 1377.25 263.894 1381.2 266.689V316.403ZM1381.2 263.095C1377.25 260.3 1373.51 257.306 1369.95 254.311V230.352C1373.51 234.545 1377.25 238.538 1381.2 242.132V263.095ZM1395.01 316.403H1384.16V268.885C1387.71 271.281 1391.26 273.477 1395.01 275.674V316.403ZM1395.01 272.08C1391.26 269.884 1387.71 267.687 1384.16 265.292V244.927C1387.71 247.922 1391.26 250.717 1395.01 253.312V272.08ZM1409.02 316.403H1397.97V277.271C1401.52 279.267 1405.27 281.064 1409.02 282.861V316.403ZM1409.02 279.467C1405.27 277.67 1401.52 275.674 1397.97 273.677V255.309C1401.52 257.705 1405.27 260.101 1409.02 262.097V279.467ZM1423.03 316.403H1412.18V284.259C1415.73 285.856 1419.48 287.453 1423.03 288.851V316.403ZM1423.03 285.457C1419.28 284.059 1415.73 282.462 1412.18 280.865V263.694C1415.73 265.691 1419.48 267.488 1423.03 269.285V285.457ZM1437.24 316.403H1426.19V290.049C1429.74 291.446 1433.49 292.644 1437.24 293.642V316.403ZM1437.24 290.448C1433.49 289.25 1429.74 288.052 1426.19 286.654V270.682C1429.94 272.279 1433.69 273.877 1437.24 275.274V290.448Z" fill="black"/>
</g>
</svg>
