<svg width="148" height="148" viewBox="0 0 148 148" fill="none" xmlns="http://www.w3.org/2000/svg">
<path d="M0.00573227 73.9665C-0.267948 33.251 32.7447 0.945301 71.9152 0.0222797C114.986 -1.0033 147.725 33.5245 147.998 73.317C148.272 114.956 114.815 147.09 75.781 147.979C33.4974 148.971 -0.507418 114.477 0.00573227 73.9665ZM66.9206 17.1836C60.4891 17.9015 54.6734 19.645 49.234 22.4141C32.7789 30.7555 22.4817 44.0538 18.3765 61.9673C16.2897 71.0265 16.6318 80.1884 19.0949 89.1793C21.387 97.589 25.4238 105.144 31.1711 111.742C32.5395 113.315 32.6079 113.315 33.9421 111.742C44.5472 99.3325 55.1523 86.923 65.7916 74.5477C66.7495 73.4196 67.1258 72.2914 67.1258 70.8556C67.0574 63.6424 67.0232 56.3949 66.989 49.1475C66.989 39.3703 67.0232 29.559 67.0574 19.7818C67.0574 18.9271 66.989 18.0725 66.9206 17.1836ZM82.6572 17.6281C82.6572 18.4485 82.6572 19.098 82.6572 19.7818C82.6572 25.6618 82.6572 31.5076 82.6572 37.3875C82.6572 48.9082 82.623 60.3947 82.6914 71.9154C82.6914 72.8726 83.2045 74.0007 83.8203 74.7528C85.8387 77.2826 87.9939 79.6756 90.0807 82.1028C96.6833 89.7604 103.252 97.4523 109.854 105.11C111.907 107.503 113.994 109.828 116.08 112.221C128.635 99.1274 135.888 75.3682 126.617 52.3268C117.928 30.7555 98.0859 19.2348 82.6572 17.6281ZM43.3498 122.237C43.7604 122.511 44.034 122.75 44.3077 122.921C50.9103 126.852 57.8891 129.587 65.5522 130.681C67.1942 130.92 67.4679 130.476 67.4679 128.972C67.4337 117.93 67.4679 106.888 67.4679 95.8455C67.4679 95.4695 67.3653 95.1276 67.2284 94.3414C59.1549 103.777 51.355 112.904 43.3498 122.237ZM82.4861 94.649C82.4861 96.8028 82.4861 98.7855 82.4861 100.768C82.4861 109.52 82.4519 118.306 82.4861 127.057C82.5203 130.578 82.5888 130.613 86.0782 129.929C92.886 128.63 99.078 125.758 104.928 122.1C105.715 121.622 105.783 121.177 105.202 120.494C97.9491 112.084 90.6965 103.674 83.4098 95.2644C83.2045 95.0251 82.8966 94.9225 82.4861 94.649Z" fill="#4949F4"/>
</svg>
