<svg width="148" height="148" viewBox="0 0 148 148" fill="none" xmlns="http://www.w3.org/2000/svg">
<path d="M145.3 11.2755L136.735 2.71015C135.876 1.85094 134.856 1.16937 133.733 0.704353C132.611 0.239341 131.408 0 130.193 0C128.978 0 127.775 0.239341 126.652 0.704353C125.53 1.16937 124.51 1.85094 123.651 2.71015L110.272 16.1031C109.151 17.2215 108.306 18.5866 107.807 20.0895L104.291 30.6437L82.2463 52.6888C78.7311 50.1564 74.8748 48.1387 70.6543 47.1558C60.9846 44.9068 51.286 46.9014 44.6719 53.5155C41.9738 56.2247 39.967 59.5432 38.821 63.1909C37.0865 68.5562 32.1115 72.6409 26.6364 73.1526C19.7852 73.8088 13.4168 76.4625 8.5372 81.3739C-4.65631 94.5298 -2.28298 118.234 13.7551 134.264C29.7931 150.293 53.4801 152.634 66.6505 139.487C71.5649 134.608 74.2128 128.242 74.8748 121.359C75.3836 115.91 79.4682 110.915 84.8278 109.177C88.4761 108.029 91.7954 106.022 94.5061 103.324C101.117 96.7095 103.103 87.0312 100.866 77.3789C99.8858 73.1468 97.8681 69.2847 95.3271 65.758L117.366 43.7187L127.912 40.2035C129.415 39.7036 130.78 38.8591 131.898 37.7377L145.291 24.3476C147.024 22.6144 147.998 20.2643 148 17.8134C148.002 15.3624 147.031 13.0111 145.3 11.2755V11.2755ZM60.1289 101.757C57.3846 101.757 54.7018 100.943 52.42 99.4183C50.1381 97.8936 48.3596 95.7265 47.3094 93.1911C46.2592 90.6556 45.9844 87.8657 46.5198 85.174C47.0552 82.4824 48.3767 80.01 50.3173 78.0694C52.2579 76.1289 54.7303 74.8074 57.4219 74.272C60.1135 73.7366 62.9035 74.0113 65.439 75.0616C67.9744 76.1118 70.1415 77.8903 71.6662 80.1721C73.1909 82.454 74.0047 85.1367 74.0047 87.8811C74.0047 91.5611 72.5428 95.0905 69.9406 97.6927C67.3384 100.295 63.809 101.757 60.1289 101.757Z" fill="#5C49B3"/>
</svg>
