<svg width="90" height="154" viewBox="0 0 90 154" fill="none" xmlns="http://www.w3.org/2000/svg">
<path d="M44.8863 151.176C35.7321 151.808 27.8402 144.935 27.2086 135.78L39.6111 134.925C39.7639 137.139 41.6579 138.789 43.8727 138.636C46.0874 138.483 47.7369 136.589 47.5841 134.374L47.1256 127.73C25.2175 126.275 7.08133 108.537 5.52248 85.9471C3.96362 63.3568 19.5016 43.4439 41.1397 38.8353L40.0903 23.6275C39.3159 12.4062 47.8385 2.62027 59.0598 1.84594C70.2811 1.0716 80.2147 9.58395 80.9992 20.9529C81.9977 35.4225 71.4896 46.5323 54.3573 49.7914L55.3762 64.5563C70.1972 66.5006 82.0096 78.5921 83.0692 93.9476C84.1288 109.303 74.0892 122.902 59.6758 126.864L60.1444 133.656C60.7659 142.663 53.8929 150.554 44.8863 151.176ZM42.0159 51.5332C35.7485 53.1525 30.2042 56.6504 25.9429 61.5434C20.3071 68.0147 17.4817 76.5174 18.0726 85.081C19.1628 100.879 31.4386 113.236 46.5447 115.012L45.5666 100.838C37.8735 98.9949 31.9316 92.4324 31.3508 84.0164C30.7803 75.7481 35.7542 68.284 43.1213 65.402L42.0159 51.5332ZM56.2524 77.2541L58.769 113.723C66.2633 110.536 71.2373 103.072 70.6463 94.5081C70.0758 86.2398 64.1135 79.382 56.2524 77.2541ZM59.9156 14.2484C55.4862 14.5541 52.1871 18.3422 52.4928 22.7717L53.4811 37.0936C61.953 35.1738 69.0502 30.5302 68.4389 21.6713C68.291 17.3793 64.3451 13.9428 59.9156 14.2484Z" fill="#E5A727"/>
</svg>
